<ttFont>
    <TTGlyph name=".notdef" xMin="34" yMin="-192" xMax="414" yMax="832">
      <contour>
        <pt x="34" y="832" on="1"/>
        <pt x="414" y="832" on="1"/>
        <pt x="414" y="-192" on="1"/>
        <pt x="34" y="-192" on="1"/>
      </contour>
      <contour>
        <pt x="200" y="598" on="0"/>
        <pt x="298" y="563" on="0"/>
        <pt x="327" y="519" on="0"/>
        <pt x="327" y="491" on="1"/>
        <pt x="327" y="464" on="0"/>
        <pt x="304" y="424" on="0"/>
        <pt x="280" y="396" on="1"/>
        <pt x="255" y="368" on="0"/>
        <pt x="224" y="321" on="0"/>
        <pt x="200" y="246" on="0"/>
        <pt x="199" y="195" on="1"/>
        <pt x="247" y="193" on="1"/>
        <pt x="247" y="239" on="0"/>
        <pt x="268" y="305" on="0"/>
        <pt x="298" y="348" on="0"/>
        <pt x="321" y="374" on="1"/>
        <pt x="349" y="405" on="0"/>
        <pt x="377" y="455" on="0"/>
        <pt x="377" y="493" on="1"/>
        <pt x="377" y="541" on="0"/>
        <pt x="327" y="605" on="0"/>
        <pt x="209" y="642" on="0"/>
        <pt x="107" y="645" on="1"/>
        <pt x="104" y="603" on="1"/>
      </contour>
      <contour>
        <pt x="172" y="18" on="0"/>
        <pt x="202" y="-10" on="0"/>
        <pt x="224" y="-10" on="1"/>
        <pt x="246" y="-10" on="0"/>
        <pt x="276" y="18" on="0"/>
        <pt x="276" y="42" on="1"/>
        <pt x="276" y="66" on="0"/>
        <pt x="246" y="94" on="0"/>
        <pt x="224" y="94" on="1"/>
        <pt x="202" y="94" on="0"/>
        <pt x="172" y="66" on="0"/>
        <pt x="172" y="42" on="1"/>
      </contour>
    </TTGlyph>
    <TTGlyph name="A" xMin="41" yMin="0" xMax="407" yMax="643">
      <contour>
        <pt x="58" y="186" on="0"/>
        <pt x="141" y="520" on="0"/>
        <pt x="204" y="643" on="1"/>
        <pt x="244" y="643" on="1"/>
        <pt x="307" y="520" on="0"/>
        <pt x="390" y="186" on="0"/>
        <pt x="407" y="0" on="1"/>
        <pt x="356" y="0" on="1"/>
        <pt x="346" y="105" on="0"/>
        <pt x="329" y="202" on="1"/>
        <pt x="119" y="202" on="1"/>
        <pt x="102" y="105" on="0"/>
        <pt x="92" y="0" on="1"/>
        <pt x="41" y="0" on="1"/>
      </contour>
      <contour>
        <pt x="321" y="246" on="1"/>
        <pt x="283" y="443" on="0"/>
        <pt x="224" y="578" on="1"/>
        <pt x="165" y="443" on="0"/>
        <pt x="127" y="246" on="1"/>
      </contour>
    </TTGlyph>
    <TTGlyph name="A.hex" xMin="41" yMin="0" xMax="407" yMax="579">
      <contour>
        <pt x="58" y="167" on="0"/>
        <pt x="141" y="468" on="0"/>
        <pt x="204" y="579" on="1"/>
        <pt x="244" y="579" on="1"/>
        <pt x="307" y="468" on="0"/>
        <pt x="390" y="167" on="0"/>
        <pt x="407" y="0" on="1"/>
        <pt x="356" y="0" on="1"/>
        <pt x="348" y="78" on="0"/>
        <pt x="337" y="138" on="1"/>
        <pt x="111" y="138" on="1"/>
        <pt x="100" y="78" on="0"/>
        <pt x="92" y="0" on="1"/>
        <pt x="41" y="0" on="1"/>
      </contour>
      <contour>
        <pt x="329" y="182" on="1"/>
        <pt x="290" y="380" on="0"/>
        <pt x="224" y="515" on="1"/>
        <pt x="158" y="380" on="0"/>
        <pt x="119" y="182" on="1"/>
      </contour>
    </TTGlyph>
    <TTGlyph name="A.short" xMin="41" yMin="0" xMax="407" yMax="579">
      <component glyphName="A.hex" x="0" y="0" flags="0x400"/>
    </TTGlyph>
    <TTGlyph name="A.sups" xMin="120" yMin="320" xMax="328" yMax="643">
      <contour>
        <pt x="132" y="501" on="0"/>
        <pt x="199" y="643" on="1"/>
        <pt x="249" y="643" on="1"/>
        <pt x="316" y="506" on="0"/>
        <pt x="328" y="320" on="1"/>
        <pt x="283" y="320" on="1"/>
        <pt x="279" y="374" on="0"/>
        <pt x="275" y="402" on="1"/>
        <pt x="173" y="402" on="1"/>
        <pt x="167" y="351" on="0"/>
        <pt x="165" y="320" on="1"/>
        <pt x="120" y="320" on="1"/>
      </contour>
      <contour>
        <pt x="269" y="442" on="1"/>
        <pt x="253" y="530" on="0"/>
        <pt x="223" y="602" on="1"/>
        <pt x="194" y="532" on="0"/>
        <pt x="179" y="442" on="1"/>
      </contour>
    </TTGlyph>
    <TTGlyph name="AE" xMin="-12" yMin="0" xMax="452" yMax="640">
      <contour>
        <pt x="452" y="44" on="1"/>
        <pt x="452" y="0" on="1"/>
        <pt x="206" y="0" on="1"/>
        <pt x="206" y="202" on="1"/>
        <pt x="66" y="202" on="1"/>
        <pt x="49" y="105" on="0"/>
        <pt x="39" y="0" on="1"/>
        <pt x="-12" y="0" on="1"/>
        <pt x="5" y="185" on="0"/>
        <pt x="88" y="519" on="0"/>
        <pt x="149" y="640" on="1"/>
        <pt x="442" y="640" on="1"/>
        <pt x="442" y="596" on="1"/>
        <pt x="254" y="596" on="1"/>
        <pt x="254" y="310" on="1"/>
        <pt x="388" y="310" on="1"/>
        <pt x="388" y="266" on="1"/>
        <pt x="254" y="266" on="1"/>
        <pt x="254" y="44" on="1"/>
      </contour>
      <contour>
        <pt x="206" y="246" on="1"/>
        <pt x="206" y="596" on="1"/>
        <pt x="179" y="596" on="1"/>
        <pt x="113" y="449" on="0"/>
        <pt x="74" y="246" on="1"/>
      </contour>
    </TTGlyph>
    <TTGlyph name="AEacute" xMin="-12" yMin="0" xMax="452" yMax="832">
      <component glyphName="AE" x="0" y="0" flags="0x400"/>
      <component glyphName="acutecomb.case" x="48" y="0" flags="0x400"/>
    </TTGlyph>
    <TTGlyph name="Aacute" xMin="41" yMin="0" xMax="407" yMax="832">
      <component glyphName="A" x="0" y="0" flags="0x400"/>
      <component glyphName="acutecomb.case" x="0" y="0" flags="0x400"/>
    </TTGlyph>
    <TTGlyph name="Abreve" xMin="41" yMin="0" xMax="407" yMax="830">
      <component glyphName="A" x="0" y="0" flags="0x400"/>
      <component glyphName="uni0306.case" x="0" y="0" flags="0x400"/>
    </TTGlyph>
    <TTGlyph name="Acircumflex" xMin="41" yMin="0" xMax="407" yMax="842">
      <component glyphName="A" x="0" y="0" flags="0x400"/>
      <component glyphName="uni0302.case" x="0" y="0" flags="0x400"/>
    </TTGlyph>
    <TTGlyph name="Adieresis" xMin="41" yMin="0" xMax="407" yMax="810">
      <component glyphName="A" x="0" y="0" flags="0x400"/>
      <component glyphName="uni0308.case" x="0" y="0" flags="0x400"/>
    </TTGlyph>
    <TTGlyph name="Agrave" xMin="41" yMin="0" xMax="407" yMax="832">
      <component glyphName="A" x="0" y="0" flags="0x400"/>
      <component glyphName="gravecomb.case" x="0" y="0" flags="0x400"/>
    </TTGlyph>
    <TTGlyph name="Alpha" xMin="41" yMin="0" xMax="407" yMax="643">
      <component glyphName="A" x="0" y="0" flags="0x400"/>
    </TTGlyph>
    <TTGlyph name="Alphatonos" xMin="10" yMin="0" xMax="407" yMax="704">
      <component glyphName="A" x="0" y="0" flags="0x400"/>
      <component glyphName="tonos" x="-192" y="0" flags="0x400"/>
    </TTGlyph>
    <TTGlyph name="Amacron" xMin="41" yMin="0" xMax="407" yMax="762">
      <component glyphName="A" x="0" y="0" flags="0x400"/>
      <component glyphName="uni0304.case" x="0" y="0" flags="0x400"/>
    </TTGlyph>
    <TTGlyph name="Aogonek" xMin="41" yMin="-197" xMax="428" yMax="643">
      <component glyphName="A" x="0" y="0" flags="0x400"/>
      <component glyphName="uni0328" x="33" y="0" flags="0x400"/>
    </TTGlyph>
    <TTGlyph name="Aring" xMin="41" yMin="0" xMax="407" yMax="815">
      <component glyphName="A.short" x="0" y="0" flags="0x400"/>
      <component glyphName="uni030A.case" x="0" y="0" flags="0x400"/>
    </TTGlyph>
    <TTGlyph name="Aringacute" xMin="41" yMin="0" xMax="407" yMax="824">
      <component glyphName="A.short" x="0" y="0" flags="0x400"/>
      <component glyphName="uni030A.case" x="0" y="-90" flags="0x404"/>
      <component glyphName="acutecomb.case" x="0" y="-8" flags="0x404"/>
    </TTGlyph>
    <TTGlyph name="Atilde" xMin="41" yMin="0" xMax="407" yMax="837">
      <component glyphName="A" x="0" y="0" flags="0x400"/>
      <component glyphName="tildecomb.case" x="0" y="0" flags="0x400"/>
    </TTGlyph>
    <TTGlyph name="B" xMin="66" yMin="0" xMax="405" yMax="640">
      <contour>
        <pt x="66" y="640" on="1"/>
        <pt x="190" y="640" on="1"/>
        <pt x="283" y="640" on="0"/>
        <pt x="384" y="558" on="0"/>
        <pt x="384" y="478" on="1"/>
        <pt x="384" y="383" on="0"/>
        <pt x="286" y="310" on="1"/>
        <pt x="339" y="299" on="0"/>
        <pt x="405" y="224" on="0"/>
        <pt x="405" y="164" on="1"/>
        <pt x="405" y="85" on="0"/>
        <pt x="300" y="0" on="0"/>
        <pt x="210" y="0" on="1"/>
        <pt x="66" y="0" on="1"/>
      </contour>
      <contour>
        <pt x="209" y="44" on="1"/>
        <pt x="283" y="44" on="0"/>
        <pt x="353" y="104" on="0"/>
        <pt x="353" y="164" on="1"/>
        <pt x="353" y="221" on="0"/>
        <pt x="286" y="282" on="0"/>
        <pt x="209" y="282" on="1"/>
        <pt x="114" y="282" on="1"/>
        <pt x="114" y="44" on="1"/>
      </contour>
      <contour>
        <pt x="247" y="326" on="1"/>
        <pt x="287" y="353" on="0"/>
        <pt x="330" y="439" on="0"/>
        <pt x="330" y="483" on="1"/>
        <pt x="330" y="539" on="0"/>
        <pt x="262" y="596" on="0"/>
        <pt x="189" y="596" on="1"/>
        <pt x="114" y="596" on="1"/>
        <pt x="114" y="326" on="1"/>
      </contour>
    </TTGlyph>
    <TTGlyph name="B.hex" xMin="66" yMin="0" xMax="405" yMax="576">
      <contour>
        <pt x="66" y="576" on="1"/>
        <pt x="190" y="576" on="1"/>
        <pt x="282" y="576" on="0"/>
        <pt x="384" y="502" on="0"/>
        <pt x="384" y="430" on="1"/>
        <pt x="384" y="345" on="0"/>
        <pt x="288" y="278" on="1"/>
        <pt x="343" y="265" on="0"/>
        <pt x="405" y="199" on="0"/>
        <pt x="405" y="148" on="1"/>
        <pt x="405" y="77" on="0"/>
        <pt x="300" y="0" on="0"/>
        <pt x="210" y="0" on="1"/>
        <pt x="66" y="0" on="1"/>
      </contour>
      <contour>
        <pt x="209" y="44" on="1"/>
        <pt x="283" y="44" on="0"/>
        <pt x="353" y="96" on="0"/>
        <pt x="353" y="148" on="1"/>
        <pt x="353" y="250" on="0"/>
        <pt x="209" y="250" on="1"/>
        <pt x="114" y="250" on="1"/>
        <pt x="114" y="44" on="1"/>
      </contour>
      <contour>
        <pt x="248" y="294" on="1"/>
        <pt x="288" y="318" on="0"/>
        <pt x="330" y="396" on="0"/>
        <pt x="330" y="435" on="1"/>
        <pt x="330" y="483" on="0"/>
        <pt x="262" y="532" on="0"/>
        <pt x="189" y="532" on="1"/>
        <pt x="114" y="532" on="1"/>
        <pt x="114" y="294" on="1"/>
      </contour>
    </TTGlyph>
    <TTGlyph name="B.short" xMin="66" yMin="0" xMax="405" yMax="576">
      <component glyphName="B.hex" x="0" y="0" flags="0x400"/>
    </TTGlyph>
    <TTGlyph name="B.sups" xMin="128" yMin="320" xMax="324" yMax="640">
      <contour>
        <pt x="128" y="640" on="1"/>
        <pt x="214" y="640" on="1"/>
        <pt x="262" y="640" on="0"/>
        <pt x="313" y="598" on="0"/>
        <pt x="313" y="562" on="1"/>
        <pt x="313" y="517" on="0"/>
        <pt x="269" y="478" on="1"/>
        <pt x="295" y="470" on="0"/>
        <pt x="324" y="434" on="0"/>
        <pt x="324" y="406" on="1"/>
        <pt x="324" y="367" on="0"/>
        <pt x="272" y="320" on="0"/>
        <pt x="224" y="320" on="1"/>
        <pt x="128" y="320" on="1"/>
      </contour>
      <contour>
        <pt x="219" y="360" on="1"/>
        <pt x="249" y="360" on="0"/>
        <pt x="277" y="385" on="0"/>
        <pt x="277" y="406" on="1"/>
        <pt x="277" y="425" on="0"/>
        <pt x="249" y="452" on="0"/>
        <pt x="219" y="452" on="1"/>
        <pt x="172" y="452" on="1"/>
        <pt x="172" y="360" on="1"/>
      </contour>
      <contour>
        <pt x="239" y="492" on="1"/>
        <pt x="253" y="504" on="0"/>
        <pt x="266" y="536" on="0"/>
        <pt x="266" y="552" on="1"/>
        <pt x="266" y="600" on="0"/>
        <pt x="210" y="600" on="1"/>
        <pt x="172" y="600" on="1"/>
        <pt x="172" y="492" on="1"/>
      </contour>
    </TTGlyph>
    <TTGlyph name="Beta" xMin="66" yMin="0" xMax="405" yMax="640">
      <component glyphName="B" x="0" y="0" flags="0x400"/>
    </TTGlyph>
    <TTGlyph name="C" xMin="66" yMin="-9" xMax="376" yMax="647">
      <contour>
        <pt x="196" y="-9" on="0"/>
        <pt x="107" y="55" on="0"/>
        <pt x="66" y="197" on="0"/>
        <pt x="66" y="319" on="1"/>
        <pt x="66" y="441" on="0"/>
        <pt x="107" y="583" on="0"/>
        <pt x="196" y="647" on="0"/>
        <pt x="272" y="647" on="1"/>
        <pt x="325" y="647" on="0"/>
        <pt x="372" y="636" on="1"/>
        <pt x="366" y="596" on="1"/>
        <pt x="321" y="603" on="0"/>
        <pt x="275" y="603" on="1"/>
        <pt x="212" y="603" on="0"/>
        <pt x="145" y="546" on="0"/>
        <pt x="120" y="426" on="0"/>
        <pt x="120" y="319" on="1"/>
        <pt x="120" y="213" on="0"/>
        <pt x="146" y="92" on="0"/>
        <pt x="214" y="35" on="0"/>
        <pt x="277" y="35" on="1"/>
        <pt x="318" y="35" on="0"/>
        <pt x="370" y="44" on="1"/>
        <pt x="376" y="4" on="1"/>
        <pt x="317" y="-9" on="0"/>
        <pt x="272" y="-9" on="1"/>
      </contour>
    </TTGlyph>
    <TTGlyph name="C.hex" xMin="66" yMin="-9" xMax="376" yMax="583">
      <contour>
        <pt x="196" y="-9" on="0"/>
        <pt x="107" y="49" on="0"/>
        <pt x="66" y="177" on="0"/>
        <pt x="66" y="287" on="1"/>
        <pt x="66" y="397" on="0"/>
        <pt x="107" y="525" on="0"/>
        <pt x="196" y="583" on="0"/>
        <pt x="272" y="583" on="1"/>
        <pt x="325" y="583" on="0"/>
        <pt x="372" y="572" on="1"/>
        <pt x="366" y="532" on="1"/>
        <pt x="321" y="539" on="0"/>
        <pt x="275" y="539" on="1"/>
        <pt x="212" y="539" on="0"/>
        <pt x="145" y="488" on="0"/>
        <pt x="120" y="382" on="0"/>
        <pt x="120" y="287" on="1"/>
        <pt x="120" y="193" on="0"/>
        <pt x="146" y="86" on="0"/>
        <pt x="214" y="35" on="0"/>
        <pt x="277" y="35" on="1"/>
        <pt x="318" y="35" on="0"/>
        <pt x="370" y="44" on="1"/>
        <pt x="376" y="4" on="1"/>
        <pt x="317" y="-9" on="0"/>
        <pt x="272" y="-9" on="1"/>
      </contour>
    </TTGlyph>
    <TTGlyph name="C.short" xMin="66" yMin="-9" xMax="376" yMax="583">
      <component glyphName="C.hex" x="0" y="0" flags="0x400"/>
    </TTGlyph>
    <TTGlyph name="C.sups" xMin="136" yMin="316" xMax="315" yMax="644">
      <contour>
        <pt x="196" y="316" on="0"/>
        <pt x="136" y="398" on="0"/>
        <pt x="136" y="480" on="1"/>
        <pt x="136" y="562" on="0"/>
        <pt x="196" y="644" on="0"/>
        <pt x="252" y="644" on="1"/>
        <pt x="282" y="644" on="0"/>
        <pt x="315" y="637" on="1"/>
        <pt x="308" y="599" on="1"/>
        <pt x="280" y="604" on="0"/>
        <pt x="256" y="604" on="1"/>
        <pt x="218" y="604" on="0"/>
        <pt x="182" y="553" on="0"/>
        <pt x="182" y="480" on="1"/>
        <pt x="182" y="412" on="0"/>
        <pt x="223" y="356" on="0"/>
        <pt x="260" y="356" on="1"/>
        <pt x="280" y="356" on="0"/>
        <pt x="308" y="361" on="1"/>
        <pt x="315" y="323" on="1"/>
        <pt x="282" y="316" on="0"/>
        <pt x="252" y="316" on="1"/>
      </contour>
    </TTGlyph>
    <TTGlyph name="Cacute" xMin="66" yMin="-9" xMax="376" yMax="832">
      <component glyphName="C" x="0" y="0" flags="0x400"/>
      <component glyphName="acutecomb.case" x="32" y="0" flags="0x400"/>
    </TTGlyph>
    <TTGlyph name="Ccaron" xMin="66" yMin="-9" xMax="382" yMax="840">
      <component glyphName="C" x="0" y="0" flags="0x400"/>
      <component glyphName="uni030C.case" x="32" y="0" flags="0x400"/>
    </TTGlyph>
    <TTGlyph name="Ccedilla" xMin="66" yMin="-192" xMax="376" yMax="647">
      <component glyphName="C" x="0" y="0" flags="0x400"/>
      <component glyphName="uni0327" x="-20" y="0" flags="0x400"/>
    </TTGlyph>
    <TTGlyph name="Ccircumflex" xMin="66" yMin="-9" xMax="382" yMax="842">
      <component glyphName="C" x="0" y="0" flags="0x400"/>
      <component glyphName="uni0302.case" x="32" y="0" flags="0x400"/>
    </TTGlyph>
    <TTGlyph name="Cdotaccent" xMin="66" yMin="-9" xMax="376" yMax="813">
      <component glyphName="C" x="0" y="0" flags="0x400"/>
      <component glyphName="uni0307.case" x="32" y="0" flags="0x400"/>
    </TTGlyph>
    <TTGlyph name="Chi" xMin="53" yMin="0" xMax="394" yMax="640">
      <component glyphName="X" x="0" y="0" flags="0x400"/>
    </TTGlyph>
    <TTGlyph name="D" xMin="66" yMin="0" xMax="388" yMax="640">
      <contour>
        <pt x="254" y="640" on="0"/>
        <pt x="345" y="574" on="0"/>
        <pt x="388" y="433" on="0"/>
        <pt x="388" y="317" on="1"/>
        <pt x="388" y="201" on="0"/>
        <pt x="346" y="63" on="0"/>
        <pt x="255" y="0" on="0"/>
        <pt x="180" y="0" on="1"/>
        <pt x="66" y="0" on="1"/>
        <pt x="66" y="640" on="1"/>
        <pt x="179" y="640" on="1"/>
      </contour>
      <contour>
        <pt x="173" y="44" on="1"/>
        <pt x="243" y="44" on="0"/>
        <pt x="312" y="102" on="0"/>
        <pt x="334" y="215" on="0"/>
        <pt x="334" y="317" on="1"/>
        <pt x="334" y="421" on="0"/>
        <pt x="311" y="537" on="0"/>
        <pt x="242" y="596" on="0"/>
        <pt x="173" y="596" on="1"/>
        <pt x="114" y="596" on="1"/>
        <pt x="114" y="44" on="1"/>
      </contour>
    </TTGlyph>
    <TTGlyph name="D.hex" xMin="66" yMin="0" xMax="388" yMax="576">
      <contour>
        <pt x="254" y="576" on="0"/>
        <pt x="345" y="517" on="0"/>
        <pt x="388" y="389" on="0"/>
        <pt x="388" y="285" on="1"/>
        <pt x="388" y="180" on="0"/>
        <pt x="346" y="56" on="0"/>
        <pt x="255" y="0" on="0"/>
        <pt x="180" y="0" on="1"/>
        <pt x="66" y="0" on="1"/>
        <pt x="66" y="576" on="1"/>
        <pt x="179" y="576" on="1"/>
      </contour>
      <contour>
        <pt x="173" y="44" on="1"/>
        <pt x="243" y="44" on="0"/>
        <pt x="312" y="95" on="0"/>
        <pt x="334" y="195" on="0"/>
        <pt x="334" y="285" on="1"/>
        <pt x="334" y="377" on="0"/>
        <pt x="311" y="480" on="0"/>
        <pt x="242" y="532" on="0"/>
        <pt x="173" y="532" on="1"/>
        <pt x="114" y="532" on="1"/>
        <pt x="114" y="44" on="1"/>
      </contour>
    </TTGlyph>
    <TTGlyph name="D.short" xMin="66" yMin="0" xMax="388" yMax="576">
      <component glyphName="D.hex" x="0" y="0" flags="0x400"/>
    </TTGlyph>
    <TTGlyph name="D.sups" xMin="125" yMin="320" xMax="330" yMax="640">
      <contour>
        <pt x="125" y="640" on="1"/>
        <pt x="209" y="640" on="1"/>
        <pt x="273" y="640" on="0"/>
        <pt x="330" y="565" on="0"/>
        <pt x="330" y="478" on="1"/>
        <pt x="330" y="392" on="0"/>
        <pt x="272" y="320" on="0"/>
        <pt x="210" y="320" on="1"/>
        <pt x="125" y="320" on="1"/>
      </contour>
      <contour>
        <pt x="206" y="360" on="1"/>
        <pt x="251" y="360" on="0"/>
        <pt x="282" y="412" on="0"/>
        <pt x="282" y="478" on="1"/>
        <pt x="282" y="525" on="0"/>
        <pt x="270" y="576" on="0"/>
        <pt x="237" y="600" on="0"/>
        <pt x="206" y="600" on="1"/>
        <pt x="169" y="600" on="1"/>
        <pt x="169" y="360" on="1"/>
      </contour>
    </TTGlyph>
    <TTGlyph name="Dcaron" xMin="66" yMin="0" xMax="388" yMax="840">
      <component glyphName="D" x="0" y="0" flags="0x400"/>
      <component glyphName="uni030C.case" x="-12" y="0" flags="0x400"/>
    </TTGlyph>
    <TTGlyph name="Dcroat" xMin="11" yMin="0" xMax="388" yMax="640">
      <component glyphName="Eth" x="0" y="0" flags="0x400"/>
    </TTGlyph>
    <TTGlyph name="E" xMin="66" yMin="0" xMax="372" yMax="640">
      <contour>
        <pt x="66" y="640" on="1"/>
        <pt x="362" y="640" on="1"/>
        <pt x="362" y="596" on="1"/>
        <pt x="114" y="596" on="1"/>
        <pt x="114" y="310" on="1"/>
        <pt x="308" y="310" on="1"/>
        <pt x="308" y="266" on="1"/>
        <pt x="114" y="266" on="1"/>
        <pt x="114" y="44" on="1"/>
        <pt x="372" y="44" on="1"/>
        <pt x="372" y="0" on="1"/>
        <pt x="66" y="0" on="1"/>
      </contour>
    </TTGlyph>
    <TTGlyph name="E.hex" xMin="66" yMin="0" xMax="372" yMax="576">
      <contour>
        <pt x="66" y="576" on="1"/>
        <pt x="362" y="576" on="1"/>
        <pt x="362" y="532" on="1"/>
        <pt x="114" y="532" on="1"/>
        <pt x="114" y="294" on="1"/>
        <pt x="308" y="294" on="1"/>
        <pt x="308" y="250" on="1"/>
        <pt x="114" y="250" on="1"/>
        <pt x="114" y="44" on="1"/>
        <pt x="372" y="44" on="1"/>
        <pt x="372" y="0" on="1"/>
        <pt x="66" y="0" on="1"/>
      </contour>
    </TTGlyph>
    <TTGlyph name="E.short" xMin="66" yMin="0" xMax="372" yMax="576">
      <component glyphName="E.hex" x="0" y="0" flags="0x400"/>
    </TTGlyph>
    <TTGlyph name="E.sups" xMin="138" yMin="320" xMax="306" yMax="640">
      <contour>
        <pt x="138" y="640" on="1"/>
        <pt x="302" y="640" on="1"/>
        <pt x="302" y="600" on="1"/>
        <pt x="182" y="600" on="1"/>
        <pt x="182" y="503" on="1"/>
        <pt x="290" y="503" on="1"/>
        <pt x="290" y="463" on="1"/>
        <pt x="182" y="463" on="1"/>
        <pt x="182" y="360" on="1"/>
        <pt x="306" y="360" on="1"/>
        <pt x="306" y="320" on="1"/>
        <pt x="138" y="320" on="1"/>
      </contour>
    </TTGlyph>
    <TTGlyph name="Eacute" xMin="66" yMin="0" xMax="372" yMax="832">
      <component glyphName="E" x="0" y="0" flags="0x400"/>
      <component glyphName="acutecomb.case" x="-4" y="0" flags="0x400"/>
    </TTGlyph>
    <TTGlyph name="Ebreve" xMin="66" yMin="0" xMax="372" yMax="830">
      <component glyphName="E" x="0" y="0" flags="0x400"/>
      <component glyphName="uni0306.case" x="-4" y="0" flags="0x400"/>
    </TTGlyph>
    <TTGlyph name="Ecaron" xMin="66" yMin="0" xMax="372" yMax="840">
      <component glyphName="E" x="0" y="0" flags="0x400"/>
      <component glyphName="uni030C.case" x="-4" y="0" flags="0x400"/>
    </TTGlyph>
    <TTGlyph name="Ecircumflex" xMin="66" yMin="0" xMax="372" yMax="842">
      <component glyphName="E" x="0" y="0" flags="0x400"/>
      <component glyphName="uni0302.case" x="-4" y="0" flags="0x400"/>
    </TTGlyph>
    <TTGlyph name="Edieresis" xMin="66" yMin="0" xMax="372" yMax="810">
      <component glyphName="E" x="0" y="0" flags="0x400"/>
      <component glyphName="uni0308.case" x="-4" y="0" flags="0x400"/>
    </TTGlyph>
    <TTGlyph name="Edotaccent" xMin="66" yMin="0" xMax="372" yMax="813">
      <component glyphName="E" x="0" y="0" flags="0x400"/>
      <component glyphName="uni0307.case" x="-4" y="0" flags="0x400"/>
    </TTGlyph>
    <TTGlyph name="Egrave" xMin="66" yMin="0" xMax="372" yMax="832">
      <component glyphName="E" x="0" y="0" flags="0x400"/>
      <component glyphName="gravecomb.case" x="-4" y="0" flags="0x400"/>
    </TTGlyph>
    <TTGlyph name="Emacron" xMin="66" yMin="0" xMax="372" yMax="762">
      <component glyphName="E" x="0" y="0" flags="0x400"/>
      <component glyphName="uni0304.case" x="-4" y="0" flags="0x400"/>
    </TTGlyph>
    <TTGlyph name="Eng" xMin="64" yMin="-12" xMax="382" yMax="644">
      <contour>
        <pt x="66" y="562" on="1"/>
        <pt x="64" y="640" on="1"/>
        <pt x="108" y="640" on="1"/>
        <pt x="112" y="571" on="1"/>
        <pt x="145" y="603" on="0"/>
        <pt x="221" y="644" on="0"/>
        <pt x="261" y="644" on="1"/>
        <pt x="314" y="644" on="0"/>
        <pt x="382" y="579" on="0"/>
        <pt x="382" y="501" on="1"/>
        <pt x="382" y="179" on="1"/>
        <pt x="382" y="106" on="0"/>
        <pt x="334" y="18" on="0"/>
        <pt x="269" y="-12" on="1"/>
        <pt x="250" y="27" on="1"/>
        <pt x="295" y="47" on="0"/>
        <pt x="334" y="113" on="0"/>
        <pt x="334" y="171" on="1"/>
        <pt x="334" y="497" on="1"/>
        <pt x="334" y="553" on="0"/>
        <pt x="296" y="600" on="0"/>
        <pt x="252" y="600" on="1"/>
        <pt x="216" y="600" on="0"/>
        <pt x="150" y="564" on="0"/>
        <pt x="114" y="530" on="1"/>
        <pt x="114" y="0" on="1"/>
        <pt x="66" y="0" on="1"/>
      </contour>
    </TTGlyph>
    <TTGlyph name="Eng.loclNSM" xMin="66" yMin="-196" xMax="382" yMax="640">
      <contour>
        <pt x="382" y="-78" on="0"/>
        <pt x="334" y="-166" on="0"/>
        <pt x="269" y="-196" on="1"/>
        <pt x="250" y="-157" on="1"/>
        <pt x="295" y="-137" on="0"/>
        <pt x="334" y="-71" on="0"/>
        <pt x="334" y="-13" on="1"/>
        <pt x="334" y="5" on="1"/>
        <pt x="180" y="385" on="1"/>
        <pt x="114" y="560" on="1"/>
        <pt x="114" y="0" on="1"/>
        <pt x="66" y="0" on="1"/>
        <pt x="66" y="640" on="1"/>
        <pt x="130" y="640" on="1"/>
        <pt x="284" y="261" on="1"/>
        <pt x="334" y="128" on="1"/>
        <pt x="334" y="640" on="1"/>
        <pt x="382" y="640" on="1"/>
        <pt x="382" y="-5" on="1"/>
      </contour>
    </TTGlyph>
    <TTGlyph name="Eogonek" xMin="66" yMin="-197" xMax="393" yMax="640">
      <component glyphName="E" x="0" y="0" flags="0x400"/>
      <component glyphName="uni0328" x="-2" y="0" flags="0x400"/>
    </TTGlyph>
    <TTGlyph name="Epsilon" xMin="66" yMin="0" xMax="372" yMax="640">
      <component glyphName="E" x="0" y="0" flags="0x400"/>
    </TTGlyph>
    <TTGlyph name="Epsilontonos" xMin="-54" yMin="0" xMax="372" yMax="704">
      <component glyphName="E" x="0" y="0" flags="0x400"/>
      <component glyphName="tonos" x="-256" y="0" flags="0x400"/>
    </TTGlyph>
    <TTGlyph name="Eta" xMin="66" yMin="0" xMax="382" yMax="640">
      <component glyphName="H" x="0" y="0" flags="0x400"/>
    </TTGlyph>
    <TTGlyph name="Etatonos" xMin="-54" yMin="0" xMax="382" yMax="704">
      <component glyphName="H" x="0" y="0" flags="0x400"/>
      <component glyphName="tonos" x="-256" y="0" flags="0x400"/>
    </TTGlyph>
    <TTGlyph name="Eth" xMin="11" yMin="0" xMax="388" yMax="640">
      <contour>
        <pt x="66" y="310" on="1"/>
        <pt x="66" y="640" on="1"/>
        <pt x="179" y="640" on="1"/>
        <pt x="254" y="640" on="0"/>
        <pt x="345" y="574" on="0"/>
        <pt x="388" y="433" on="0"/>
        <pt x="388" y="317" on="1"/>
        <pt x="388" y="201" on="0"/>
        <pt x="346" y="63" on="0"/>
        <pt x="255" y="0" on="0"/>
        <pt x="180" y="0" on="1"/>
        <pt x="66" y="0" on="1"/>
        <pt x="66" y="266" on="1"/>
        <pt x="11" y="266" on="1"/>
        <pt x="11" y="310" on="1"/>
      </contour>
      <contour>
        <pt x="173" y="44" on="1"/>
        <pt x="243" y="44" on="0"/>
        <pt x="312" y="102" on="0"/>
        <pt x="334" y="215" on="0"/>
        <pt x="334" y="317" on="1"/>
        <pt x="334" y="421" on="0"/>
        <pt x="311" y="537" on="0"/>
        <pt x="242" y="596" on="0"/>
        <pt x="173" y="596" on="1"/>
        <pt x="114" y="596" on="1"/>
        <pt x="114" y="310" on="1"/>
        <pt x="230" y="310" on="1"/>
        <pt x="230" y="266" on="1"/>
        <pt x="114" y="266" on="1"/>
        <pt x="114" y="44" on="1"/>
      </contour>
    </TTGlyph>
    <TTGlyph name="Euro" xMin="70" yMin="-7" xMax="403" yMax="583">
      <contour>
        <pt x="347" y="37" on="0"/>
        <pt x="392" y="50" on="1"/>
        <pt x="403" y="11" on="1"/>
        <pt x="358" y="-7" on="0"/>
        <pt x="308" y="-7" on="1"/>
        <pt x="225" y="-7" on="0"/>
        <pt x="134" y="98" on="0"/>
        <pt x="123" y="201" on="1"/>
        <pt x="70" y="201" on="1"/>
        <pt x="70" y="245" on="1"/>
        <pt x="119" y="245" on="1"/>
        <pt x="118" y="259" on="0"/>
        <pt x="118" y="288" on="1"/>
        <pt x="118" y="317" on="0"/>
        <pt x="119" y="331" on="1"/>
        <pt x="70" y="331" on="1"/>
        <pt x="70" y="375" on="1"/>
        <pt x="123" y="375" on="1"/>
        <pt x="148" y="583" on="0"/>
        <pt x="308" y="583" on="1"/>
        <pt x="329" y="583" on="0"/>
        <pt x="381" y="574" on="0"/>
        <pt x="403" y="565" on="1"/>
        <pt x="391" y="527" on="1"/>
        <pt x="349" y="539" on="0"/>
        <pt x="312" y="539" on="1"/>
        <pt x="251" y="539" on="0"/>
        <pt x="181" y="462" on="0"/>
        <pt x="171" y="375" on="1"/>
        <pt x="358" y="375" on="1"/>
        <pt x="348" y="331" on="1"/>
        <pt x="167" y="331" on="1"/>
        <pt x="166" y="317" on="0"/>
        <pt x="166" y="288" on="1"/>
        <pt x="166" y="259" on="0"/>
        <pt x="167" y="245" on="1"/>
        <pt x="330" y="245" on="1"/>
        <pt x="321" y="201" on="1"/>
        <pt x="171" y="201" on="1"/>
        <pt x="181" y="112" on="0"/>
        <pt x="250" y="37" on="0"/>
        <pt x="312" y="37" on="1"/>
      </contour>
    </TTGlyph>
    <TTGlyph name="F" xMin="67" yMin="0" xMax="372" yMax="640">
      <contour>
        <pt x="67" y="640" on="1"/>
        <pt x="372" y="640" on="1"/>
        <pt x="372" y="596" on="1"/>
        <pt x="115" y="596" on="1"/>
        <pt x="115" y="310" on="1"/>
        <pt x="308" y="310" on="1"/>
        <pt x="308" y="266" on="1"/>
        <pt x="115" y="266" on="1"/>
        <pt x="115" y="0" on="1"/>
        <pt x="67" y="0" on="1"/>
      </contour>
    </TTGlyph>
    <TTGlyph name="F.hex" xMin="67" yMin="0" xMax="372" yMax="576">
      <contour>
        <pt x="67" y="576" on="1"/>
        <pt x="372" y="576" on="1"/>
        <pt x="372" y="532" on="1"/>
        <pt x="115" y="532" on="1"/>
        <pt x="115" y="294" on="1"/>
        <pt x="308" y="294" on="1"/>
        <pt x="308" y="250" on="1"/>
        <pt x="115" y="250" on="1"/>
        <pt x="115" y="0" on="1"/>
        <pt x="67" y="0" on="1"/>
      </contour>
    </TTGlyph>
    <TTGlyph name="F.short" xMin="67" yMin="0" xMax="372" yMax="576">
      <component glyphName="F.hex" x="0" y="0" flags="0x400"/>
    </TTGlyph>
    <TTGlyph name="F.sups" xMin="138" yMin="320" xMax="310" yMax="640">
      <contour>
        <pt x="138" y="640" on="1"/>
        <pt x="310" y="640" on="1"/>
        <pt x="310" y="600" on="1"/>
        <pt x="182" y="600" on="1"/>
        <pt x="182" y="495" on="1"/>
        <pt x="290" y="495" on="1"/>
        <pt x="290" y="455" on="1"/>
        <pt x="182" y="455" on="1"/>
        <pt x="182" y="320" on="1"/>
        <pt x="138" y="320" on="1"/>
      </contour>
    </TTGlyph>
    <TTGlyph name="G" xMin="60" yMin="-9" xMax="382" yMax="647">
      <contour>
        <pt x="190" y="-9" on="0"/>
        <pt x="101" y="55" on="0"/>
        <pt x="60" y="197" on="0"/>
        <pt x="60" y="319" on="1"/>
        <pt x="60" y="441" on="0"/>
        <pt x="101" y="583" on="0"/>
        <pt x="190" y="647" on="0"/>
        <pt x="266" y="647" on="1"/>
        <pt x="324" y="647" on="0"/>
        <pt x="374" y="634" on="1"/>
        <pt x="368" y="594" on="1"/>
        <pt x="316" y="603" on="0"/>
        <pt x="269" y="603" on="1"/>
        <pt x="206" y="603" on="0"/>
        <pt x="139" y="546" on="0"/>
        <pt x="114" y="426" on="0"/>
        <pt x="114" y="319" on="1"/>
        <pt x="114" y="213" on="0"/>
        <pt x="140" y="92" on="0"/>
        <pt x="208" y="35" on="0"/>
        <pt x="271" y="35" on="1"/>
        <pt x="303" y="35" on="0"/>
        <pt x="334" y="39" on="1"/>
        <pt x="334" y="266" on="1"/>
        <pt x="235" y="266" on="1"/>
        <pt x="235" y="310" on="1"/>
        <pt x="382" y="310" on="1"/>
        <pt x="382" y="7" on="1"/>
        <pt x="355" y="0" on="0"/>
        <pt x="290" y="-9" on="0"/>
        <pt x="266" y="-9" on="1"/>
      </contour>
    </TTGlyph>
    <TTGlyph name="G.short" xMin="60" yMin="-9" xMax="382" yMax="583">
      <contour>
        <pt x="190" y="-9" on="0"/>
        <pt x="101" y="49" on="0"/>
        <pt x="60" y="177" on="0"/>
        <pt x="60" y="287" on="1"/>
        <pt x="60" y="397" on="0"/>
        <pt x="101" y="525" on="0"/>
        <pt x="190" y="583" on="0"/>
        <pt x="266" y="583" on="1"/>
        <pt x="324" y="583" on="0"/>
        <pt x="374" y="570" on="1"/>
        <pt x="368" y="530" on="1"/>
        <pt x="316" y="539" on="0"/>
        <pt x="269" y="539" on="1"/>
        <pt x="206" y="539" on="0"/>
        <pt x="139" y="488" on="0"/>
        <pt x="114" y="382" on="0"/>
        <pt x="114" y="287" on="1"/>
        <pt x="114" y="193" on="0"/>
        <pt x="140" y="86" on="0"/>
        <pt x="208" y="35" on="0"/>
        <pt x="271" y="35" on="1"/>
        <pt x="303" y="35" on="0"/>
        <pt x="334" y="39" on="1"/>
        <pt x="334" y="234" on="1"/>
        <pt x="235" y="234" on="1"/>
        <pt x="235" y="278" on="1"/>
        <pt x="382" y="278" on="1"/>
        <pt x="382" y="7" on="1"/>
        <pt x="355" y="0" on="0"/>
        <pt x="290" y="-9" on="0"/>
        <pt x="266" y="-9" on="1"/>
      </contour>
    </TTGlyph>
    <TTGlyph name="G.sups" xMin="113" yMin="315" xMax="311" yMax="647">
      <contour>
        <pt x="167" y="315" on="0"/>
        <pt x="113" y="389" on="0"/>
        <pt x="113" y="481" on="1"/>
        <pt x="113" y="570" on="0"/>
        <pt x="170" y="647" on="0"/>
        <pt x="236" y="647" on="1"/>
        <pt x="273" y="647" on="0"/>
        <pt x="311" y="640" on="1"/>
        <pt x="304" y="601" on="1"/>
        <pt x="262" y="607" on="0"/>
        <pt x="239" y="607" on="1"/>
        <pt x="203" y="607" on="0"/>
        <pt x="169" y="580" on="0"/>
        <pt x="159" y="529" on="0"/>
        <pt x="159" y="481" on="1"/>
        <pt x="159" y="432" on="0"/>
        <pt x="170" y="379" on="0"/>
        <pt x="200" y="355" on="0"/>
        <pt x="228" y="355" on="1"/>
        <pt x="246" y="355" on="0"/>
        <pt x="267" y="358" on="1"/>
        <pt x="267" y="512" on="1"/>
        <pt x="311" y="512" on="1"/>
        <pt x="311" y="323" on="1"/>
        <pt x="268" y="315" on="0"/>
        <pt x="226" y="315" on="1"/>
      </contour>
    </TTGlyph>
    <TTGlyph name="Gamma" xMin="66" yMin="0" xMax="378" yMax="640">
      <component glyphName="uni0413" x="0" y="0" flags="0x400"/>
    </TTGlyph>
    <TTGlyph name="Gbreve" xMin="60" yMin="-9" xMax="382" yMax="830">
      <component glyphName="G" x="0" y="0" flags="0x400"/>
      <component glyphName="uni0306.case" x="20" y="0" flags="0x400"/>
    </TTGlyph>
    <TTGlyph name="Gcaron" xMin="60" yMin="-9" xMax="382" yMax="840">
      <component glyphName="G" x="0" y="0" flags="0x400"/>
      <component glyphName="uni030C.case" x="20" y="0" flags="0x400"/>
    </TTGlyph>
    <TTGlyph name="Gcircumflex" xMin="60" yMin="-9" xMax="382" yMax="842">
      <component glyphName="G" x="0" y="0" flags="0x400"/>
      <component glyphName="uni0302.case" x="20" y="0" flags="0x400"/>
    </TTGlyph>
    <TTGlyph name="Gdotaccent" xMin="60" yMin="-9" xMax="382" yMax="813">
      <component glyphName="G" x="0" y="0" flags="0x400"/>
      <component glyphName="uni0307.case" x="20" y="0" flags="0x400"/>
    </TTGlyph>
    <TTGlyph name="H" xMin="66" yMin="0" xMax="382" yMax="640">
      <contour>
        <pt x="66" y="640" on="1"/>
        <pt x="114" y="640" on="1"/>
        <pt x="114" y="310" on="1"/>
        <pt x="334" y="310" on="1"/>
        <pt x="334" y="640" on="1"/>
        <pt x="382" y="640" on="1"/>
        <pt x="382" y="0" on="1"/>
        <pt x="334" y="0" on="1"/>
        <pt x="334" y="266" on="1"/>
        <pt x="114" y="266" on="1"/>
        <pt x="114" y="0" on="1"/>
        <pt x="66" y="0" on="1"/>
      </contour>
    </TTGlyph>
    <TTGlyph name="H.sups" xMin="128" yMin="320" xMax="320" yMax="640">
      <contour>
        <pt x="128" y="640" on="1"/>
        <pt x="172" y="640" on="1"/>
        <pt x="172" y="500" on="1"/>
        <pt x="276" y="500" on="1"/>
        <pt x="276" y="640" on="1"/>
        <pt x="320" y="640" on="1"/>
        <pt x="320" y="320" on="1"/>
        <pt x="276" y="320" on="1"/>
        <pt x="276" y="460" on="1"/>
        <pt x="172" y="460" on="1"/>
        <pt x="172" y="320" on="1"/>
        <pt x="128" y="320" on="1"/>
      </contour>
    </TTGlyph>
    <TTGlyph name="Hbar" xMin="10" yMin="0" xMax="438" yMax="640">
      <contour>
        <pt x="66" y="496" on="1"/>
        <pt x="66" y="640" on="1"/>
        <pt x="114" y="640" on="1"/>
        <pt x="114" y="496" on="1"/>
        <pt x="334" y="496" on="1"/>
        <pt x="334" y="640" on="1"/>
        <pt x="382" y="640" on="1"/>
        <pt x="382" y="496" on="1"/>
        <pt x="438" y="496" on="1"/>
        <pt x="438" y="452" on="1"/>
        <pt x="382" y="452" on="1"/>
        <pt x="382" y="0" on="1"/>
        <pt x="334" y="0" on="1"/>
        <pt x="334" y="266" on="1"/>
        <pt x="114" y="266" on="1"/>
        <pt x="114" y="0" on="1"/>
        <pt x="66" y="0" on="1"/>
        <pt x="66" y="452" on="1"/>
        <pt x="10" y="452" on="1"/>
        <pt x="10" y="496" on="1"/>
      </contour>
      <contour>
        <pt x="334" y="310" on="1"/>
        <pt x="334" y="452" on="1"/>
        <pt x="114" y="452" on="1"/>
        <pt x="114" y="310" on="1"/>
      </contour>
    </TTGlyph>
    <TTGlyph name="Hcircumflex" xMin="66" yMin="0" xMax="382" yMax="842">
      <component glyphName="H" x="0" y="0" flags="0x400"/>
      <component glyphName="uni0302.case" x="0" y="0" flags="0x400"/>
    </TTGlyph>
    <TTGlyph name="I" xMin="84" yMin="0" xMax="364" yMax="640">
      <contour>
        <pt x="84" y="38" on="1"/>
        <pt x="200" y="42" on="1"/>
        <pt x="200" y="598" on="1"/>
        <pt x="88" y="602" on="1"/>
        <pt x="88" y="640" on="1"/>
        <pt x="360" y="640" on="1"/>
        <pt x="360" y="602" on="1"/>
        <pt x="248" y="598" on="1"/>
        <pt x="248" y="42" on="1"/>
        <pt x="364" y="38" on="1"/>
        <pt x="364" y="0" on="1"/>
        <pt x="84" y="0" on="1"/>
      </contour>
    </TTGlyph>
    <TTGlyph name="I.cv02" xMin="200" yMin="0" xMax="248" yMax="640">
      <contour>
        <pt x="200" y="640" on="1"/>
        <pt x="248" y="640" on="1"/>
        <pt x="248" y="0" on="1"/>
        <pt x="200" y="0" on="1"/>
      </contour>
    </TTGlyph>
    <TTGlyph name="I.short" xMin="84" yMin="0" xMax="364" yMax="576">
      <contour>
        <pt x="84" y="38" on="1"/>
        <pt x="200" y="42" on="1"/>
        <pt x="200" y="534" on="1"/>
        <pt x="88" y="538" on="1"/>
        <pt x="88" y="576" on="1"/>
        <pt x="360" y="576" on="1"/>
        <pt x="360" y="538" on="1"/>
        <pt x="248" y="534" on="1"/>
        <pt x="248" y="42" on="1"/>
        <pt x="364" y="38" on="1"/>
        <pt x="364" y="0" on="1"/>
        <pt x="84" y="0" on="1"/>
      </contour>
    </TTGlyph>
    <TTGlyph name="I.short.cv02" xMin="200" yMin="0" xMax="248" yMax="576">
      <contour>
        <pt x="200" y="576" on="1"/>
        <pt x="248" y="576" on="1"/>
        <pt x="248" y="0" on="1"/>
        <pt x="200" y="0" on="1"/>
      </contour>
    </TTGlyph>
    <TTGlyph name="I.sups" xMin="138" yMin="320" xMax="310" yMax="640">
      <contour>
        <pt x="310" y="320" on="1"/>
        <pt x="138" y="320" on="1"/>
        <pt x="138" y="356" on="1"/>
        <pt x="202" y="360" on="1"/>
        <pt x="202" y="600" on="1"/>
        <pt x="138" y="604" on="1"/>
        <pt x="138" y="640" on="1"/>
        <pt x="310" y="640" on="1"/>
        <pt x="310" y="604" on="1"/>
        <pt x="246" y="600" on="1"/>
        <pt x="246" y="360" on="1"/>
        <pt x="310" y="356" on="1"/>
      </contour>
    </TTGlyph>
    <TTGlyph name="IJ" xMin="2" yMin="0" xMax="376" yMax="640">
      <contour>
        <pt x="2" y="36" on="1"/>
        <pt x="72" y="44" on="1"/>
        <pt x="72" y="596" on="1"/>
        <pt x="8" y="604" on="1"/>
        <pt x="8" y="640" on="1"/>
        <pt x="190" y="640" on="1"/>
        <pt x="190" y="604" on="1"/>
        <pt x="120" y="596" on="1"/>
        <pt x="120" y="44" on="1"/>
        <pt x="218" y="44" on="1"/>
        <pt x="328" y="44" on="0"/>
        <pt x="328" y="177" on="1"/>
        <pt x="328" y="596" on="1"/>
        <pt x="244" y="596" on="1"/>
        <pt x="244" y="640" on="1"/>
        <pt x="376" y="640" on="1"/>
        <pt x="376" y="181" on="1"/>
        <pt x="376" y="88" on="0"/>
        <pt x="291" y="0" on="0"/>
        <pt x="218" y="0" on="1"/>
        <pt x="2" y="0" on="1"/>
      </contour>
    </TTGlyph>
    <TTGlyph name="Iacute" xMin="84" yMin="0" xMax="364" yMax="832">
      <component glyphName="I" x="0" y="0" flags="0x400"/>
      <component glyphName="acutecomb.case" x="0" y="0" flags="0x400"/>
    </TTGlyph>
    <TTGlyph name="Iacute.cv02" xMin="200" yMin="0" xMax="316" yMax="832">
      <component glyphName="I.cv02" x="0" y="0" flags="0x400"/>
      <component glyphName="acutecomb.case" x="0" y="0" flags="0x400"/>
    </TTGlyph>
    <TTGlyph name="Ibreve" xMin="84" yMin="0" xMax="364" yMax="830">
      <component glyphName="I" x="0" y="0" flags="0x400"/>
      <component glyphName="uni0306.case" x="0" y="0" flags="0x400"/>
    </TTGlyph>
    <TTGlyph name="Ibreve.cv02" xMin="103" yMin="0" xMax="345" yMax="830">
      <component glyphName="I.cv02" x="0" y="0" flags="0x400"/>
      <component glyphName="uni0306.case" x="0" y="0" flags="0x400"/>
    </TTGlyph>
    <TTGlyph name="Icapitalsmall.cv02" xMin="124" yMin="0" xMax="324" yMax="640">
      <contour>
        <pt x="124" y="38" on="1"/>
        <pt x="200" y="42" on="1"/>
        <pt x="200" y="598" on="1"/>
        <pt x="128" y="602" on="1"/>
        <pt x="128" y="640" on="1"/>
        <pt x="319" y="640" on="1"/>
        <pt x="319" y="602" on="1"/>
        <pt x="248" y="598" on="1"/>
        <pt x="248" y="42" on="1"/>
        <pt x="324" y="38" on="1"/>
        <pt x="324" y="0" on="1"/>
        <pt x="124" y="0" on="1"/>
      </contour>
    </TTGlyph>
    <TTGlyph name="Icircumflex" xMin="84" yMin="0" xMax="364" yMax="842">
      <component glyphName="I" x="0" y="0" flags="0x400"/>
      <component glyphName="uni0302.case" x="0" y="0" flags="0x400"/>
    </TTGlyph>
    <TTGlyph name="Icircumflex.cv02" xMin="98" yMin="0" xMax="350" yMax="842">
      <component glyphName="I.cv02" x="0" y="0" flags="0x400"/>
      <component glyphName="uni0302.case" x="0" y="0" flags="0x400"/>
    </TTGlyph>
    <TTGlyph name="Idieresis" xMin="84" yMin="0" xMax="364" yMax="810">
      <component glyphName="I" x="0" y="0" flags="0x400"/>
      <component glyphName="uni0308.case" x="0" y="0" flags="0x400"/>
    </TTGlyph>
    <TTGlyph name="Idieresis.cv02" xMin="84" yMin="0" xMax="364" yMax="810">
      <component glyphName="I.cv02" x="0" y="0" flags="0x400"/>
      <component glyphName="uni0308.case" x="0" y="0" flags="0x400"/>
    </TTGlyph>
    <TTGlyph name="Idotaccent" xMin="84" yMin="0" xMax="364" yMax="813">
      <component glyphName="I" x="0" y="0" flags="0x400"/>
      <component glyphName="uni0307.case" x="0" y="0" flags="0x400"/>
    </TTGlyph>
    <TTGlyph name="Idotaccent.cv02" xMin="171" yMin="0" xMax="277" yMax="813">
      <component glyphName="I.cv02" x="0" y="0" flags="0x400"/>
      <component glyphName="uni0307.case" x="0" y="0" flags="0x400"/>
    </TTGlyph>
    <TTGlyph name="Igrave" xMin="84" yMin="0" xMax="364" yMax="832">
      <component glyphName="I" x="0" y="0" flags="0x400"/>
      <component glyphName="gravecomb.case" x="0" y="0" flags="0x400"/>
    </TTGlyph>
    <TTGlyph name="Igrave.cv02" xMin="133" yMin="0" xMax="248" yMax="832">
      <component glyphName="I.cv02" x="0" y="0" flags="0x400"/>
      <component glyphName="gravecomb.case" x="0" y="0" flags="0x400"/>
    </TTGlyph>
    <TTGlyph name="Imacron" xMin="84" yMin="0" xMax="364" yMax="762">
      <component glyphName="I" x="0" y="0" flags="0x400"/>
      <component glyphName="uni0304.case" x="0" y="0" flags="0x400"/>
    </TTGlyph>
    <TTGlyph name="Imacron.cv02" xMin="110" yMin="0" xMax="338" yMax="762">
      <component glyphName="I.cv02" x="0" y="0" flags="0x400"/>
      <component glyphName="uni0304.case" x="0" y="0" flags="0x400"/>
    </TTGlyph>
    <TTGlyph name="Iogonek" xMin="84" yMin="-197" xMax="385" yMax="640">
      <component glyphName="I" x="0" y="0" flags="0x400"/>
      <component glyphName="uni0328" x="-10" y="0" flags="0x400"/>
    </TTGlyph>
    <TTGlyph name="Iogonek.cv02" xMin="137" yMin="-197" xMax="269" yMax="640">
      <component glyphName="I.cv02" x="0" y="0" flags="0x400"/>
      <component glyphName="uni0328" x="-126" y="0" flags="0x400"/>
    </TTGlyph>
    <TTGlyph name="Iota" xMin="84" yMin="0" xMax="364" yMax="640">
      <component glyphName="I" x="0" y="0" flags="0x400"/>
    </TTGlyph>
    <TTGlyph name="Iota.cv02" xMin="200" yMin="0" xMax="248" yMax="640">
      <component glyphName="I.cv02" x="0" y="0" flags="0x400"/>
    </TTGlyph>
    <TTGlyph name="Iotadieresis" xMin="84" yMin="0" xMax="364" yMax="810">
      <component glyphName="I" x="0" y="0" flags="0x400"/>
      <component glyphName="uni0308.case" x="0" y="0" flags="0x400"/>
    </TTGlyph>
    <TTGlyph name="Iotadieresis.cv02" xMin="84" yMin="0" xMax="364" yMax="810">
      <component glyphName="Iota.cv02" x="0" y="0" flags="0x400"/>
      <component glyphName="uni0308.case" x="0" y="0" flags="0x400"/>
    </TTGlyph>
    <TTGlyph name="Iotatonos" xMin="-54" yMin="0" xMax="364" yMax="704">
      <component glyphName="I" x="0" y="0" flags="0x400"/>
      <component glyphName="tonos" x="-256" y="0" flags="0x400"/>
    </TTGlyph>
    <TTGlyph name="Iotatonos.cv02" xMin="80" yMin="0" xMax="248" yMax="704">
      <component glyphName="tonos" x="-122" y="0" flags="0x400"/>
      <component glyphName="Iota.cv02" x="0" y="0" flags="0x400"/>
    </TTGlyph>
    <TTGlyph name="Itilde" xMin="77" yMin="0" xMax="370" yMax="837">
      <component glyphName="I" x="0" y="0" flags="0x400"/>
      <component glyphName="tildecomb.case" x="0" y="0" flags="0x400"/>
    </TTGlyph>
    <TTGlyph name="Itilde.cv02" xMin="77" yMin="0" xMax="370" yMax="837">
      <component glyphName="I.cv02" x="0" y="0" flags="0x400"/>
      <component glyphName="tildecomb.case" x="0" y="0" flags="0x400"/>
    </TTGlyph>
    <TTGlyph name="J" xMin="68" yMin="-8" xMax="382" yMax="640">
      <contour>
        <pt x="124" y="80" on="0"/>
        <pt x="175" y="36" on="0"/>
        <pt x="224" y="36" on="1"/>
        <pt x="334" y="36" on="0"/>
        <pt x="334" y="169" on="1"/>
        <pt x="334" y="596" on="1"/>
        <pt x="180" y="596" on="1"/>
        <pt x="180" y="640" on="1"/>
        <pt x="382" y="640" on="1"/>
        <pt x="382" y="173" on="1"/>
        <pt x="382" y="80" on="0"/>
        <pt x="297" y="-8" on="0"/>
        <pt x="224" y="-8" on="1"/>
        <pt x="99" y="-8" on="0"/>
        <pt x="68" y="110" on="1"/>
        <pt x="111" y="123" on="1"/>
      </contour>
    </TTGlyph>
    <TTGlyph name="J.cv03" xMin="68" yMin="-8" xMax="382" yMax="640">
      <contour>
        <pt x="99" y="-8" on="0"/>
        <pt x="68" y="110" on="1"/>
        <pt x="111" y="123" on="1"/>
        <pt x="124" y="80" on="0"/>
        <pt x="175" y="36" on="0"/>
        <pt x="224" y="36" on="1"/>
        <pt x="334" y="36" on="0"/>
        <pt x="334" y="169" on="1"/>
        <pt x="334" y="640" on="1"/>
        <pt x="382" y="640" on="1"/>
        <pt x="382" y="173" on="1"/>
        <pt x="382" y="80" on="0"/>
        <pt x="297" y="-8" on="0"/>
        <pt x="224" y="-8" on="1"/>
      </contour>
    </TTGlyph>
    <TTGlyph name="J.sups" xMin="134" yMin="320" xMax="310" yMax="640">
      <contour>
        <pt x="167" y="320" on="0"/>
        <pt x="134" y="325" on="1"/>
        <pt x="139" y="363" on="1"/>
        <pt x="168" y="360" on="0"/>
        <pt x="191" y="360" on="1"/>
        <pt x="229" y="360" on="0"/>
        <pt x="266" y="391" on="0"/>
        <pt x="266" y="427" on="1"/>
        <pt x="266" y="600" on="1"/>
        <pt x="148" y="600" on="1"/>
        <pt x="148" y="640" on="1"/>
        <pt x="310" y="640" on="1"/>
        <pt x="310" y="424" on="1"/>
        <pt x="310" y="368" on="0"/>
        <pt x="252" y="320" on="0"/>
        <pt x="197" y="320" on="1"/>
      </contour>
    </TTGlyph>
    <TTGlyph name="Jcircumflex" xMin="68" yMin="-8" xMax="396" yMax="842">
      <component glyphName="J" x="0" y="0" flags="0x400"/>
      <component glyphName="uni0302.case" x="46" y="0" flags="0x400"/>
    </TTGlyph>
    <TTGlyph name="Jcircumflex.cv03" xMin="68" yMin="-8" xMax="484" yMax="842">
      <component glyphName="J.cv03" x="0" y="0" flags="0x400"/>
      <component glyphName="uni0302.case" x="134" y="0" flags="0x400"/>
    </TTGlyph>
    <TTGlyph name="K" xMin="66" yMin="0" xMax="396" yMax="640">
      <contour>
        <pt x="66" y="640" on="1"/>
        <pt x="114" y="640" on="1"/>
        <pt x="114" y="315" on="1"/>
        <pt x="180" y="315" on="1"/>
        <pt x="242" y="386" on="0"/>
        <pt x="328" y="545" on="0"/>
        <pt x="343" y="640" on="1"/>
        <pt x="392" y="640" on="1"/>
        <pt x="366" y="470" on="0"/>
        <pt x="226" y="314" on="1"/>
        <pt x="374" y="303" on="0"/>
        <pt x="385" y="149" on="1"/>
        <pt x="396" y="0" on="1"/>
        <pt x="343" y="0" on="1"/>
        <pt x="333" y="149" on="1"/>
        <pt x="329" y="212" on="0"/>
        <pt x="268" y="271" on="0"/>
        <pt x="200" y="271" on="1"/>
        <pt x="114" y="271" on="1"/>
        <pt x="114" y="0" on="1"/>
        <pt x="66" y="0" on="1"/>
      </contour>
    </TTGlyph>
    <TTGlyph name="K.short" xMin="66" yMin="0" xMax="396" yMax="576">
      <contour>
        <pt x="66" y="576" on="1"/>
        <pt x="114" y="576" on="1"/>
        <pt x="114" y="294" on="1"/>
        <pt x="181" y="294" on="1"/>
        <pt x="315" y="426" on="0"/>
        <pt x="343" y="576" on="1"/>
        <pt x="392" y="576" on="1"/>
        <pt x="364" y="418" on="0"/>
        <pt x="228" y="293" on="1"/>
        <pt x="375" y="282" on="0"/>
        <pt x="385" y="149" on="1"/>
        <pt x="396" y="0" on="1"/>
        <pt x="343" y="0" on="1"/>
        <pt x="333" y="149" on="1"/>
        <pt x="330" y="201" on="0"/>
        <pt x="268" y="250" on="0"/>
        <pt x="200" y="250" on="1"/>
        <pt x="114" y="250" on="1"/>
        <pt x="114" y="0" on="1"/>
        <pt x="66" y="0" on="1"/>
      </contour>
    </TTGlyph>
    <TTGlyph name="K.sups" xMin="132" yMin="320" xMax="327" yMax="640">
      <contour>
        <pt x="132" y="640" on="1"/>
        <pt x="176" y="640" on="1"/>
        <pt x="176" y="495" on="1"/>
        <pt x="223" y="495" on="1"/>
        <pt x="246" y="528" on="0"/>
        <pt x="274" y="594" on="0"/>
        <pt x="282" y="640" on="1"/>
        <pt x="327" y="640" on="1"/>
        <pt x="319" y="592" on="0"/>
        <pt x="289" y="525" on="0"/>
        <pt x="263" y="492" on="1"/>
        <pt x="289" y="486" on="0"/>
        <pt x="316" y="445" on="0"/>
        <pt x="319" y="409" on="1"/>
        <pt x="327" y="320" on="1"/>
        <pt x="281" y="320" on="1"/>
        <pt x="275" y="412" on="1"/>
        <pt x="273" y="435" on="0"/>
        <pt x="250" y="455" on="0"/>
        <pt x="225" y="455" on="1"/>
        <pt x="176" y="455" on="1"/>
        <pt x="176" y="320" on="1"/>
        <pt x="132" y="320" on="1"/>
      </contour>
    </TTGlyph>
    <TTGlyph name="Kappa" xMin="66" yMin="0" xMax="396" yMax="640">
      <component glyphName="K" x="0" y="0" flags="0x400"/>
    </TTGlyph>
    <TTGlyph name="L" xMin="66" yMin="0" xMax="378" yMax="640">
      <contour>
        <pt x="66" y="640" on="1"/>
        <pt x="114" y="640" on="1"/>
        <pt x="114" y="44" on="1"/>
        <pt x="378" y="44" on="1"/>
        <pt x="378" y="0" on="1"/>
        <pt x="66" y="0" on="1"/>
      </contour>
    </TTGlyph>
    <TTGlyph name="L.sups" xMin="138" yMin="320" xMax="310" yMax="640">
      <contour>
        <pt x="310" y="320" on="1"/>
        <pt x="138" y="320" on="1"/>
        <pt x="138" y="640" on="1"/>
        <pt x="182" y="640" on="1"/>
        <pt x="182" y="360" on="1"/>
        <pt x="310" y="360" on="1"/>
      </contour>
    </TTGlyph>
    <TTGlyph name="Lacute" xMin="66" yMin="0" xMax="378" yMax="832">
      <component glyphName="L" x="0" y="0" flags="0x400"/>
      <component glyphName="acutecomb.case" x="-134" y="0" flags="0x400"/>
    </TTGlyph>
    <TTGlyph name="Lambda" xMin="41" yMin="0" xMax="407" yMax="643">
      <contour>
        <pt x="58" y="186" on="0"/>
        <pt x="141" y="520" on="0"/>
        <pt x="204" y="643" on="1"/>
        <pt x="244" y="643" on="1"/>
        <pt x="307" y="520" on="0"/>
        <pt x="390" y="186" on="0"/>
        <pt x="407" y="0" on="1"/>
        <pt x="356" y="0" on="1"/>
        <pt x="340" y="175" on="0"/>
        <pt x="271" y="470" on="0"/>
        <pt x="224" y="578" on="1"/>
        <pt x="177" y="470" on="0"/>
        <pt x="108" y="175" on="0"/>
        <pt x="92" y="0" on="1"/>
        <pt x="41" y="0" on="1"/>
      </contour>
    </TTGlyph>
    <TTGlyph name="Lcaron" xMin="66" yMin="0" xMax="378" yMax="640">
      <component glyphName="L" x="0" y="0" flags="0x400"/>
      <component glyphName="uni030C.alt" x="-64" y="0" flags="0x400"/>
    </TTGlyph>
    <TTGlyph name="Ldot" xMin="66" yMin="0" xMax="378" yMax="640">
      <component glyphName="L" x="0" y="0" flags="0x400"/>
      <component glyphName="period" x="128" y="256" flags="0x404"/>
    </TTGlyph>
    <TTGlyph name="Lslash" xMin="-25" yMin="0" xMax="378" yMax="640">
      <component glyphName="L" x="0" y="0" flags="0x400"/>
      <component glyphName="_part.slash.comp" x="-112" y="0" flags="0x400"/>
    </TTGlyph>
    <TTGlyph name="M" xMin="30" yMin="0" xMax="418" yMax="640">
      <contour>
        <pt x="35" y="356" on="0"/>
        <pt x="55" y="640" on="1"/>
        <pt x="95" y="640" on="1"/>
        <pt x="223" y="231" on="1"/>
        <pt x="225" y="231" on="1"/>
        <pt x="352" y="640" on="1"/>
        <pt x="393" y="640" on="1"/>
        <pt x="413" y="356" on="0"/>
        <pt x="418" y="0" on="1"/>
        <pt x="370" y="0" on="1"/>
        <pt x="366" y="339" on="0"/>
        <pt x="357" y="508" on="1"/>
        <pt x="355" y="508" on="1"/>
        <pt x="246" y="163" on="1"/>
        <pt x="202" y="163" on="1"/>
        <pt x="92" y="508" on="1"/>
        <pt x="90" y="508" on="1"/>
        <pt x="80" y="291" on="0"/>
        <pt x="78" y="0" on="1"/>
        <pt x="30" y="0" on="1"/>
      </contour>
    </TTGlyph>
    <TTGlyph name="M.sups" xMin="114" yMin="320" xMax="334" yMax="640">
      <contour>
        <pt x="118" y="516" on="0"/>
        <pt x="127" y="640" on="1"/>
        <pt x="184" y="640" on="1"/>
        <pt x="224" y="467" on="1"/>
        <pt x="264" y="640" on="1"/>
        <pt x="321" y="640" on="1"/>
        <pt x="330" y="516" on="0"/>
        <pt x="334" y="320" on="1"/>
        <pt x="289" y="320" on="1"/>
        <pt x="289" y="397" on="0"/>
        <pt x="285" y="515" on="1"/>
        <pt x="284" y="547" on="1"/>
        <pt x="247" y="399" on="1"/>
        <pt x="201" y="399" on="1"/>
        <pt x="164" y="548" on="1"/>
        <pt x="159" y="428" on="0"/>
        <pt x="159" y="320" on="1"/>
        <pt x="114" y="320" on="1"/>
      </contour>
    </TTGlyph>
    <TTGlyph name="Mu" xMin="30" yMin="0" xMax="418" yMax="640">
      <component glyphName="M" x="0" y="0" flags="0x400"/>
    </TTGlyph>
    <TTGlyph name="N" xMin="66" yMin="0" xMax="382" yMax="640">
      <contour>
        <pt x="130" y="640" on="1"/>
        <pt x="274" y="257" on="1"/>
        <pt x="334" y="86" on="1"/>
        <pt x="334" y="640" on="1"/>
        <pt x="382" y="640" on="1"/>
        <pt x="382" y="0" on="1"/>
        <pt x="318" y="0" on="1"/>
        <pt x="174" y="384" on="1"/>
        <pt x="114" y="555" on="1"/>
        <pt x="114" y="0" on="1"/>
        <pt x="66" y="0" on="1"/>
        <pt x="66" y="640" on="1"/>
      </contour>
    </TTGlyph>
    <TTGlyph name="N.short" xMin="66" yMin="0" xMax="382" yMax="576">
      <contour>
        <pt x="130" y="576" on="1"/>
        <pt x="274" y="231" on="1"/>
        <pt x="334" y="77" on="1"/>
        <pt x="334" y="576" on="1"/>
        <pt x="382" y="576" on="1"/>
        <pt x="382" y="0" on="1"/>
        <pt x="318" y="0" on="1"/>
        <pt x="174" y="346" on="1"/>
        <pt x="114" y="499" on="1"/>
        <pt x="114" y="0" on="1"/>
        <pt x="66" y="0" on="1"/>
        <pt x="66" y="576" on="1"/>
      </contour>
    </TTGlyph>
    <TTGlyph name="N.sups" xMin="120" yMin="320" xMax="328" yMax="640">
      <contour>
        <pt x="120" y="640" on="1"/>
        <pt x="186" y="640" on="1"/>
        <pt x="286" y="378" on="1"/>
        <pt x="286" y="640" on="1"/>
        <pt x="328" y="640" on="1"/>
        <pt x="328" y="320" on="1"/>
        <pt x="262" y="320" on="1"/>
        <pt x="162" y="582" on="1"/>
        <pt x="162" y="320" on="1"/>
        <pt x="120" y="320" on="1"/>
      </contour>
    </TTGlyph>
    <TTGlyph name="Nacute" xMin="66" yMin="0" xMax="382" yMax="832">
      <component glyphName="N" x="0" y="0" flags="0x400"/>
      <component glyphName="acutecomb.case" x="0" y="0" flags="0x400"/>
    </TTGlyph>
    <TTGlyph name="Ncaron" xMin="66" yMin="0" xMax="382" yMax="840">
      <component glyphName="N" x="0" y="0" flags="0x400"/>
      <component glyphName="uni030C.case" x="0" y="0" flags="0x400"/>
    </TTGlyph>
    <TTGlyph name="Ntilde" xMin="66" yMin="0" xMax="382" yMax="837">
      <component glyphName="N" x="0" y="0" flags="0x400"/>
      <component glyphName="tildecomb.case" x="0" y="0" flags="0x400"/>
    </TTGlyph>
    <TTGlyph name="Nu" xMin="66" yMin="0" xMax="382" yMax="640">
      <component glyphName="N" x="0" y="0" flags="0x400"/>
    </TTGlyph>
    <TTGlyph name="O" xMin="43" yMin="-10" xMax="405" yMax="650">
      <contour>
        <pt x="43" y="-10" on="0"/>
        <pt x="43" y="319" on="1"/>
        <pt x="43" y="486" on="0"/>
        <pt x="133" y="650" on="0"/>
        <pt x="224" y="650" on="1"/>
        <pt x="317" y="650" on="0"/>
        <pt x="405" y="487" on="0"/>
        <pt x="405" y="319" on="1"/>
        <pt x="405" y="154" on="0"/>
        <pt x="317" y="-10" on="0"/>
        <pt x="224" y="-10" on="1"/>
      </contour>
      <contour>
        <pt x="95" y="169" on="0"/>
        <pt x="155" y="34" on="0"/>
        <pt x="224" y="34" on="1"/>
        <pt x="293" y="34" on="0"/>
        <pt x="353" y="169" on="0"/>
        <pt x="353" y="319" on="1"/>
        <pt x="353" y="470" on="0"/>
        <pt x="293" y="606" on="0"/>
        <pt x="224" y="606" on="1"/>
        <pt x="155" y="606" on="0"/>
        <pt x="95" y="470" on="0"/>
        <pt x="95" y="319" on="1"/>
      </contour>
    </TTGlyph>
    <TTGlyph name="O.short" xMin="43" yMin="-10" xMax="405" yMax="586">
      <contour>
        <pt x="135" y="-10" on="0"/>
        <pt x="43" y="145" on="0"/>
        <pt x="43" y="287" on="1"/>
        <pt x="43" y="430" on="0"/>
        <pt x="135" y="586" on="0"/>
        <pt x="224" y="586" on="1"/>
        <pt x="313" y="586" on="0"/>
        <pt x="405" y="430" on="0"/>
        <pt x="405" y="287" on="1"/>
        <pt x="405" y="145" on="0"/>
        <pt x="313" y="-10" on="0"/>
        <pt x="224" y="-10" on="1"/>
      </contour>
      <contour>
        <pt x="95" y="159" on="0"/>
        <pt x="156" y="34" on="0"/>
        <pt x="224" y="34" on="1"/>
        <pt x="292" y="34" on="0"/>
        <pt x="353" y="159" on="0"/>
        <pt x="353" y="287" on="1"/>
        <pt x="353" y="417" on="0"/>
        <pt x="293" y="542" on="0"/>
        <pt x="224" y="542" on="1"/>
        <pt x="155" y="542" on="0"/>
        <pt x="95" y="417" on="0"/>
        <pt x="95" y="287" on="1"/>
      </contour>
    </TTGlyph>
    <TTGlyph name="O.sups" xMin="112" yMin="316" xMax="336" yMax="644">
      <contour>
        <pt x="112" y="316" on="0"/>
        <pt x="112" y="480" on="1"/>
        <pt x="112" y="644" on="0"/>
        <pt x="224" y="644" on="1"/>
        <pt x="282" y="644" on="0"/>
        <pt x="336" y="556" on="0"/>
        <pt x="336" y="480" on="1"/>
        <pt x="336" y="405" on="0"/>
        <pt x="282" y="316" on="0"/>
        <pt x="224" y="316" on="1"/>
      </contour>
      <contour>
        <pt x="158" y="412" on="0"/>
        <pt x="188" y="356" on="0"/>
        <pt x="224" y="356" on="1"/>
        <pt x="260" y="356" on="0"/>
        <pt x="290" y="412" on="0"/>
        <pt x="290" y="480" on="1"/>
        <pt x="290" y="546" on="0"/>
        <pt x="260" y="604" on="0"/>
        <pt x="224" y="604" on="1"/>
        <pt x="188" y="604" on="0"/>
        <pt x="158" y="546" on="0"/>
        <pt x="158" y="480" on="1"/>
      </contour>
    </TTGlyph>
    <TTGlyph name="OE" xMin="4" yMin="0" xMax="442" yMax="640">
      <contour>
        <pt x="4" y="0" on="0"/>
        <pt x="4" y="319" on="1"/>
        <pt x="4" y="481" on="0"/>
        <pt x="86" y="640" on="0"/>
        <pt x="170" y="640" on="1"/>
        <pt x="432" y="640" on="1"/>
        <pt x="432" y="596" on="1"/>
        <pt x="258" y="596" on="1"/>
        <pt x="258" y="310" on="1"/>
        <pt x="391" y="310" on="1"/>
        <pt x="391" y="266" on="1"/>
        <pt x="258" y="266" on="1"/>
        <pt x="258" y="44" on="1"/>
        <pt x="442" y="44" on="1"/>
        <pt x="442" y="0" on="1"/>
        <pt x="170" y="0" on="1"/>
      </contour>
      <contour>
        <pt x="56" y="172" on="0"/>
        <pt x="111" y="44" on="0"/>
        <pt x="170" y="44" on="1"/>
        <pt x="210" y="44" on="1"/>
        <pt x="210" y="596" on="1"/>
        <pt x="170" y="596" on="1"/>
        <pt x="111" y="596" on="0"/>
        <pt x="56" y="467" on="0"/>
        <pt x="56" y="319" on="1"/>
      </contour>
    </TTGlyph>
    <TTGlyph name="Oacute" xMin="43" yMin="-10" xMax="405" yMax="832">
      <component glyphName="O" x="0" y="0" flags="0x400"/>
      <component glyphName="acutecomb.case" x="0" y="0" flags="0x400"/>
    </TTGlyph>
    <TTGlyph name="Obreve" xMin="43" yMin="-10" xMax="405" yMax="830">
      <component glyphName="O" x="0" y="0" flags="0x400"/>
      <component glyphName="uni0306.case" x="0" y="0" flags="0x400"/>
    </TTGlyph>
    <TTGlyph name="Ocircumflex" xMin="43" yMin="-10" xMax="405" yMax="842">
      <component glyphName="O" x="0" y="0" flags="0x400"/>
      <component glyphName="uni0302.case" x="0" y="0" flags="0x400"/>
    </TTGlyph>
    <TTGlyph name="Odieresis" xMin="43" yMin="-10" xMax="405" yMax="810">
      <component glyphName="O" x="0" y="0" flags="0x400"/>
      <component glyphName="uni0308.case" x="0" y="0" flags="0x400"/>
    </TTGlyph>
    <TTGlyph name="Ograve" xMin="43" yMin="-10" xMax="405" yMax="832">
      <component glyphName="O" x="0" y="0" flags="0x400"/>
      <component glyphName="gravecomb.case" x="0" y="0" flags="0x400"/>
    </TTGlyph>
    <TTGlyph name="Ohorn" xMin="43" yMin="-10" xMax="414" yMax="768">
      <contour>
        <pt x="43" y="-10" on="0"/>
        <pt x="43" y="319" on="1"/>
        <pt x="43" y="486" on="0"/>
        <pt x="133" y="650" on="0"/>
        <pt x="224" y="650" on="1"/>
        <pt x="247" y="650" on="0"/>
        <pt x="272" y="645" on="1"/>
        <pt x="310" y="640" on="0"/>
        <pt x="321" y="640" on="1"/>
        <pt x="345" y="640" on="0"/>
        <pt x="366" y="665" on="0"/>
        <pt x="366" y="693" on="1"/>
        <pt x="366" y="720" on="0"/>
        <pt x="358" y="768" on="1"/>
        <pt x="404" y="768" on="1"/>
        <pt x="414" y="722" on="0"/>
        <pt x="414" y="689" on="1"/>
        <pt x="414" y="646" on="0"/>
        <pt x="375" y="602" on="0"/>
        <pt x="341" y="599" on="1"/>
        <pt x="405" y="522" on="0"/>
        <pt x="405" y="319" on="1"/>
        <pt x="405" y="154" on="0"/>
        <pt x="317" y="-10" on="0"/>
        <pt x="224" y="-10" on="1"/>
      </contour>
      <contour>
        <pt x="95" y="169" on="0"/>
        <pt x="155" y="34" on="0"/>
        <pt x="224" y="34" on="1"/>
        <pt x="293" y="34" on="0"/>
        <pt x="353" y="169" on="0"/>
        <pt x="353" y="319" on="1"/>
        <pt x="353" y="470" on="0"/>
        <pt x="293" y="606" on="0"/>
        <pt x="224" y="606" on="1"/>
        <pt x="155" y="606" on="0"/>
        <pt x="95" y="470" on="0"/>
        <pt x="95" y="319" on="1"/>
      </contour>
    </TTGlyph>
    <TTGlyph name="Ohorn.short" xMin="43" yMin="-10" xMax="414" yMax="704">
      <contour>
        <pt x="135" y="-10" on="0"/>
        <pt x="43" y="144" on="0"/>
        <pt x="43" y="287" on="1"/>
        <pt x="43" y="430" on="0"/>
        <pt x="135" y="586" on="0"/>
        <pt x="224" y="586" on="1"/>
        <pt x="247" y="586" on="0"/>
        <pt x="272" y="581" on="1"/>
        <pt x="310" y="576" on="0"/>
        <pt x="321" y="576" on="1"/>
        <pt x="345" y="576" on="0"/>
        <pt x="366" y="601" on="0"/>
        <pt x="366" y="629" on="1"/>
        <pt x="366" y="656" on="0"/>
        <pt x="358" y="704" on="1"/>
        <pt x="404" y="704" on="1"/>
        <pt x="414" y="658" on="0"/>
        <pt x="414" y="625" on="1"/>
        <pt x="414" y="582" on="0"/>
        <pt x="375" y="538" on="0"/>
        <pt x="341" y="535" on="1"/>
        <pt x="371" y="499" on="0"/>
        <pt x="405" y="373" on="0"/>
        <pt x="405" y="287" on="1"/>
        <pt x="405" y="144" on="0"/>
        <pt x="313" y="-10" on="0"/>
        <pt x="224" y="-10" on="1"/>
      </contour>
      <contour>
        <pt x="95" y="159" on="0"/>
        <pt x="156" y="34" on="0"/>
        <pt x="224" y="34" on="1"/>
        <pt x="292" y="34" on="0"/>
        <pt x="353" y="159" on="0"/>
        <pt x="353" y="287" on="1"/>
        <pt x="353" y="417" on="0"/>
        <pt x="293" y="542" on="0"/>
        <pt x="224" y="542" on="1"/>
        <pt x="155" y="542" on="0"/>
        <pt x="95" y="417" on="0"/>
        <pt x="95" y="287" on="1"/>
      </contour>
    </TTGlyph>
    <TTGlyph name="Ohungarumlaut" xMin="43" yMin="-10" xMax="405" yMax="832">
      <component glyphName="O" x="0" y="0" flags="0x400"/>
      <component glyphName="uni030B.case" x="0" y="0" flags="0x400"/>
    </TTGlyph>
    <TTGlyph name="Omacron" xMin="43" yMin="-10" xMax="405" yMax="762">
      <component glyphName="O" x="0" y="0" flags="0x400"/>
      <component glyphName="uni0304.case" x="0" y="0" flags="0x400"/>
    </TTGlyph>
    <TTGlyph name="Omegatonos" xMin="-54" yMin="0" xMax="405" yMax="704">
      <component glyphName="uni03A9" x="0" y="0" flags="0x400"/>
      <component glyphName="tonos" x="-256" y="0" flags="0x400"/>
    </TTGlyph>
    <TTGlyph name="Omicron" xMin="43" yMin="-10" xMax="405" yMax="650">
      <component glyphName="O" x="0" y="0" flags="0x400"/>
    </TTGlyph>
    <TTGlyph name="Omicrontonos" xMin="-54" yMin="-10" xMax="405" yMax="704">
      <component glyphName="O" x="0" y="0" flags="0x400"/>
      <component glyphName="tonos" x="-256" y="0" flags="0x400"/>
    </TTGlyph>
    <TTGlyph name="Oslash" xMin="43" yMin="-10" xMax="405" yMax="650">
      <component glyphName="O" x="0" y="0" flags="0x400"/>
      <component glyphName="_part.slash.O" x="0" y="0" flags="0x400"/>
    </TTGlyph>
    <TTGlyph name="Oslashacute" xMin="43" yMin="-10" xMax="405" yMax="832">
      <component glyphName="Oslash" x="0" y="0" flags="0x400"/>
      <component glyphName="acutecomb.case" x="0" y="0" flags="0x400"/>
    </TTGlyph>
    <TTGlyph name="Otilde" xMin="43" yMin="-10" xMax="405" yMax="837">
      <component glyphName="O" x="0" y="0" flags="0x400"/>
      <component glyphName="tildecomb.case" x="0" y="0" flags="0x400"/>
    </TTGlyph>
    <TTGlyph name="P" xMin="66" yMin="0" xMax="395" yMax="640">
      <contour>
        <pt x="66" y="640" on="1"/>
        <pt x="213" y="640" on="1"/>
        <pt x="296" y="640" on="0"/>
        <pt x="395" y="524" on="0"/>
        <pt x="395" y="419" on="1"/>
        <pt x="395" y="314" on="0"/>
        <pt x="296" y="202" on="0"/>
        <pt x="213" y="202" on="1"/>
        <pt x="114" y="202" on="1"/>
        <pt x="114" y="0" on="1"/>
        <pt x="66" y="0" on="1"/>
      </contour>
      <contour>
        <pt x="211" y="246" on="1"/>
        <pt x="343" y="246" on="0"/>
        <pt x="343" y="419" on="1"/>
        <pt x="343" y="596" on="0"/>
        <pt x="210" y="596" on="1"/>
        <pt x="114" y="596" on="1"/>
        <pt x="114" y="246" on="1"/>
      </contour>
    </TTGlyph>
    <TTGlyph name="P.short" xMin="66" yMin="0" xMax="395" yMax="576">
      <contour>
        <pt x="66" y="576" on="1"/>
        <pt x="213" y="576" on="1"/>
        <pt x="296" y="576" on="0"/>
        <pt x="395" y="477" on="0"/>
        <pt x="395" y="386" on="1"/>
        <pt x="395" y="297" on="0"/>
        <pt x="296" y="202" on="0"/>
        <pt x="213" y="202" on="1"/>
        <pt x="114" y="202" on="1"/>
        <pt x="114" y="0" on="1"/>
        <pt x="66" y="0" on="1"/>
      </contour>
      <contour>
        <pt x="211" y="246" on="1"/>
        <pt x="343" y="246" on="0"/>
        <pt x="343" y="386" on="1"/>
        <pt x="343" y="532" on="0"/>
        <pt x="210" y="532" on="1"/>
        <pt x="114" y="532" on="1"/>
        <pt x="114" y="246" on="1"/>
      </contour>
    </TTGlyph>
    <TTGlyph name="P.sups" xMin="133" yMin="320" xMax="332" yMax="640">
      <contour>
        <pt x="133" y="640" on="1"/>
        <pt x="228" y="640" on="1"/>
        <pt x="275" y="640" on="0"/>
        <pt x="332" y="589" on="0"/>
        <pt x="332" y="544" on="1"/>
        <pt x="332" y="497" on="0"/>
        <pt x="276" y="448" on="0"/>
        <pt x="230" y="448" on="1"/>
        <pt x="177" y="448" on="1"/>
        <pt x="177" y="320" on="1"/>
        <pt x="133" y="320" on="1"/>
      </contour>
      <contour>
        <pt x="226" y="486" on="1"/>
        <pt x="284" y="486" on="0"/>
        <pt x="284" y="544" on="1"/>
        <pt x="284" y="570" on="0"/>
        <pt x="256" y="602" on="0"/>
        <pt x="226" y="602" on="1"/>
        <pt x="177" y="602" on="1"/>
        <pt x="177" y="486" on="1"/>
      </contour>
    </TTGlyph>
    <TTGlyph name="Phi" xMin="44" yMin="0" xMax="404" yMax="640">
      <component glyphName="uni0424" x="0" y="0" flags="0x400"/>
    </TTGlyph>
    <TTGlyph name="Pi" xMin="66" yMin="0" xMax="382" yMax="640">
      <component glyphName="uni041F" x="0" y="0" flags="0x400"/>
    </TTGlyph>
    <TTGlyph name="Psi" xMin="50" yMin="0" xMax="398" yMax="640">
      <contour>
        <pt x="248" y="224" on="1"/>
        <pt x="301" y="232" on="0"/>
        <pt x="347" y="332" on="0"/>
        <pt x="347" y="429" on="1"/>
        <pt x="347" y="532" on="0"/>
        <pt x="335" y="640" on="1"/>
        <pt x="381" y="640" on="1"/>
        <pt x="398" y="518" on="0"/>
        <pt x="398" y="427" on="1"/>
        <pt x="398" y="317" on="0"/>
        <pt x="329" y="190" on="0"/>
        <pt x="248" y="181" on="1"/>
        <pt x="248" y="0" on="1"/>
        <pt x="200" y="0" on="1"/>
        <pt x="200" y="181" on="1"/>
        <pt x="119" y="190" on="0"/>
        <pt x="50" y="317" on="0"/>
        <pt x="50" y="427" on="1"/>
        <pt x="50" y="518" on="0"/>
        <pt x="67" y="640" on="1"/>
        <pt x="113" y="640" on="1"/>
        <pt x="101" y="532" on="0"/>
        <pt x="101" y="429" on="1"/>
        <pt x="101" y="332" on="0"/>
        <pt x="147" y="232" on="0"/>
        <pt x="200" y="224" on="1"/>
        <pt x="200" y="640" on="1"/>
        <pt x="248" y="640" on="1"/>
      </contour>
    </TTGlyph>
    <TTGlyph name="Q" xMin="43" yMin="-128" xMax="405" yMax="650">
      <contour>
        <pt x="320" y="-128" on="0"/>
        <pt x="235" y="-72" on="0"/>
        <pt x="224" y="-10" on="1"/>
        <pt x="43" y="-10" on="0"/>
        <pt x="43" y="319" on="1"/>
        <pt x="43" y="486" on="0"/>
        <pt x="133" y="650" on="0"/>
        <pt x="224" y="650" on="1"/>
        <pt x="317" y="650" on="0"/>
        <pt x="405" y="487" on="0"/>
        <pt x="405" y="319" on="1"/>
        <pt x="405" y="175" on="0"/>
        <pt x="338" y="14" on="0"/>
        <pt x="268" y="-5" on="1"/>
        <pt x="276" y="-49" on="0"/>
        <pt x="336" y="-81" on="0"/>
        <pt x="405" y="-82" on="1"/>
        <pt x="403" y="-128" on="1"/>
      </contour>
      <contour>
        <pt x="95" y="169" on="0"/>
        <pt x="155" y="34" on="0"/>
        <pt x="224" y="34" on="1"/>
        <pt x="293" y="34" on="0"/>
        <pt x="353" y="169" on="0"/>
        <pt x="353" y="319" on="1"/>
        <pt x="353" y="470" on="0"/>
        <pt x="293" y="606" on="0"/>
        <pt x="224" y="606" on="1"/>
        <pt x="155" y="606" on="0"/>
        <pt x="95" y="470" on="0"/>
        <pt x="95" y="319" on="1"/>
      </contour>
    </TTGlyph>
    <TTGlyph name="Q.sups" xMin="112" yMin="256" xMax="336" yMax="644">
      <contour>
        <pt x="112" y="333" on="0"/>
        <pt x="112" y="480" on="1"/>
        <pt x="112" y="644" on="0"/>
        <pt x="224" y="644" on="1"/>
        <pt x="282" y="644" on="0"/>
        <pt x="336" y="556" on="0"/>
        <pt x="336" y="480" on="1"/>
        <pt x="336" y="413" on="0"/>
        <pt x="292" y="327" on="0"/>
        <pt x="246" y="318" on="1"/>
        <pt x="246" y="256" on="1"/>
        <pt x="202" y="256" on="1"/>
        <pt x="202" y="318" on="1"/>
      </contour>
      <contour>
        <pt x="158" y="412" on="0"/>
        <pt x="188" y="356" on="0"/>
        <pt x="224" y="356" on="1"/>
        <pt x="260" y="356" on="0"/>
        <pt x="290" y="412" on="0"/>
        <pt x="290" y="480" on="1"/>
        <pt x="290" y="546" on="0"/>
        <pt x="260" y="604" on="0"/>
        <pt x="224" y="604" on="1"/>
        <pt x="188" y="604" on="0"/>
        <pt x="158" y="546" on="0"/>
        <pt x="158" y="480" on="1"/>
      </contour>
    </TTGlyph>
    <TTGlyph name="R" xMin="66" yMin="0" xMax="405" yMax="640">
      <contour>
        <pt x="299" y="640" on="0"/>
        <pt x="395" y="538" on="0"/>
        <pt x="395" y="446" on="1"/>
        <pt x="395" y="361" on="0"/>
        <pt x="319" y="265" on="0"/>
        <pt x="251" y="256" on="1"/>
        <pt x="314" y="230" on="0"/>
        <pt x="395" y="95" on="0"/>
        <pt x="405" y="0" on="1"/>
        <pt x="355" y="0" on="1"/>
        <pt x="342" y="102" on="0"/>
        <pt x="265" y="218" on="0"/>
        <pt x="184" y="251" on="1"/>
        <pt x="114" y="251" on="1"/>
        <pt x="114" y="0" on="1"/>
        <pt x="66" y="0" on="1"/>
        <pt x="66" y="640" on="1"/>
        <pt x="215" y="640" on="1"/>
      </contour>
      <contour>
        <pt x="214" y="295" on="1"/>
        <pt x="284" y="295" on="0"/>
        <pt x="343" y="373" on="0"/>
        <pt x="343" y="445" on="1"/>
        <pt x="343" y="517" on="0"/>
        <pt x="284" y="596" on="0"/>
        <pt x="214" y="596" on="1"/>
        <pt x="114" y="596" on="1"/>
        <pt x="114" y="295" on="1"/>
      </contour>
    </TTGlyph>
    <TTGlyph name="R.short" xMin="66" yMin="0" xMax="405" yMax="576">
      <contour>
        <pt x="299" y="576" on="0"/>
        <pt x="395" y="483" on="0"/>
        <pt x="395" y="399" on="1"/>
        <pt x="395" y="322" on="0"/>
        <pt x="321" y="235" on="0"/>
        <pt x="255" y="225" on="1"/>
        <pt x="317" y="201" on="0"/>
        <pt x="396" y="83" on="0"/>
        <pt x="405" y="0" on="1"/>
        <pt x="355" y="0" on="1"/>
        <pt x="342" y="89" on="0"/>
        <pt x="265" y="190" on="0"/>
        <pt x="184" y="220" on="1"/>
        <pt x="114" y="220" on="1"/>
        <pt x="114" y="0" on="1"/>
        <pt x="66" y="0" on="1"/>
        <pt x="66" y="576" on="1"/>
        <pt x="215" y="576" on="1"/>
      </contour>
      <contour>
        <pt x="214" y="264" on="1"/>
        <pt x="284" y="264" on="0"/>
        <pt x="343" y="333" on="0"/>
        <pt x="343" y="398" on="1"/>
        <pt x="343" y="462" on="0"/>
        <pt x="284" y="532" on="0"/>
        <pt x="214" y="532" on="1"/>
        <pt x="114" y="532" on="1"/>
        <pt x="114" y="264" on="1"/>
      </contour>
    </TTGlyph>
    <TTGlyph name="R.sups" xMin="133" yMin="320" xMax="323" yMax="640">
      <contour>
        <pt x="267" y="640" on="0"/>
        <pt x="321" y="587" on="0"/>
        <pt x="321" y="538" on="1"/>
        <pt x="321" y="500" on="0"/>
        <pt x="289" y="455" on="0"/>
        <pt x="261" y="447" on="1"/>
        <pt x="287" y="430" on="0"/>
        <pt x="319" y="366" on="0"/>
        <pt x="323" y="320" on="1"/>
        <pt x="276" y="320" on="1"/>
        <pt x="271" y="363" on="0"/>
        <pt x="242" y="418" on="0"/>
        <pt x="215" y="436" on="1"/>
        <pt x="177" y="436" on="1"/>
        <pt x="177" y="320" on="1"/>
        <pt x="133" y="320" on="1"/>
        <pt x="133" y="640" on="1"/>
        <pt x="220" y="640" on="1"/>
      </contour>
      <contour>
        <pt x="217" y="476" on="1"/>
        <pt x="275" y="476" on="0"/>
        <pt x="275" y="538" on="1"/>
        <pt x="275" y="600" on="0"/>
        <pt x="217" y="600" on="1"/>
        <pt x="177" y="600" on="1"/>
        <pt x="177" y="476" on="1"/>
      </contour>
    </TTGlyph>
    <TTGlyph name="Racute" xMin="66" yMin="0" xMax="405" yMax="832">
      <component glyphName="R" x="0" y="0" flags="0x400"/>
      <component glyphName="acutecomb.case" x="0" y="0" flags="0x400"/>
    </TTGlyph>
    <TTGlyph name="Rcaron" xMin="66" yMin="0" xMax="405" yMax="840">
      <component glyphName="R" x="0" y="0" flags="0x400"/>
      <component glyphName="uni030C.case" x="0" y="0" flags="0x400"/>
    </TTGlyph>
    <TTGlyph name="Rho" xMin="66" yMin="0" xMax="395" yMax="640">
      <component glyphName="P" x="0" y="0" flags="0x400"/>
    </TTGlyph>
    <TTGlyph name="S" xMin="60" yMin="-8" xMax="384" yMax="648">
      <contour>
        <pt x="132" y="-8" on="0"/>
        <pt x="60" y="17" on="1"/>
        <pt x="72" y="57" on="1"/>
        <pt x="107" y="47" on="0"/>
        <pt x="166" y="36" on="0"/>
        <pt x="203" y="36" on="1"/>
        <pt x="275" y="36" on="0"/>
        <pt x="334" y="90" on="0"/>
        <pt x="334" y="140" on="1"/>
        <pt x="334" y="176" on="0"/>
        <pt x="303" y="224" on="0"/>
        <pt x="257" y="254" on="0"/>
        <pt x="217" y="273" on="1"/>
        <pt x="167" y="297" on="0"/>
        <pt x="108" y="338" on="0"/>
        <pt x="66" y="414" on="0"/>
        <pt x="66" y="473" on="1"/>
        <pt x="66" y="551" on="0"/>
        <pt x="164" y="648" on="0"/>
        <pt x="254" y="648" on="1"/>
        <pt x="311" y="648" on="0"/>
        <pt x="367" y="630" on="1"/>
        <pt x="357" y="590" on="1"/>
        <pt x="301" y="604" on="0"/>
        <pt x="253" y="604" on="1"/>
        <pt x="181" y="604" on="0"/>
        <pt x="116" y="533" on="0"/>
        <pt x="116" y="475" on="1"/>
        <pt x="116" y="428" on="0"/>
        <pt x="152" y="367" on="0"/>
        <pt x="205" y="332" on="0"/>
        <pt x="249" y="311" on="1"/>
        <pt x="295" y="288" on="0"/>
        <pt x="347" y="253" on="0"/>
        <pt x="384" y="190" on="0"/>
        <pt x="384" y="142" on="1"/>
        <pt x="384" y="68" on="0"/>
        <pt x="290" y="-8" on="0"/>
        <pt x="208" y="-8" on="1"/>
      </contour>
    </TTGlyph>
    <TTGlyph name="S.short" xMin="60" yMin="-8" xMax="384" yMax="584">
      <contour>
        <pt x="132" y="-8" on="0"/>
        <pt x="60" y="17" on="1"/>
        <pt x="72" y="57" on="1"/>
        <pt x="107" y="47" on="0"/>
        <pt x="166" y="36" on="0"/>
        <pt x="203" y="36" on="1"/>
        <pt x="275" y="36" on="0"/>
        <pt x="334" y="82" on="0"/>
        <pt x="334" y="126" on="1"/>
        <pt x="334" y="157" on="0"/>
        <pt x="304" y="199" on="0"/>
        <pt x="259" y="225" on="0"/>
        <pt x="219" y="242" on="1"/>
        <pt x="170" y="263" on="0"/>
        <pt x="109" y="300" on="0"/>
        <pt x="66" y="369" on="0"/>
        <pt x="66" y="423" on="1"/>
        <pt x="66" y="495" on="0"/>
        <pt x="164" y="584" on="0"/>
        <pt x="254" y="584" on="1"/>
        <pt x="311" y="584" on="0"/>
        <pt x="367" y="566" on="1"/>
        <pt x="357" y="526" on="1"/>
        <pt x="301" y="540" on="0"/>
        <pt x="253" y="540" on="1"/>
        <pt x="181" y="540" on="0"/>
        <pt x="116" y="477" on="0"/>
        <pt x="116" y="425" on="1"/>
        <pt x="116" y="384" on="0"/>
        <pt x="151" y="331" on="0"/>
        <pt x="203" y="300" on="0"/>
        <pt x="247" y="281" on="1"/>
        <pt x="292" y="262" on="0"/>
        <pt x="347" y="229" on="0"/>
        <pt x="384" y="172" on="0"/>
        <pt x="384" y="128" on="1"/>
        <pt x="384" y="61" on="0"/>
        <pt x="291" y="-8" on="0"/>
        <pt x="208" y="-8" on="1"/>
      </contour>
    </TTGlyph>
    <TTGlyph name="S.sups" xMin="136" yMin="316" xMax="312" yMax="644">
      <contour>
        <pt x="180" y="316" on="0"/>
        <pt x="136" y="324" on="1"/>
        <pt x="142" y="361" on="1"/>
        <pt x="179" y="356" on="0"/>
        <pt x="203" y="356" on="1"/>
        <pt x="266" y="356" on="0"/>
        <pt x="266" y="407" on="1"/>
        <pt x="266" y="430" on="0"/>
        <pt x="239" y="453" on="0"/>
        <pt x="209" y="466" on="1"/>
        <pt x="173" y="481" on="0"/>
        <pt x="136" y="516" on="0"/>
        <pt x="136" y="554" on="1"/>
        <pt x="136" y="595" on="0"/>
        <pt x="189" y="644" on="0"/>
        <pt x="236" y="644" on="1"/>
        <pt x="269" y="644" on="0"/>
        <pt x="304" y="636" on="1"/>
        <pt x="297" y="599" on="1"/>
        <pt x="264" y="604" on="0"/>
        <pt x="244" y="604" on="1"/>
        <pt x="214" y="604" on="0"/>
        <pt x="182" y="581" on="0"/>
        <pt x="182" y="559" on="1"/>
        <pt x="182" y="536" on="0"/>
        <pt x="210" y="513" on="0"/>
        <pt x="238" y="501" on="1"/>
        <pt x="274" y="486" on="0"/>
        <pt x="312" y="449" on="0"/>
        <pt x="312" y="408" on="1"/>
        <pt x="312" y="366" on="0"/>
        <pt x="260" y="316" on="0"/>
        <pt x="210" y="316" on="1"/>
      </contour>
    </TTGlyph>
    <TTGlyph name="Sacute" xMin="60" yMin="-8" xMax="384" yMax="832">
      <component glyphName="S" x="0" y="0" flags="0x400"/>
      <component glyphName="acutecomb.case" x="0" y="0" flags="0x400"/>
    </TTGlyph>
    <TTGlyph name="Scaron" xMin="60" yMin="-8" xMax="384" yMax="840">
      <component glyphName="S" x="0" y="0" flags="0x400"/>
      <component glyphName="uni030C.case" x="0" y="0" flags="0x400"/>
    </TTGlyph>
    <TTGlyph name="Scedilla" xMin="60" yMin="-172" xMax="384" yMax="648">
      <component glyphName="S" x="0" y="0" flags="0x400"/>
      <component glyphName="uni0327" x="-55" y="20" flags="0x404"/>
    </TTGlyph>
    <TTGlyph name="Scircumflex" xMin="60" yMin="-8" xMax="384" yMax="842">
      <component glyphName="S" x="0" y="0" flags="0x400"/>
      <component glyphName="uni0302.case" x="0" y="0" flags="0x400"/>
    </TTGlyph>
    <TTGlyph name="Sigma" xMin="61" yMin="0" xMax="382" yMax="640">
      <contour>
        <pt x="199" y="320" on="1"/>
        <pt x="73" y="603" on="1"/>
        <pt x="73" y="640" on="1"/>
        <pt x="382" y="640" on="1"/>
        <pt x="382" y="596" on="1"/>
        <pt x="129" y="596" on="1"/>
        <pt x="252" y="320" on="1"/>
        <pt x="117" y="44" on="1"/>
        <pt x="382" y="44" on="1"/>
        <pt x="382" y="0" on="1"/>
        <pt x="61" y="0" on="1"/>
        <pt x="61" y="37" on="1"/>
      </contour>
    </TTGlyph>
    <TTGlyph name="T" xMin="56" yMin="0" xMax="392" yMax="640">
      <contour>
        <pt x="249" y="596" on="1"/>
        <pt x="249" y="0" on="1"/>
        <pt x="199" y="0" on="1"/>
        <pt x="199" y="596" on="1"/>
        <pt x="56" y="596" on="1"/>
        <pt x="56" y="640" on="1"/>
        <pt x="392" y="640" on="1"/>
        <pt x="392" y="596" on="1"/>
      </contour>
    </TTGlyph>
    <TTGlyph name="T.short" xMin="56" yMin="0" xMax="392" yMax="576">
      <contour>
        <pt x="249" y="532" on="1"/>
        <pt x="249" y="0" on="1"/>
        <pt x="199" y="0" on="1"/>
        <pt x="199" y="532" on="1"/>
        <pt x="56" y="532" on="1"/>
        <pt x="56" y="576" on="1"/>
        <pt x="392" y="576" on="1"/>
        <pt x="392" y="532" on="1"/>
      </contour>
    </TTGlyph>
    <TTGlyph name="T.sups" xMin="130" yMin="320" xMax="318" yMax="640">
      <contour>
        <pt x="202" y="600" on="1"/>
        <pt x="130" y="600" on="1"/>
        <pt x="130" y="640" on="1"/>
        <pt x="318" y="640" on="1"/>
        <pt x="318" y="600" on="1"/>
        <pt x="246" y="600" on="1"/>
        <pt x="246" y="320" on="1"/>
        <pt x="202" y="320" on="1"/>
      </contour>
    </TTGlyph>
    <TTGlyph name="Tau" xMin="56" yMin="0" xMax="392" yMax="640">
      <component glyphName="T" x="0" y="0" flags="0x400"/>
    </TTGlyph>
    <TTGlyph name="Tbar" xMin="56" yMin="0" xMax="392" yMax="640">
      <component glyphName="T" x="0" y="0" flags="0x400"/>
      <component glyphName="uni0335" x="0" y="64" flags="0x404"/>
    </TTGlyph>
    <TTGlyph name="Tcaron" xMin="56" yMin="0" xMax="392" yMax="840">
      <component glyphName="T" x="0" y="0" flags="0x400"/>
      <component glyphName="uni030C.case" x="0" y="0" flags="0x400"/>
    </TTGlyph>
    <TTGlyph name="Theta" xMin="43" yMin="-10" xMax="405" yMax="650">
      <contour>
        <pt x="43" y="-10" on="0"/>
        <pt x="43" y="319" on="1"/>
        <pt x="43" y="486" on="0"/>
        <pt x="133" y="650" on="0"/>
        <pt x="224" y="650" on="1"/>
        <pt x="317" y="650" on="0"/>
        <pt x="405" y="487" on="0"/>
        <pt x="405" y="319" on="1"/>
        <pt x="405" y="154" on="0"/>
        <pt x="317" y="-10" on="0"/>
        <pt x="224" y="-10" on="1"/>
      </contour>
      <contour>
        <pt x="353" y="315" on="1"/>
        <pt x="353" y="319" on="1"/>
        <pt x="353" y="470" on="0"/>
        <pt x="293" y="606" on="0"/>
        <pt x="224" y="606" on="1"/>
        <pt x="155" y="606" on="0"/>
        <pt x="95" y="470" on="0"/>
        <pt x="95" y="319" on="1"/>
        <pt x="95" y="315" on="1"/>
      </contour>
      <contour>
        <pt x="101" y="143" on="0"/>
        <pt x="163" y="34" on="0"/>
        <pt x="224" y="34" on="1"/>
        <pt x="285" y="34" on="0"/>
        <pt x="347" y="143" on="0"/>
        <pt x="352" y="261" on="1"/>
        <pt x="96" y="261" on="1"/>
      </contour>
    </TTGlyph>
    <TTGlyph name="Thorn" xMin="66" yMin="0" xMax="395" yMax="640">
      <contour>
        <pt x="297" y="502" on="0"/>
        <pt x="395" y="406" on="0"/>
        <pt x="395" y="318" on="1"/>
        <pt x="395" y="230" on="0"/>
        <pt x="297" y="138" on="0"/>
        <pt x="212" y="138" on="1"/>
        <pt x="114" y="138" on="1"/>
        <pt x="114" y="0" on="1"/>
        <pt x="66" y="0" on="1"/>
        <pt x="66" y="640" on="1"/>
        <pt x="114" y="640" on="1"/>
        <pt x="114" y="502" on="1"/>
        <pt x="212" y="502" on="1"/>
      </contour>
      <contour>
        <pt x="209" y="182" on="1"/>
        <pt x="283" y="182" on="0"/>
        <pt x="345" y="253" on="0"/>
        <pt x="345" y="318" on="1"/>
        <pt x="345" y="383" on="0"/>
        <pt x="283" y="458" on="0"/>
        <pt x="209" y="458" on="1"/>
        <pt x="114" y="458" on="1"/>
        <pt x="114" y="182" on="1"/>
      </contour>
    </TTGlyph>
    <TTGlyph name="U" xMin="66" yMin="-8" xMax="382" yMax="640">
      <contour>
        <pt x="114" y="640" on="1"/>
        <pt x="114" y="161" on="1"/>
        <pt x="114" y="102" on="0"/>
        <pt x="162" y="36" on="0"/>
        <pt x="224" y="36" on="1"/>
        <pt x="334" y="36" on="0"/>
        <pt x="334" y="161" on="1"/>
        <pt x="334" y="640" on="1"/>
        <pt x="382" y="640" on="1"/>
        <pt x="382" y="165" on="1"/>
        <pt x="382" y="77" on="0"/>
        <pt x="297" y="-8" on="0"/>
        <pt x="224" y="-8" on="1"/>
        <pt x="151" y="-8" on="0"/>
        <pt x="66" y="76" on="0"/>
        <pt x="66" y="163" on="1"/>
        <pt x="66" y="640" on="1"/>
      </contour>
    </TTGlyph>
    <TTGlyph name="U.short" xMin="66" yMin="-8" xMax="382" yMax="576">
      <contour>
        <pt x="114" y="576" on="1"/>
        <pt x="114" y="161" on="1"/>
        <pt x="114" y="102" on="0"/>
        <pt x="162" y="36" on="0"/>
        <pt x="224" y="36" on="1"/>
        <pt x="334" y="36" on="0"/>
        <pt x="334" y="161" on="1"/>
        <pt x="334" y="576" on="1"/>
        <pt x="382" y="576" on="1"/>
        <pt x="382" y="165" on="1"/>
        <pt x="382" y="77" on="0"/>
        <pt x="297" y="-8" on="0"/>
        <pt x="224" y="-8" on="1"/>
        <pt x="151" y="-8" on="0"/>
        <pt x="66" y="76" on="0"/>
        <pt x="66" y="163" on="1"/>
        <pt x="66" y="576" on="1"/>
      </contour>
    </TTGlyph>
    <TTGlyph name="U.sups" xMin="126" yMin="316" xMax="322" yMax="640">
      <contour>
        <pt x="179" y="316" on="0"/>
        <pt x="126" y="363" on="0"/>
        <pt x="126" y="413" on="1"/>
        <pt x="126" y="640" on="1"/>
        <pt x="170" y="640" on="1"/>
        <pt x="170" y="412" on="1"/>
        <pt x="170" y="386" on="0"/>
        <pt x="197" y="356" on="0"/>
        <pt x="224" y="356" on="1"/>
        <pt x="251" y="356" on="0"/>
        <pt x="278" y="386" on="0"/>
        <pt x="278" y="412" on="1"/>
        <pt x="278" y="640" on="1"/>
        <pt x="322" y="640" on="1"/>
        <pt x="322" y="414" on="1"/>
        <pt x="322" y="363" on="0"/>
        <pt x="269" y="316" on="0"/>
        <pt x="224" y="316" on="1"/>
      </contour>
    </TTGlyph>
    <TTGlyph name="Uacute" xMin="66" yMin="-8" xMax="382" yMax="832">
      <component glyphName="U" x="0" y="0" flags="0x400"/>
      <component glyphName="acutecomb.case" x="0" y="0" flags="0x400"/>
    </TTGlyph>
    <TTGlyph name="Ubreve" xMin="66" yMin="-8" xMax="382" yMax="830">
      <component glyphName="U" x="0" y="0" flags="0x400"/>
      <component glyphName="uni0306.case" x="0" y="0" flags="0x400"/>
    </TTGlyph>
    <TTGlyph name="Ucircumflex" xMin="66" yMin="-8" xMax="382" yMax="842">
      <component glyphName="U" x="0" y="0" flags="0x400"/>
      <component glyphName="uni0302.case" x="0" y="0" flags="0x400"/>
    </TTGlyph>
    <TTGlyph name="Udieresis" xMin="66" yMin="-8" xMax="382" yMax="810">
      <component glyphName="U" x="0" y="0" flags="0x400"/>
      <component glyphName="uni0308.case" x="0" y="0" flags="0x400"/>
    </TTGlyph>
    <TTGlyph name="Ugrave" xMin="66" yMin="-8" xMax="382" yMax="832">
      <component glyphName="U" x="0" y="0" flags="0x400"/>
      <component glyphName="gravecomb.case" x="0" y="0" flags="0x400"/>
    </TTGlyph>
    <TTGlyph name="Uhorn" xMin="66" yMin="-8" xMax="450" yMax="768">
      <component glyphName="U" x="0" y="0" flags="0x400"/>
      <component glyphName="uni031B.case" x="0" y="0" flags="0x400"/>
    </TTGlyph>
    <TTGlyph name="Uhorn.short" xMin="66" yMin="-8" xMax="450" yMax="704">
      <component glyphName="U.short" x="0" y="0" flags="0x400"/>
      <component glyphName="uni031B.case" x="0" y="-64" flags="0x404"/>
    </TTGlyph>
    <TTGlyph name="Uhungarumlaut" xMin="66" yMin="-8" xMax="387" yMax="832">
      <component glyphName="U" x="0" y="0" flags="0x400"/>
      <component glyphName="uni030B.case" x="0" y="0" flags="0x400"/>
    </TTGlyph>
    <TTGlyph name="Umacron" xMin="66" yMin="-8" xMax="382" yMax="762">
      <component glyphName="U" x="0" y="0" flags="0x400"/>
      <component glyphName="uni0304.case" x="0" y="0" flags="0x400"/>
    </TTGlyph>
    <TTGlyph name="Uogonek" xMin="66" yMin="-197" xMax="382" yMax="640">
      <component glyphName="U" x="0" y="0" flags="0x400"/>
      <component glyphName="uni0328" x="-92" y="0" flags="0x400"/>
    </TTGlyph>
    <TTGlyph name="Upsilon" xMin="32" yMin="0" xMax="416" yMax="640">
      <contour>
        <pt x="200" y="307" on="0"/>
        <pt x="113" y="546" on="0"/>
        <pt x="32" y="640" on="1"/>
        <pt x="95" y="640" on="1"/>
        <pt x="194" y="517" on="0"/>
        <pt x="224" y="345" on="1"/>
        <pt x="253" y="514" on="0"/>
        <pt x="355" y="640" on="1"/>
        <pt x="416" y="640" on="1"/>
        <pt x="248" y="443" on="0"/>
        <pt x="248" y="170" on="1"/>
        <pt x="248" y="0" on="1"/>
        <pt x="200" y="0" on="1"/>
        <pt x="200" y="170" on="1"/>
      </contour>
    </TTGlyph>
    <TTGlyph name="Upsilondieresis" xMin="32" yMin="0" xMax="416" yMax="810">
      <component glyphName="Upsilon" x="0" y="0" flags="0x400"/>
      <component glyphName="uni0308.case" x="0" y="0" flags="0x400"/>
    </TTGlyph>
    <TTGlyph name="Upsilontonos" xMin="-54" yMin="0" xMax="416" yMax="704">
      <component glyphName="Upsilon" x="0" y="0" flags="0x400"/>
      <component glyphName="tonos" x="-256" y="0" flags="0x400"/>
    </TTGlyph>
    <TTGlyph name="Uring" xMin="66" yMin="-8" xMax="382" yMax="815">
      <component glyphName="U.short" x="0" y="0" flags="0x400"/>
      <component glyphName="uni030A.case" x="0" y="0" flags="0x400"/>
    </TTGlyph>
    <TTGlyph name="Utilde" xMin="66" yMin="-8" xMax="382" yMax="837">
      <component glyphName="U" x="0" y="0" flags="0x400"/>
      <component glyphName="tildecomb.case" x="0" y="0" flags="0x400"/>
    </TTGlyph>
    <TTGlyph name="V" xMin="41" yMin="-3" xMax="407" yMax="640">
      <contour>
        <pt x="141" y="120" on="0"/>
        <pt x="58" y="454" on="0"/>
        <pt x="41" y="640" on="1"/>
        <pt x="92" y="640" on="1"/>
        <pt x="108" y="465" on="0"/>
        <pt x="177" y="170" on="0"/>
        <pt x="224" y="62" on="1"/>
        <pt x="271" y="170" on="0"/>
        <pt x="340" y="465" on="0"/>
        <pt x="356" y="640" on="1"/>
        <pt x="407" y="640" on="1"/>
        <pt x="390" y="454" on="0"/>
        <pt x="307" y="120" on="0"/>
        <pt x="244" y="-3" on="1"/>
        <pt x="204" y="-3" on="1"/>
      </contour>
    </TTGlyph>
    <TTGlyph name="V.sups" xMin="115" yMin="320" xMax="332" yMax="640">
      <contour>
        <pt x="136" y="487" on="0"/>
        <pt x="115" y="640" on="1"/>
        <pt x="164" y="640" on="1"/>
        <pt x="180" y="518" on="0"/>
        <pt x="224" y="370" on="1"/>
        <pt x="270" y="526" on="0"/>
        <pt x="284" y="640" on="1"/>
        <pt x="332" y="640" on="1"/>
        <pt x="311" y="481" on="0"/>
        <pt x="245" y="320" on="1"/>
        <pt x="203" y="320" on="1"/>
      </contour>
    </TTGlyph>
    <TTGlyph name="W" xMin="44" yMin="0" xMax="404" yMax="640">
      <contour>
        <pt x="80" y="155" on="0"/>
        <pt x="46" y="448" on="0"/>
        <pt x="44" y="640" on="1"/>
        <pt x="92" y="640" on="1"/>
        <pt x="93" y="474" on="0"/>
        <pt x="120" y="210" on="0"/>
        <pt x="147" y="66" on="1"/>
        <pt x="175" y="171" on="0"/>
        <pt x="203" y="354" on="0"/>
        <pt x="203" y="448" on="1"/>
        <pt x="246" y="448" on="1"/>
        <pt x="246" y="355" on="0"/>
        <pt x="274" y="173" on="0"/>
        <pt x="302" y="68" on="1"/>
        <pt x="329" y="213" on="0"/>
        <pt x="355" y="475" on="0"/>
        <pt x="356" y="640" on="1"/>
        <pt x="404" y="640" on="1"/>
        <pt x="402" y="448" on="0"/>
        <pt x="368" y="155" on="0"/>
        <pt x="328" y="0" on="1"/>
        <pt x="281" y="0" on="1"/>
        <pt x="259" y="71" on="0"/>
        <pt x="233" y="187" on="0"/>
        <pt x="225" y="251" on="1"/>
        <pt x="217" y="187" on="0"/>
        <pt x="189" y="71" on="0"/>
        <pt x="168" y="0" on="1"/>
        <pt x="120" y="0" on="1"/>
      </contour>
    </TTGlyph>
    <TTGlyph name="W.short" xMin="44" yMin="0" xMax="404" yMax="576">
      <contour>
        <pt x="80" y="139" on="0"/>
        <pt x="46" y="403" on="0"/>
        <pt x="44" y="576" on="1"/>
        <pt x="92" y="576" on="1"/>
        <pt x="93" y="428" on="0"/>
        <pt x="119" y="193" on="0"/>
        <pt x="146" y="63" on="1"/>
        <pt x="175" y="169" on="0"/>
        <pt x="203" y="353" on="0"/>
        <pt x="203" y="448" on="1"/>
        <pt x="246" y="448" on="1"/>
        <pt x="246" y="354" on="0"/>
        <pt x="275" y="170" on="0"/>
        <pt x="303" y="65" on="1"/>
        <pt x="329" y="195" on="0"/>
        <pt x="355" y="429" on="0"/>
        <pt x="356" y="576" on="1"/>
        <pt x="404" y="576" on="1"/>
        <pt x="402" y="403" on="0"/>
        <pt x="368" y="139" on="0"/>
        <pt x="328" y="0" on="1"/>
        <pt x="281" y="0" on="1"/>
        <pt x="259" y="71" on="0"/>
        <pt x="233" y="187" on="0"/>
        <pt x="225" y="251" on="1"/>
        <pt x="217" y="187" on="0"/>
        <pt x="189" y="71" on="0"/>
        <pt x="168" y="0" on="1"/>
        <pt x="120" y="0" on="1"/>
      </contour>
    </TTGlyph>
    <TTGlyph name="W.sups" xMin="114" yMin="320" xMax="334" yMax="640">
      <contour>
        <pt x="133" y="402" on="0"/>
        <pt x="115" y="548" on="0"/>
        <pt x="114" y="640" on="1"/>
        <pt x="156" y="640" on="1"/>
        <pt x="157" y="552" on="0"/>
        <pt x="166" y="423" on="0"/>
        <pt x="178" y="358" on="1"/>
        <pt x="196" y="446" on="0"/>
        <pt x="201" y="549" on="1"/>
        <pt x="247" y="549" on="1"/>
        <pt x="252" y="446" on="0"/>
        <pt x="270" y="358" on="1"/>
        <pt x="282" y="423" on="0"/>
        <pt x="291" y="552" on="0"/>
        <pt x="292" y="640" on="1"/>
        <pt x="334" y="640" on="1"/>
        <pt x="333" y="548" on="0"/>
        <pt x="315" y="402" on="0"/>
        <pt x="296" y="320" on="1"/>
        <pt x="247" y="320" on="1"/>
        <pt x="231" y="377" on="0"/>
        <pt x="224" y="446" on="1"/>
        <pt x="217" y="377" on="0"/>
        <pt x="201" y="320" on="1"/>
        <pt x="152" y="320" on="1"/>
      </contour>
    </TTGlyph>
    <TTGlyph name="Wacute" xMin="44" yMin="0" xMax="404" yMax="832">
      <component glyphName="W" x="0" y="0" flags="0x400"/>
      <component glyphName="acutecomb.case" x="0" y="0" flags="0x400"/>
    </TTGlyph>
    <TTGlyph name="Wcircumflex" xMin="44" yMin="0" xMax="404" yMax="842">
      <component glyphName="W" x="0" y="0" flags="0x400"/>
      <component glyphName="uni0302.case" x="0" y="0" flags="0x400"/>
    </TTGlyph>
    <TTGlyph name="Wdieresis" xMin="44" yMin="0" xMax="404" yMax="810">
      <component glyphName="W" x="0" y="0" flags="0x400"/>
      <component glyphName="uni0308.case" x="0" y="0" flags="0x400"/>
    </TTGlyph>
    <TTGlyph name="Wgrave" xMin="44" yMin="0" xMax="404" yMax="832">
      <component glyphName="W" x="0" y="0" flags="0x400"/>
      <component glyphName="gravecomb.case" x="0" y="0" flags="0x400"/>
    </TTGlyph>
    <TTGlyph name="X" xMin="53" yMin="0" xMax="394" yMax="640">
      <contour>
        <pt x="73" y="98" on="0"/>
        <pt x="131" y="231" on="0"/>
        <pt x="190" y="302" on="1"/>
        <pt x="128" y="370" on="0"/>
        <pt x="74" y="514" on="0"/>
        <pt x="62" y="640" on="1"/>
        <pt x="110" y="640" on="1"/>
        <pt x="118" y="554" on="0"/>
        <pt x="144" y="448" on="0"/>
        <pt x="189" y="371" on="0"/>
        <pt x="229" y="327" on="1"/>
        <pt x="279" y="382" on="0"/>
        <pt x="327" y="520" on="0"/>
        <pt x="338" y="640" on="1"/>
        <pt x="386" y="640" on="1"/>
        <pt x="374" y="517" on="0"/>
        <pt x="317" y="363" on="0"/>
        <pt x="257" y="296" on="1"/>
        <pt x="318" y="230" on="0"/>
        <pt x="374" y="103" on="0"/>
        <pt x="394" y="0" on="1"/>
        <pt x="344" y="0" on="1"/>
        <pt x="325" y="100" on="0"/>
        <pt x="274" y="210" on="0"/>
        <pt x="219" y="271" on="1"/>
        <pt x="172" y="212" on="0"/>
        <pt x="123" y="96" on="0"/>
        <pt x="103" y="0" on="1"/>
        <pt x="53" y="0" on="1"/>
      </contour>
    </TTGlyph>
    <TTGlyph name="X.sups" xMin="122" yMin="320" xMax="325" yMax="640">
      <contour>
        <pt x="132" y="369" on="0"/>
        <pt x="163" y="435" on="0"/>
        <pt x="192" y="469" on="1"/>
        <pt x="162" y="503" on="0"/>
        <pt x="133" y="580" on="0"/>
        <pt x="128" y="640" on="1"/>
        <pt x="172" y="640" on="1"/>
        <pt x="178" y="586" on="0"/>
        <pt x="202" y="523" on="0"/>
        <pt x="226" y="498" on="1"/>
        <pt x="250" y="523" on="0"/>
        <pt x="271" y="584" on="0"/>
        <pt x="276" y="640" on="1"/>
        <pt x="320" y="640" on="1"/>
        <pt x="315" y="579" on="0"/>
        <pt x="286" y="502" on="0"/>
        <pt x="255" y="470" on="1"/>
        <pt x="287" y="436" on="0"/>
        <pt x="315" y="371" on="0"/>
        <pt x="325" y="320" on="1"/>
        <pt x="279" y="320" on="1"/>
        <pt x="270" y="365" on="0"/>
        <pt x="245" y="416" on="0"/>
        <pt x="220" y="441" on="1"/>
        <pt x="198" y="414" on="0"/>
        <pt x="176" y="362" on="0"/>
        <pt x="168" y="320" on="1"/>
        <pt x="122" y="320" on="1"/>
      </contour>
    </TTGlyph>
    <TTGlyph name="Xi" xMin="50" yMin="0" xMax="398" yMax="640">
      <contour>
        <pt x="393" y="640" on="1"/>
        <pt x="393" y="596" on="1"/>
        <pt x="55" y="596" on="1"/>
        <pt x="55" y="640" on="1"/>
      </contour>
      <contour>
        <pt x="50" y="44" on="1"/>
        <pt x="398" y="44" on="1"/>
        <pt x="398" y="0" on="1"/>
        <pt x="50" y="0" on="1"/>
      </contour>
      <contour>
        <pt x="104" y="310" on="1"/>
        <pt x="344" y="310" on="1"/>
        <pt x="344" y="266" on="1"/>
        <pt x="104" y="266" on="1"/>
      </contour>
    </TTGlyph>
    <TTGlyph name="Y" xMin="42" yMin="0" xMax="406" yMax="640">
      <contour>
        <pt x="200" y="202" on="1"/>
        <pt x="136" y="285" on="0"/>
        <pt x="58" y="498" on="0"/>
        <pt x="42" y="640" on="1"/>
        <pt x="90" y="640" on="1"/>
        <pt x="106" y="514" on="0"/>
        <pt x="168" y="324" on="0"/>
        <pt x="224" y="232" on="1"/>
        <pt x="280" y="324" on="0"/>
        <pt x="342" y="514" on="0"/>
        <pt x="358" y="640" on="1"/>
        <pt x="406" y="640" on="1"/>
        <pt x="390" y="498" on="0"/>
        <pt x="312" y="285" on="0"/>
        <pt x="248" y="202" on="1"/>
        <pt x="248" y="0" on="1"/>
        <pt x="200" y="0" on="1"/>
      </contour>
    </TTGlyph>
    <TTGlyph name="Y.short" xMin="42" yMin="0" xMax="406" yMax="576">
      <contour>
        <pt x="200" y="170" on="1"/>
        <pt x="136" y="247" on="0"/>
        <pt x="58" y="444" on="0"/>
        <pt x="42" y="576" on="1"/>
        <pt x="90" y="576" on="1"/>
        <pt x="106" y="459" on="0"/>
        <pt x="168" y="283" on="0"/>
        <pt x="224" y="198" on="1"/>
        <pt x="280" y="283" on="0"/>
        <pt x="342" y="459" on="0"/>
        <pt x="358" y="576" on="1"/>
        <pt x="406" y="576" on="1"/>
        <pt x="390" y="444" on="0"/>
        <pt x="312" y="247" on="0"/>
        <pt x="248" y="170" on="1"/>
        <pt x="248" y="0" on="1"/>
        <pt x="200" y="0" on="1"/>
      </contour>
    </TTGlyph>
    <TTGlyph name="Y.sups" xMin="125" yMin="314" xMax="322" yMax="640">
      <contour>
        <pt x="210" y="364" on="0"/>
        <pt x="254" y="405" on="0"/>
        <pt x="265" y="444" on="1"/>
        <pt x="210" y="449" on="0"/>
        <pt x="155" y="492" on="0"/>
        <pt x="132" y="568" on="0"/>
        <pt x="125" y="640" on="1"/>
        <pt x="171" y="640" on="1"/>
        <pt x="177" y="576" on="0"/>
        <pt x="195" y="515" on="0"/>
        <pt x="234" y="489" on="0"/>
        <pt x="273" y="484" on="1"/>
        <pt x="278" y="530" on="0"/>
        <pt x="278" y="640" on="1"/>
        <pt x="322" y="640" on="1"/>
        <pt x="322" y="547" on="0"/>
        <pt x="316" y="464" on="0"/>
        <pt x="307" y="431" on="1"/>
        <pt x="292" y="381" on="0"/>
        <pt x="226" y="323" on="0"/>
        <pt x="168" y="314" on="1"/>
        <pt x="161" y="354" on="1"/>
      </contour>
    </TTGlyph>
    <TTGlyph name="Yacute" xMin="42" yMin="0" xMax="406" yMax="832">
      <component glyphName="Y" x="0" y="0" flags="0x400"/>
      <component glyphName="acutecomb.case" x="0" y="0" flags="0x400"/>
    </TTGlyph>
    <TTGlyph name="Ycircumflex" xMin="42" yMin="0" xMax="406" yMax="842">
      <component glyphName="Y" x="0" y="0" flags="0x400"/>
      <component glyphName="uni0302.case" x="0" y="0" flags="0x400"/>
    </TTGlyph>
    <TTGlyph name="Ydieresis" xMin="42" yMin="0" xMax="406" yMax="810">
      <component glyphName="Y" x="0" y="0" flags="0x400"/>
      <component glyphName="uni0308.case" x="0" y="0" flags="0x400"/>
    </TTGlyph>
    <TTGlyph name="Ygrave" xMin="42" yMin="0" xMax="406" yMax="832">
      <component glyphName="Y" x="0" y="0" flags="0x400"/>
      <component glyphName="gravecomb.case" x="0" y="0" flags="0x400"/>
    </TTGlyph>
    <TTGlyph name="Z" xMin="61" yMin="0" xMax="382" yMax="640">
      <contour>
        <pt x="61" y="37" on="1"/>
        <pt x="326" y="596" on="1"/>
        <pt x="73" y="596" on="1"/>
        <pt x="73" y="640" on="1"/>
        <pt x="382" y="640" on="1"/>
        <pt x="382" y="603" on="1"/>
        <pt x="117" y="44" on="1"/>
        <pt x="382" y="44" on="1"/>
        <pt x="382" y="0" on="1"/>
        <pt x="61" y="0" on="1"/>
      </contour>
    </TTGlyph>
    <TTGlyph name="Z.sups" xMin="132" yMin="320" xMax="307" yMax="640">
      <contour>
        <pt x="132" y="355" on="1"/>
        <pt x="255" y="600" on="1"/>
        <pt x="136" y="600" on="1"/>
        <pt x="136" y="640" on="1"/>
        <pt x="307" y="640" on="1"/>
        <pt x="307" y="605" on="1"/>
        <pt x="185" y="360" on="1"/>
        <pt x="307" y="360" on="1"/>
        <pt x="307" y="320" on="1"/>
        <pt x="132" y="320" on="1"/>
      </contour>
    </TTGlyph>
    <TTGlyph name="Zacute" xMin="61" yMin="0" xMax="382" yMax="832">
      <component glyphName="Z" x="0" y="0" flags="0x400"/>
      <component glyphName="acutecomb.case" x="0" y="0" flags="0x400"/>
    </TTGlyph>
    <TTGlyph name="Zcaron" xMin="61" yMin="0" xMax="382" yMax="840">
      <component glyphName="Z" x="0" y="0" flags="0x400"/>
      <component glyphName="uni030C.case" x="0" y="0" flags="0x400"/>
    </TTGlyph>
    <TTGlyph name="Zdotaccent" xMin="61" yMin="0" xMax="382" yMax="837">
      <component glyphName="Z" x="0" y="0" flags="0x400"/>
      <component glyphName="uni0307" x="0" y="192" flags="0x404"/>
    </TTGlyph>
    <TTGlyph name="Zeta" xMin="61" yMin="0" xMax="382" yMax="640">
      <component glyphName="Z" x="0" y="0" flags="0x400"/>
    </TTGlyph>
    <TTGlyph name="_part.slash.O" xMin="45" yMin="-7" xMax="403" yMax="649">
      <contour>
        <pt x="403" y="629" on="1"/>
        <pt x="85" y="-7" on="1"/>
        <pt x="45" y="13" on="1"/>
        <pt x="363" y="649" on="1"/>
      </contour>
    </TTGlyph>
    <TTGlyph name="_part.slash.comp" xMin="87" yMin="162" xMax="361" yMax="376">
      <contour>
        <pt x="337" y="376" on="1"/>
        <pt x="361" y="340" on="1"/>
        <pt x="111" y="162" on="1"/>
        <pt x="87" y="198" on="1"/>
      </contour>
    </TTGlyph>
    <TTGlyph name="_part.slash.o" xMin="66" yMin="-14" xMax="384" yMax="466">
      <contour>
        <pt x="384" y="443" on="1"/>
        <pt x="103" y="-14" on="1"/>
        <pt x="66" y="9" on="1"/>
        <pt x="347" y="466" on="1"/>
      </contour>
    </TTGlyph>
    <TTGlyph name="a" xMin="50" yMin="-4" xMax="370" yMax="452">
      <contour>
        <pt x="320" y="360" on="0"/>
        <pt x="275" y="407" on="0"/>
        <pt x="222" y="407" on="1"/>
        <pt x="163" y="407" on="0"/>
        <pt x="82" y="379" on="1"/>
        <pt x="70" y="417" on="1"/>
        <pt x="153" y="452" on="0"/>
        <pt x="226" y="452" on="1"/>
        <pt x="368" y="452" on="0"/>
        <pt x="368" y="312" on="1"/>
        <pt x="368" y="78" on="1"/>
        <pt x="370" y="0" on="1"/>
        <pt x="326" y="0" on="1"/>
        <pt x="322" y="59" on="1"/>
        <pt x="279" y="28" on="0"/>
        <pt x="212" y="-4" on="0"/>
        <pt x="172" y="-4" on="1"/>
        <pt x="121" y="-4" on="0"/>
        <pt x="50" y="57" on="0"/>
        <pt x="50" y="113" on="1"/>
        <pt x="50" y="181" on="0"/>
        <pt x="183" y="256" on="0"/>
        <pt x="320" y="258" on="1"/>
        <pt x="320" y="298" on="1"/>
      </contour>
      <contour>
        <pt x="102" y="81" on="0"/>
        <pt x="140" y="41" on="0"/>
        <pt x="174" y="41" on="1"/>
        <pt x="211" y="41" on="0"/>
        <pt x="275" y="71" on="0"/>
        <pt x="320" y="104" on="1"/>
        <pt x="320" y="217" on="1"/>
        <pt x="205" y="216" on="0"/>
        <pt x="102" y="164" on="0"/>
        <pt x="102" y="115" on="1"/>
      </contour>
    </TTGlyph>
    <TTGlyph name="aacute" xMin="50" yMin="-4" xMax="370" yMax="704">
      <component glyphName="a" x="0" y="0" flags="0x400"/>
      <component glyphName="acutecomb" x="0" y="0" flags="0x400"/>
    </TTGlyph>
    <TTGlyph name="abreve" xMin="50" yMin="-4" xMax="370" yMax="638">
      <component glyphName="a" x="0" y="0" flags="0x400"/>
      <component glyphName="uni0306" x="0" y="0" flags="0x400"/>
    </TTGlyph>
    <TTGlyph name="acircumflex" xMin="50" yMin="-4" xMax="370" yMax="650">
      <component glyphName="a" x="0" y="0" flags="0x400"/>
      <component glyphName="uni0302" x="0" y="0" flags="0x400"/>
    </TTGlyph>
    <TTGlyph name="acute" xMin="159" yMin="384" xMax="303" yMax="640">
      <contour>
        <pt x="159" y="384" on="1"/>
        <pt x="224" y="640" on="1"/>
        <pt x="303" y="640" on="1"/>
        <pt x="211" y="384" on="1"/>
      </contour>
    </TTGlyph>
    <TTGlyph name="acutecomb" xMin="201" yMin="512" xMax="319" yMax="704">
      <contour>
        <pt x="258" y="704" on="1"/>
        <pt x="319" y="704" on="1"/>
        <pt x="247" y="512" on="1"/>
        <pt x="201" y="512" on="1"/>
      </contour>
    </TTGlyph>
    <TTGlyph name="acutecomb.alt" xMin="201" yMin="514" xMax="319" yMax="648">
      <contour>
        <pt x="258" y="648" on="1"/>
        <pt x="319" y="648" on="1"/>
        <pt x="247" y="514" on="1"/>
        <pt x="201" y="514" on="1"/>
      </contour>
    </TTGlyph>
    <TTGlyph name="acutecomb.case" xMin="201" yMin="706" xMax="316" yMax="832">
      <contour>
        <pt x="255" y="832" on="1"/>
        <pt x="316" y="832" on="1"/>
        <pt x="247" y="706" on="1"/>
        <pt x="201" y="706" on="1"/>
      </contour>
    </TTGlyph>
    <TTGlyph name="adieresis" xMin="50" yMin="-4" xMax="370" yMax="642">
      <component glyphName="a" x="0" y="0" flags="0x400"/>
      <component glyphName="uni0308" x="0" y="0" flags="0x400"/>
    </TTGlyph>
    <TTGlyph name="ae" xMin="-8" yMin="-9" xMax="456" yMax="455">
      <contour>
        <pt x="300" y="-9" on="0"/>
        <pt x="243" y="25" on="0"/>
        <pt x="226" y="55" on="1"/>
        <pt x="165" y="-8" on="0"/>
        <pt x="103" y="-8" on="1"/>
        <pt x="52" y="-8" on="0"/>
        <pt x="-8" y="53" on="0"/>
        <pt x="-8" y="113" on="1"/>
        <pt x="-8" y="180" on="0"/>
        <pt x="85" y="253" on="0"/>
        <pt x="193" y="257" on="1"/>
        <pt x="193" y="298" on="1"/>
        <pt x="193" y="358" on="0"/>
        <pt x="160" y="410" on="0"/>
        <pt x="122" y="410" on="1"/>
        <pt x="75" y="410" on="0"/>
        <pt x="17" y="385" on="1"/>
        <pt x="5" y="424" on="1"/>
        <pt x="69" y="455" on="0"/>
        <pt x="124" y="455" on="1"/>
        <pt x="163" y="455" on="0"/>
        <pt x="217" y="422" on="0"/>
        <pt x="228" y="389" on="1"/>
        <pt x="243" y="422" on="0"/>
        <pt x="292" y="455" on="0"/>
        <pt x="329" y="455" on="1"/>
        <pt x="388" y="455" on="0"/>
        <pt x="456" y="345" on="0"/>
        <pt x="456" y="245" on="1"/>
        <pt x="456" y="224" on="0"/>
        <pt x="455" y="213" on="1"/>
        <pt x="244" y="213" on="1"/>
        <pt x="244" y="126" on="0"/>
        <pt x="291" y="33" on="0"/>
        <pt x="349" y="33" on="1"/>
        <pt x="386" y="33" on="0"/>
        <pt x="432" y="51" on="1"/>
        <pt x="441" y="14" on="1"/>
        <pt x="393" y="-9" on="0"/>
        <pt x="340" y="-9" on="1"/>
      </contour>
      <contour>
        <pt x="44" y="75" on="0"/>
        <pt x="78" y="36" on="0"/>
        <pt x="106" y="36" on="1"/>
        <pt x="133" y="36" on="0"/>
        <pt x="181" y="65" on="0"/>
        <pt x="209" y="94" on="1"/>
        <pt x="193" y="141" on="0"/>
        <pt x="193" y="214" on="1"/>
        <pt x="111" y="210" on="0"/>
        <pt x="44" y="161" on="0"/>
        <pt x="44" y="115" on="1"/>
      </contour>
      <contour>
        <pt x="405" y="257" on="1"/>
        <pt x="405" y="328" on="0"/>
        <pt x="367" y="411" on="0"/>
        <pt x="326" y="411" on="1"/>
        <pt x="285" y="411" on="0"/>
        <pt x="248" y="333" on="0"/>
        <pt x="245" y="257" on="1"/>
      </contour>
    </TTGlyph>
    <TTGlyph name="aeacute" xMin="-8" yMin="-9" xMax="456" yMax="704">
      <component glyphName="ae" x="0" y="0" flags="0x400"/>
      <component glyphName="acutecomb" x="0" y="0" flags="0x400"/>
    </TTGlyph>
    <TTGlyph name="agrave" xMin="50" yMin="-4" xMax="370" yMax="704">
      <component glyphName="a" x="0" y="0" flags="0x400"/>
      <component glyphName="gravecomb" x="0" y="0" flags="0x400"/>
    </TTGlyph>
    <TTGlyph name="alpha" xMin="48" yMin="-8" xMax="423" yMax="456">
      <contour>
        <pt x="359" y="-6" on="0"/>
        <pt x="329" y="14" on="0"/>
        <pt x="323" y="31" on="1"/>
        <pt x="276" y="-8" on="0"/>
        <pt x="214" y="-8" on="1"/>
        <pt x="148" y="-8" on="0"/>
        <pt x="107" y="33" on="1"/>
        <pt x="48" y="92" on="0"/>
        <pt x="48" y="224" on="1"/>
        <pt x="48" y="357" on="0"/>
        <pt x="105" y="414" on="1"/>
        <pt x="147" y="456" on="0"/>
        <pt x="213" y="456" on="1"/>
        <pt x="271" y="456" on="0"/>
        <pt x="319" y="421" on="1"/>
        <pt x="322" y="448" on="1"/>
        <pt x="366" y="448" on="1"/>
        <pt x="364" y="385" on="1"/>
        <pt x="364" y="66" on="1"/>
        <pt x="364" y="36" on="0"/>
        <pt x="396" y="36" on="1"/>
        <pt x="405" y="36" on="0"/>
        <pt x="419" y="38" on="1"/>
        <pt x="423" y="0" on="1"/>
        <pt x="402" y="-6" on="0"/>
        <pt x="381" y="-6" on="1"/>
      </contour>
      <contour>
        <pt x="100" y="104" on="0"/>
        <pt x="143" y="61" on="1"/>
        <pt x="170" y="34" on="0"/>
        <pt x="216" y="34" on="1"/>
        <pt x="272" y="34" on="0"/>
        <pt x="316" y="67" on="1"/>
        <pt x="316" y="381" on="1"/>
        <pt x="272" y="414" on="0"/>
        <pt x="215" y="414" on="1"/>
        <pt x="168" y="414" on="0"/>
        <pt x="141" y="387" on="1"/>
        <pt x="100" y="346" on="0"/>
        <pt x="100" y="224" on="1"/>
      </contour>
    </TTGlyph>
    <TTGlyph name="alphatonos" xMin="48" yMin="-8" xMax="423" yMax="704">
      <component glyphName="alpha" x="0" y="0" flags="0x400"/>
      <component glyphName="tonos" x="0" y="0" flags="0x400"/>
    </TTGlyph>
    <TTGlyph name="amacron" xMin="50" yMin="-4" xMax="370" yMax="620">
      <component glyphName="a" x="0" y="0" flags="0x400"/>
      <component glyphName="uni0304" x="0" y="0" flags="0x400"/>
    </TTGlyph>
    <TTGlyph name="ampersand" xMin="41" yMin="-10" xMax="422" yMax="542">
      <contour>
        <pt x="256" y="498" on="0"/>
        <pt x="207" y="498" on="1"/>
        <pt x="153" y="498" on="0"/>
        <pt x="104" y="446" on="0"/>
        <pt x="104" y="404" on="1"/>
        <pt x="104" y="362" on="0"/>
        <pt x="154" y="310" on="0"/>
        <pt x="212" y="310" on="1"/>
        <pt x="422" y="310" on="1"/>
        <pt x="422" y="266" on="1"/>
        <pt x="362" y="266" on="1"/>
        <pt x="362" y="18" on="1"/>
        <pt x="325" y="5" on="0"/>
        <pt x="242" y="-10" on="0"/>
        <pt x="208" y="-10" on="1"/>
        <pt x="121" y="-10" on="0"/>
        <pt x="41" y="76" on="0"/>
        <pt x="41" y="143" on="1"/>
        <pt x="41" y="187" on="0"/>
        <pt x="87" y="265" on="0"/>
        <pt x="141" y="288" on="1"/>
        <pt x="98" y="303" on="0"/>
        <pt x="56" y="364" on="0"/>
        <pt x="56" y="404" on="1"/>
        <pt x="56" y="466" on="0"/>
        <pt x="137" y="542" on="0"/>
        <pt x="214" y="542" on="1"/>
        <pt x="264" y="542" on="0"/>
        <pt x="313" y="531" on="1"/>
        <pt x="306" y="490" on="1"/>
      </contour>
      <contour>
        <pt x="90" y="94" on="0"/>
        <pt x="141" y="34" on="0"/>
        <pt x="201" y="34" on="1"/>
        <pt x="263" y="34" on="0"/>
        <pt x="314" y="47" on="1"/>
        <pt x="314" y="266" on="1"/>
        <pt x="225" y="266" on="1"/>
        <pt x="153" y="266" on="0"/>
        <pt x="90" y="194" on="0"/>
        <pt x="90" y="141" on="1"/>
      </contour>
    </TTGlyph>
    <TTGlyph name="angle" xMin="70" yMin="76" xMax="380" yMax="509">
      <contour>
        <pt x="70" y="76" on="1"/>
        <pt x="70" y="120" on="1"/>
        <pt x="265" y="509" on="1"/>
        <pt x="303" y="491" on="1"/>
        <pt x="116" y="116" on="1"/>
        <pt x="380" y="116" on="1"/>
        <pt x="380" y="76" on="1"/>
      </contour>
    </TTGlyph>
    <TTGlyph name="anoteleia" xMin="172" yMin="354" xMax="276" yMax="458">
      <component glyphName="period" x="32" y="364" flags="0x404"/>
    </TTGlyph>
    <TTGlyph name="aogonek" xMin="50" yMin="-197" xMax="391" yMax="452">
      <component glyphName="a" x="0" y="0" flags="0x400"/>
      <component glyphName="uni0328" x="-4" y="0" flags="0x400"/>
    </TTGlyph>
    <TTGlyph name="approxequal" xMin="36" yMin="156" xMax="412" yMax="420">
      <contour>
        <pt x="285" y="156" on="0"/>
        <pt x="239" y="176" on="0"/>
        <pt x="209" y="196" on="1"/>
        <pt x="185" y="212" on="0"/>
        <pt x="152" y="228" on="0"/>
        <pt x="133" y="228" on="1"/>
        <pt x="107" y="228" on="0"/>
        <pt x="80" y="195" on="0"/>
        <pt x="74" y="159" on="1"/>
        <pt x="36" y="163" on="1"/>
        <pt x="51" y="268" on="0"/>
        <pt x="133" y="268" on="1"/>
        <pt x="163" y="268" on="0"/>
        <pt x="209" y="248" on="0"/>
        <pt x="239" y="228" on="1"/>
        <pt x="263" y="212" on="0"/>
        <pt x="296" y="196" on="0"/>
        <pt x="315" y="196" on="1"/>
        <pt x="341" y="196" on="0"/>
        <pt x="368" y="229" on="0"/>
        <pt x="374" y="265" on="1"/>
        <pt x="412" y="261" on="1"/>
        <pt x="397" y="156" on="0"/>
        <pt x="315" y="156" on="1"/>
      </contour>
      <contour>
        <pt x="51" y="420" on="0"/>
        <pt x="133" y="420" on="1"/>
        <pt x="163" y="420" on="0"/>
        <pt x="209" y="400" on="0"/>
        <pt x="239" y="380" on="1"/>
        <pt x="263" y="364" on="0"/>
        <pt x="296" y="348" on="0"/>
        <pt x="315" y="348" on="1"/>
        <pt x="341" y="348" on="0"/>
        <pt x="368" y="381" on="0"/>
        <pt x="374" y="417" on="1"/>
        <pt x="412" y="413" on="1"/>
        <pt x="397" y="308" on="0"/>
        <pt x="315" y="308" on="1"/>
        <pt x="285" y="308" on="0"/>
        <pt x="239" y="328" on="0"/>
        <pt x="209" y="348" on="1"/>
        <pt x="185" y="364" on="0"/>
        <pt x="152" y="380" on="0"/>
        <pt x="133" y="380" on="1"/>
        <pt x="107" y="380" on="0"/>
        <pt x="80" y="347" on="0"/>
        <pt x="74" y="311" on="1"/>
        <pt x="36" y="315" on="1"/>
      </contour>
    </TTGlyph>
    <TTGlyph name="aring" xMin="50" yMin="-4" xMax="370" yMax="687">
      <component glyphName="a" x="0" y="0" flags="0x400"/>
      <component glyphName="uni030A" x="0" y="0" flags="0x400"/>
    </TTGlyph>
    <TTGlyph name="aringacute" xMin="50" yMin="-4" xMax="370" yMax="872">
      <component glyphName="a" x="0" y="0" flags="0x400"/>
      <component glyphName="uni030A" x="0" y="0" flags="0x400"/>
      <component glyphName="acutecomb.alt" x="0" y="224" flags="0x404"/>
    </TTGlyph>
    <TTGlyph name="arrowboth" xMin="-4" yMin="118" xMax="454" yMax="458">
      <contour>
        <pt x="200" y="146" on="1"/>
        <pt x="175" y="118" on="1"/>
        <pt x="-4" y="273" on="1"/>
        <pt x="-4" y="303" on="1"/>
        <pt x="175" y="458" on="1"/>
        <pt x="200" y="430" on="1"/>
        <pt x="69" y="311" on="1"/>
        <pt x="381" y="311" on="1"/>
        <pt x="250" y="430" on="1"/>
        <pt x="275" y="458" on="1"/>
        <pt x="454" y="303" on="1"/>
        <pt x="454" y="273" on="1"/>
        <pt x="275" y="118" on="1"/>
        <pt x="250" y="146" on="1"/>
        <pt x="381" y="265" on="1"/>
        <pt x="69" y="265" on="1"/>
      </contour>
    </TTGlyph>
    <TTGlyph name="arrowdown" xMin="54" yMin="54" xMax="394" yMax="512">
      <contour>
        <pt x="247" y="127" on="1"/>
        <pt x="366" y="258" on="1"/>
        <pt x="394" y="233" on="1"/>
        <pt x="239" y="54" on="1"/>
        <pt x="209" y="54" on="1"/>
        <pt x="54" y="233" on="1"/>
        <pt x="82" y="258" on="1"/>
        <pt x="201" y="127" on="1"/>
        <pt x="201" y="512" on="1"/>
        <pt x="247" y="512" on="1"/>
      </contour>
    </TTGlyph>
    <TTGlyph name="arrowleft" xMin="-10" yMin="118" xMax="448" yMax="458">
      <contour>
        <pt x="63" y="265" on="1"/>
        <pt x="194" y="146" on="1"/>
        <pt x="169" y="118" on="1"/>
        <pt x="-10" y="273" on="1"/>
        <pt x="-10" y="303" on="1"/>
        <pt x="169" y="458" on="1"/>
        <pt x="194" y="430" on="1"/>
        <pt x="63" y="311" on="1"/>
        <pt x="448" y="311" on="1"/>
        <pt x="448" y="265" on="1"/>
      </contour>
    </TTGlyph>
    <TTGlyph name="arrowright" xMin="0" yMin="118" xMax="458" yMax="458">
      <contour>
        <pt x="385" y="311" on="1"/>
        <pt x="254" y="430" on="1"/>
        <pt x="279" y="458" on="1"/>
        <pt x="458" y="303" on="1"/>
        <pt x="458" y="273" on="1"/>
        <pt x="279" y="118" on="1"/>
        <pt x="254" y="146" on="1"/>
        <pt x="385" y="265" on="1"/>
        <pt x="0" y="265" on="1"/>
        <pt x="0" y="311" on="1"/>
      </contour>
    </TTGlyph>
    <TTGlyph name="arrowup" xMin="54" yMin="64" xMax="394" yMax="522">
      <contour>
        <pt x="201" y="449" on="1"/>
        <pt x="82" y="318" on="1"/>
        <pt x="54" y="343" on="1"/>
        <pt x="209" y="522" on="1"/>
        <pt x="239" y="522" on="1"/>
        <pt x="394" y="343" on="1"/>
        <pt x="366" y="318" on="1"/>
        <pt x="247" y="449" on="1"/>
        <pt x="247" y="64" on="1"/>
        <pt x="201" y="64" on="1"/>
      </contour>
    </TTGlyph>
    <TTGlyph name="arrowupdn" xMin="68" yMin="64" xMax="380" yMax="512">
      <contour>
        <pt x="97" y="319" on="1"/>
        <pt x="68" y="344" on="1"/>
        <pt x="207" y="512" on="1"/>
        <pt x="241" y="512" on="1"/>
        <pt x="380" y="344" on="1"/>
        <pt x="351" y="319" on="1"/>
        <pt x="246" y="441" on="1"/>
        <pt x="246" y="135" on="1"/>
        <pt x="351" y="257" on="1"/>
        <pt x="380" y="232" on="1"/>
        <pt x="241" y="64" on="1"/>
        <pt x="207" y="64" on="1"/>
        <pt x="68" y="232" on="1"/>
        <pt x="97" y="257" on="1"/>
        <pt x="202" y="135" on="1"/>
        <pt x="202" y="441" on="1"/>
      </contour>
    </TTGlyph>
    <TTGlyph name="arrowupdnbse" xMin="68" yMin="0" xMax="380" yMax="576">
      <contour>
        <pt x="74" y="44" on="1"/>
        <pt x="374" y="44" on="1"/>
        <pt x="374" y="0" on="1"/>
        <pt x="74" y="0" on="1"/>
      </contour>
      <contour>
        <pt x="97" y="321" on="1"/>
        <pt x="202" y="199" on="1"/>
        <pt x="202" y="505" on="1"/>
        <pt x="97" y="383" on="1"/>
        <pt x="68" y="408" on="1"/>
        <pt x="207" y="576" on="1"/>
        <pt x="241" y="576" on="1"/>
        <pt x="380" y="408" on="1"/>
        <pt x="351" y="383" on="1"/>
        <pt x="246" y="505" on="1"/>
        <pt x="246" y="199" on="1"/>
        <pt x="351" y="321" on="1"/>
        <pt x="380" y="296" on="1"/>
        <pt x="241" y="128" on="1"/>
        <pt x="207" y="128" on="1"/>
        <pt x="68" y="296" on="1"/>
      </contour>
    </TTGlyph>
    <TTGlyph name="asciicircum" xMin="54" yMin="192" xMax="394" yMax="566">
      <contour>
        <pt x="257" y="566" on="1"/>
        <pt x="394" y="192" on="1"/>
        <pt x="344" y="192" on="1"/>
        <pt x="224" y="522" on="1"/>
        <pt x="104" y="192" on="1"/>
        <pt x="54" y="192" on="1"/>
        <pt x="191" y="566" on="1"/>
      </contour>
    </TTGlyph>
    <TTGlyph name="asciitilde" xMin="-2" yMin="192" xMax="450" yMax="384">
      <contour>
        <pt x="292" y="192" on="0"/>
        <pt x="236" y="235" on="0"/>
        <pt x="204" y="275" on="1"/>
        <pt x="176" y="309" on="0"/>
        <pt x="138" y="340" on="0"/>
        <pt x="113" y="340" on="1"/>
        <pt x="76" y="340" on="0"/>
        <pt x="46" y="280" on="0"/>
        <pt x="40" y="209" on="1"/>
        <pt x="-2" y="212" on="1"/>
        <pt x="3" y="299" on="0"/>
        <pt x="57" y="384" on="0"/>
        <pt x="116" y="384" on="1"/>
        <pt x="157" y="384" on="0"/>
        <pt x="211" y="342" on="0"/>
        <pt x="244" y="301" on="1"/>
        <pt x="272" y="267" on="0"/>
        <pt x="310" y="236" on="0"/>
        <pt x="335" y="236" on="1"/>
        <pt x="372" y="236" on="0"/>
        <pt x="402" y="296" on="0"/>
        <pt x="408" y="367" on="1"/>
        <pt x="450" y="365" on="1"/>
        <pt x="445" y="278" on="0"/>
        <pt x="391" y="192" on="0"/>
        <pt x="334" y="192" on="1"/>
      </contour>
    </TTGlyph>
    <TTGlyph name="asterisk" xMin="50" yMin="80" xMax="398" yMax="496">
      <contour>
        <pt x="259" y="288" on="1"/>
        <pt x="398" y="173" on="1"/>
        <pt x="368" y="136" on="1"/>
        <pt x="246" y="239" on="1"/>
        <pt x="248" y="80" on="1"/>
        <pt x="200" y="80" on="1"/>
        <pt x="202" y="240" on="1"/>
        <pt x="80" y="136" on="1"/>
        <pt x="50" y="173" on="1"/>
        <pt x="189" y="288" on="1"/>
        <pt x="50" y="403" on="1"/>
        <pt x="80" y="440" on="1"/>
        <pt x="202" y="337" on="1"/>
        <pt x="200" y="496" on="1"/>
        <pt x="248" y="496" on="1"/>
        <pt x="246" y="336" on="1"/>
        <pt x="368" y="440" on="1"/>
        <pt x="398" y="403" on="1"/>
      </contour>
    </TTGlyph>
    <TTGlyph name="at" xMin="60" yMin="-128" xMax="376" yMax="586">
      <contour>
        <pt x="346" y="69" on="0"/>
        <pt x="301" y="69" on="1"/>
        <pt x="242" y="69" on="0"/>
        <pt x="176" y="148" on="0"/>
        <pt x="176" y="220" on="1"/>
        <pt x="176" y="289" on="0"/>
        <pt x="248" y="370" on="0"/>
        <pt x="328" y="380" on="1"/>
        <pt x="328" y="384" on="1"/>
        <pt x="328" y="464" on="0"/>
        <pt x="284" y="541" on="0"/>
        <pt x="231" y="541" on="1"/>
        <pt x="186" y="541" on="0"/>
        <pt x="133" y="477" on="0"/>
        <pt x="108" y="338" on="0"/>
        <pt x="108" y="223" on="1"/>
        <pt x="108" y="55" on="0"/>
        <pt x="177" y="-85" on="0"/>
        <pt x="247" y="-85" on="1"/>
        <pt x="284" y="-85" on="0"/>
        <pt x="322" y="-74" on="1"/>
        <pt x="332" y="-111" on="1"/>
        <pt x="311" y="-119" on="0"/>
        <pt x="263" y="-128" on="0"/>
        <pt x="244" y="-128" on="1"/>
        <pt x="178" y="-128" on="0"/>
        <pt x="97" y="-54" on="0"/>
        <pt x="60" y="99" on="0"/>
        <pt x="60" y="223" on="1"/>
        <pt x="60" y="410" on="0"/>
        <pt x="139" y="586" on="0"/>
        <pt x="233" y="586" on="1"/>
        <pt x="305" y="586" on="0"/>
        <pt x="376" y="478" on="0"/>
        <pt x="376" y="384" on="1"/>
        <pt x="376" y="79" on="1"/>
      </contour>
      <contour>
        <pt x="226" y="169" on="0"/>
        <pt x="261" y="113" on="0"/>
        <pt x="304" y="113" on="1"/>
        <pt x="310" y="113" on="0"/>
        <pt x="328" y="115" on="1"/>
        <pt x="328" y="337" on="1"/>
        <pt x="268" y="331" on="0"/>
        <pt x="226" y="276" on="0"/>
        <pt x="226" y="220" on="1"/>
      </contour>
    </TTGlyph>
    <TTGlyph name="atilde" xMin="50" yMin="-4" xMax="370" yMax="645">
      <component glyphName="a" x="0" y="0" flags="0x400"/>
      <component glyphName="tildecomb" x="0" y="0" flags="0x400"/>
    </TTGlyph>
    <TTGlyph name="b" xMin="64" yMin="-8" xMax="394" yMax="640">
      <contour>
        <pt x="66" y="63" on="1"/>
        <pt x="66" y="640" on="1"/>
        <pt x="114" y="640" on="1"/>
        <pt x="114" y="413" on="1"/>
        <pt x="139" y="434" on="0"/>
        <pt x="193" y="456" on="0"/>
        <pt x="228" y="456" on="1"/>
        <pt x="294" y="456" on="0"/>
        <pt x="335" y="415" on="1"/>
        <pt x="394" y="356" on="0"/>
        <pt x="394" y="224" on="1"/>
        <pt x="394" y="91" on="0"/>
        <pt x="337" y="34" on="1"/>
        <pt x="295" y="-8" on="0"/>
        <pt x="229" y="-8" on="1"/>
        <pt x="193" y="-8" on="0"/>
        <pt x="138" y="14" on="0"/>
        <pt x="113" y="36" on="1"/>
        <pt x="109" y="0" on="1"/>
        <pt x="64" y="0" on="1"/>
      </contour>
      <contour>
        <pt x="140" y="55" on="0"/>
        <pt x="193" y="34" on="0"/>
        <pt x="227" y="34" on="1"/>
        <pt x="274" y="34" on="0"/>
        <pt x="301" y="61" on="1"/>
        <pt x="342" y="102" on="0"/>
        <pt x="342" y="224" on="1"/>
        <pt x="342" y="344" on="0"/>
        <pt x="299" y="387" on="1"/>
        <pt x="272" y="414" on="0"/>
        <pt x="226" y="414" on="1"/>
        <pt x="193" y="414" on="0"/>
        <pt x="140" y="393" on="0"/>
        <pt x="114" y="372" on="1"/>
        <pt x="114" y="76" on="1"/>
      </contour>
    </TTGlyph>
    <TTGlyph name="backslash" xMin="130" yMin="-67" xMax="318" yMax="708">
      <contour>
        <pt x="270" y="-67" on="1"/>
        <pt x="130" y="700" on="1"/>
        <pt x="178" y="708" on="1"/>
        <pt x="318" y="-59" on="1"/>
      </contour>
    </TTGlyph>
    <TTGlyph name="bar" xMin="200" yMin="-64" xMax="248" yMax="704">
      <contour>
        <pt x="200" y="-64" on="1"/>
        <pt x="200" y="704" on="1"/>
        <pt x="248" y="704" on="1"/>
        <pt x="248" y="-64" on="1"/>
      </contour>
    </TTGlyph>
    <TTGlyph name="beta" xMin="66" yMin="-192" xMax="402" yMax="648">
      <contour>
        <pt x="66" y="558" on="0"/>
        <pt x="152" y="648" on="0"/>
        <pt x="221" y="648" on="1"/>
        <pt x="297" y="648" on="0"/>
        <pt x="373" y="557" on="0"/>
        <pt x="373" y="491" on="1"/>
        <pt x="373" y="443" on="0"/>
        <pt x="323" y="371" on="0"/>
        <pt x="278" y="355" on="1"/>
        <pt x="346" y="339" on="0"/>
        <pt x="402" y="245" on="0"/>
        <pt x="402" y="176" on="1"/>
        <pt x="402" y="95" on="0"/>
        <pt x="317" y="-6" on="0"/>
        <pt x="234" y="-6" on="1"/>
        <pt x="167" y="-6" on="0"/>
        <pt x="114" y="36" on="1"/>
        <pt x="114" y="-192" on="1"/>
        <pt x="66" y="-192" on="1"/>
        <pt x="66" y="477" on="1"/>
      </contour>
      <contour>
        <pt x="163" y="38" on="0"/>
        <pt x="233" y="38" on="1"/>
        <pt x="294" y="38" on="0"/>
        <pt x="350" y="105" on="0"/>
        <pt x="350" y="178" on="1"/>
        <pt x="350" y="253" on="0"/>
        <pt x="283" y="330" on="0"/>
        <pt x="205" y="330" on="1"/>
        <pt x="169" y="330" on="1"/>
        <pt x="169" y="374" on="1"/>
        <pt x="205" y="374" on="1"/>
        <pt x="321" y="374" on="0"/>
        <pt x="321" y="491" on="1"/>
        <pt x="321" y="545" on="0"/>
        <pt x="269" y="604" on="0"/>
        <pt x="219" y="604" on="1"/>
        <pt x="168" y="604" on="0"/>
        <pt x="114" y="540" on="0"/>
        <pt x="114" y="476" on="1"/>
        <pt x="114" y="84" on="1"/>
      </contour>
    </TTGlyph>
    <TTGlyph name="block" xMin="-5" yMin="-197" xMax="453" yMax="837">
      <contour>
        <pt x="-5" y="-197" on="1"/>
        <pt x="-5" y="837" on="1"/>
        <pt x="453" y="837" on="1"/>
        <pt x="453" y="-197" on="1"/>
      </contour>
    </TTGlyph>
    <TTGlyph name="braceleft" xMin="90" yMin="-64" xMax="320" yMax="704">
      <contour>
        <pt x="237" y="-54" on="0"/>
        <pt x="158" y="3" on="0"/>
        <pt x="158" y="70" on="1"/>
        <pt x="158" y="88" on="0"/>
        <pt x="164" y="128" on="1"/>
        <pt x="170" y="170" on="0"/>
        <pt x="170" y="196" on="1"/>
        <pt x="170" y="239" on="0"/>
        <pt x="131" y="288" on="0"/>
        <pt x="90" y="295" on="1"/>
        <pt x="90" y="345" on="1"/>
        <pt x="131" y="352" on="0"/>
        <pt x="170" y="401" on="0"/>
        <pt x="170" y="444" on="1"/>
        <pt x="170" y="470" on="0"/>
        <pt x="164" y="512" on="1"/>
        <pt x="158" y="552" on="0"/>
        <pt x="158" y="570" on="1"/>
        <pt x="158" y="637" on="0"/>
        <pt x="237" y="694" on="0"/>
        <pt x="313" y="704" on="1"/>
        <pt x="320" y="667" on="1"/>
        <pt x="254" y="655" on="0"/>
        <pt x="202" y="616" on="0"/>
        <pt x="202" y="574" on="1"/>
        <pt x="202" y="561" on="0"/>
        <pt x="206" y="528" on="0"/>
        <pt x="207" y="520" on="1"/>
        <pt x="214" y="483" on="0"/>
        <pt x="214" y="448" on="1"/>
        <pt x="214" y="391" on="0"/>
        <pt x="174" y="335" on="0"/>
        <pt x="131" y="320" on="1"/>
        <pt x="174" y="305" on="0"/>
        <pt x="214" y="249" on="0"/>
        <pt x="214" y="192" on="1"/>
        <pt x="214" y="157" on="0"/>
        <pt x="207" y="120" on="1"/>
        <pt x="206" y="112" on="0"/>
        <pt x="202" y="79" on="0"/>
        <pt x="202" y="66" on="1"/>
        <pt x="202" y="24" on="0"/>
        <pt x="254" y="-15" on="0"/>
        <pt x="320" y="-27" on="1"/>
        <pt x="313" y="-64" on="1"/>
      </contour>
    </TTGlyph>
    <TTGlyph name="braceright" xMin="128" yMin="-64" xMax="358" yMax="704">
      <contour>
        <pt x="194" y="-15" on="0"/>
        <pt x="246" y="24" on="0"/>
        <pt x="246" y="66" on="1"/>
        <pt x="246" y="79" on="0"/>
        <pt x="242" y="112" on="0"/>
        <pt x="241" y="120" on="1"/>
        <pt x="234" y="157" on="0"/>
        <pt x="234" y="192" on="1"/>
        <pt x="234" y="249" on="0"/>
        <pt x="274" y="305" on="0"/>
        <pt x="317" y="320" on="1"/>
        <pt x="274" y="335" on="0"/>
        <pt x="234" y="391" on="0"/>
        <pt x="234" y="448" on="1"/>
        <pt x="234" y="483" on="0"/>
        <pt x="241" y="520" on="1"/>
        <pt x="242" y="528" on="0"/>
        <pt x="246" y="561" on="0"/>
        <pt x="246" y="574" on="1"/>
        <pt x="246" y="616" on="0"/>
        <pt x="194" y="655" on="0"/>
        <pt x="128" y="667" on="1"/>
        <pt x="135" y="704" on="1"/>
        <pt x="211" y="694" on="0"/>
        <pt x="290" y="637" on="0"/>
        <pt x="290" y="570" on="1"/>
        <pt x="290" y="552" on="0"/>
        <pt x="284" y="512" on="1"/>
        <pt x="278" y="470" on="0"/>
        <pt x="278" y="444" on="1"/>
        <pt x="278" y="401" on="0"/>
        <pt x="317" y="352" on="0"/>
        <pt x="358" y="345" on="1"/>
        <pt x="358" y="295" on="1"/>
        <pt x="317" y="288" on="0"/>
        <pt x="278" y="239" on="0"/>
        <pt x="278" y="196" on="1"/>
        <pt x="278" y="170" on="0"/>
        <pt x="284" y="128" on="1"/>
        <pt x="290" y="88" on="0"/>
        <pt x="290" y="70" on="1"/>
        <pt x="290" y="3" on="0"/>
        <pt x="211" y="-54" on="0"/>
        <pt x="135" y="-64" on="1"/>
        <pt x="128" y="-27" on="1"/>
      </contour>
    </TTGlyph>
    <TTGlyph name="bracketleft" xMin="156" yMin="-64" xMax="328" yMax="704">
      <contour>
        <pt x="204" y="660" on="1"/>
        <pt x="204" y="-20" on="1"/>
        <pt x="328" y="-20" on="1"/>
        <pt x="328" y="-64" on="1"/>
        <pt x="156" y="-64" on="1"/>
        <pt x="156" y="704" on="1"/>
        <pt x="328" y="704" on="1"/>
        <pt x="328" y="660" on="1"/>
      </contour>
    </TTGlyph>
    <TTGlyph name="bracketright" xMin="120" yMin="-64" xMax="292" yMax="704">
      <contour>
        <pt x="120" y="-64" on="1"/>
        <pt x="120" y="-20" on="1"/>
        <pt x="244" y="-20" on="1"/>
        <pt x="244" y="660" on="1"/>
        <pt x="120" y="660" on="1"/>
        <pt x="120" y="704" on="1"/>
        <pt x="292" y="704" on="1"/>
        <pt x="292" y="-64" on="1"/>
      </contour>
    </TTGlyph>
    <TTGlyph name="breve" xMin="103" yMin="506" xMax="345" yMax="638">
      <component glyphName="uni0306" x="0" y="0" flags="0x400"/>
    </TTGlyph>
    <TTGlyph name="brokenbar" xMin="200" yMin="-64" xMax="248" yMax="704">
      <contour>
        <pt x="200" y="384" on="1"/>
        <pt x="200" y="704" on="1"/>
        <pt x="248" y="704" on="1"/>
        <pt x="248" y="384" on="1"/>
      </contour>
      <contour>
        <pt x="200" y="256" on="1"/>
        <pt x="248" y="256" on="1"/>
        <pt x="248" y="-64" on="1"/>
        <pt x="200" y="-64" on="1"/>
      </contour>
    </TTGlyph>
    <TTGlyph name="bullet" xMin="134" yMin="132" xMax="314" yMax="316">
      <contour>
        <pt x="262" y="316" on="0"/>
        <pt x="314" y="263" on="0"/>
        <pt x="314" y="224" on="1"/>
        <pt x="314" y="185" on="0"/>
        <pt x="262" y="132" on="0"/>
        <pt x="224" y="132" on="1"/>
        <pt x="186" y="132" on="0"/>
        <pt x="134" y="185" on="0"/>
        <pt x="134" y="224" on="1"/>
        <pt x="134" y="263" on="0"/>
        <pt x="186" y="316" on="0"/>
        <pt x="224" y="316" on="1"/>
      </contour>
    </TTGlyph>
    <TTGlyph name="c" xMin="50" yMin="-7" xMax="349" yMax="455">
      <contour>
        <pt x="283" y="413" on="0"/>
        <pt x="233" y="413" on="1"/>
        <pt x="161" y="413" on="0"/>
        <pt x="102" y="321" on="0"/>
        <pt x="102" y="224" on="1"/>
        <pt x="102" y="129" on="0"/>
        <pt x="165" y="36" on="0"/>
        <pt x="234" y="36" on="1"/>
        <pt x="283" y="36" on="0"/>
        <pt x="340" y="53" on="1"/>
        <pt x="349" y="13" on="1"/>
        <pt x="284" y="-7" on="0"/>
        <pt x="228" y="-7" on="1"/>
        <pt x="134" y="-7" on="0"/>
        <pt x="50" y="119" on="0"/>
        <pt x="50" y="224" on="1"/>
        <pt x="50" y="329" on="0"/>
        <pt x="135" y="455" on="0"/>
        <pt x="229" y="455" on="1"/>
        <pt x="295" y="455" on="0"/>
        <pt x="349" y="437" on="1"/>
        <pt x="340" y="397" on="1"/>
      </contour>
    </TTGlyph>
    <TTGlyph name="cacute" xMin="50" yMin="-7" xMax="349" yMax="704">
      <component glyphName="c" x="0" y="0" flags="0x400"/>
      <component glyphName="acutecomb" x="16" y="0" flags="0x400"/>
    </TTGlyph>
    <TTGlyph name="caron" xMin="98" yMin="512" xMax="350" yMax="648">
      <component glyphName="uni030C" x="0" y="0" flags="0x400"/>
    </TTGlyph>
    <TTGlyph name="carriagereturn" xMin="10" yMin="68" xMax="418" yMax="438">
      <contour>
        <pt x="203" y="97" on="1"/>
        <pt x="178" y="68" on="1"/>
        <pt x="10" y="207" on="1"/>
        <pt x="10" y="241" on="1"/>
        <pt x="178" y="380" on="1"/>
        <pt x="203" y="351" on="1"/>
        <pt x="81" y="246" on="1"/>
        <pt x="370" y="246" on="1"/>
        <pt x="370" y="438" on="1"/>
        <pt x="418" y="438" on="1"/>
        <pt x="418" y="202" on="1"/>
        <pt x="81" y="202" on="1"/>
      </contour>
    </TTGlyph>
    <TTGlyph name="ccaron" xMin="50" yMin="-7" xMax="366" yMax="648">
      <component glyphName="c" x="0" y="0" flags="0x400"/>
      <component glyphName="uni030C" x="16" y="0" flags="0x400"/>
    </TTGlyph>
    <TTGlyph name="ccedilla" xMin="50" yMin="-192" xMax="349" yMax="455">
      <component glyphName="c" x="0" y="0" flags="0x400"/>
      <component glyphName="uni0327" x="-36" y="0" flags="0x400"/>
    </TTGlyph>
    <TTGlyph name="ccircumflex" xMin="50" yMin="-7" xMax="366" yMax="650">
      <component glyphName="c" x="0" y="0" flags="0x400"/>
      <component glyphName="uni0302" x="16" y="0" flags="0x400"/>
    </TTGlyph>
    <TTGlyph name="cdotaccent" xMin="50" yMin="-7" xMax="349" yMax="645">
      <component glyphName="c" x="0" y="0" flags="0x400"/>
      <component glyphName="uni0307" x="16" y="0" flags="0x400"/>
    </TTGlyph>
    <TTGlyph name="cedilla" xMin="126" yMin="-192" xMax="310" yMax="10">
      <component glyphName="uni0327" x="0" y="0" flags="0x400"/>
    </TTGlyph>
    <TTGlyph name="cent" xMin="50" yMin="-64" xMax="349" yMax="640">
      <contour>
        <pt x="283" y="477" on="0"/>
        <pt x="233" y="477" on="1"/>
        <pt x="161" y="477" on="0"/>
        <pt x="102" y="385" on="0"/>
        <pt x="102" y="288" on="1"/>
        <pt x="102" y="193" on="0"/>
        <pt x="165" y="100" on="0"/>
        <pt x="234" y="100" on="1"/>
        <pt x="283" y="100" on="0"/>
        <pt x="340" y="117" on="1"/>
        <pt x="349" y="77" on="1"/>
        <pt x="295" y="61" on="0"/>
        <pt x="248" y="58" on="1"/>
        <pt x="248" y="-64" on="1"/>
        <pt x="200" y="-64" on="1"/>
        <pt x="200" y="59" on="1"/>
        <pt x="121" y="68" on="0"/>
        <pt x="50" y="191" on="0"/>
        <pt x="50" y="288" on="1"/>
        <pt x="50" y="384" on="0"/>
        <pt x="121" y="507" on="0"/>
        <pt x="200" y="517" on="1"/>
        <pt x="200" y="640" on="1"/>
        <pt x="248" y="640" on="1"/>
        <pt x="248" y="519" on="1"/>
        <pt x="305" y="516" on="0"/>
        <pt x="349" y="501" on="1"/>
        <pt x="340" y="461" on="1"/>
      </contour>
    </TTGlyph>
    <TTGlyph name="chi" xMin="32" yMin="-192" xMax="392" yMax="448">
      <contour>
        <pt x="392" y="448" on="1"/>
        <pt x="249" y="154" on="1"/>
        <pt x="316" y="83" on="0"/>
        <pt x="372" y="-64" on="0"/>
        <pt x="386" y="-192" on="1"/>
        <pt x="340" y="-192" on="1"/>
        <pt x="327" y="-70" on="0"/>
        <pt x="281" y="61" on="0"/>
        <pt x="229" y="113" on="1"/>
        <pt x="80" y="-192" on="1"/>
        <pt x="32" y="-192" on="1"/>
        <pt x="194" y="141" on="1"/>
        <pt x="134" y="207" on="0"/>
        <pt x="77" y="341" on="0"/>
        <pt x="55" y="448" on="1"/>
        <pt x="101" y="448" on="1"/>
        <pt x="118" y="356" on="0"/>
        <pt x="166" y="241" on="0"/>
        <pt x="214" y="182" on="1"/>
        <pt x="343" y="448" on="1"/>
      </contour>
    </TTGlyph>
    <TTGlyph name="circle" xMin="65" yMin="130" xMax="383" yMax="446">
      <contour>
        <pt x="180" y="130" on="0"/>
        <pt x="107" y="171" on="0"/>
        <pt x="65" y="244" on="0"/>
        <pt x="65" y="288" on="1"/>
        <pt x="65" y="332" on="0"/>
        <pt x="107" y="405" on="0"/>
        <pt x="180" y="446" on="0"/>
        <pt x="224" y="446" on="1"/>
        <pt x="268" y="446" on="0"/>
        <pt x="341" y="405" on="0"/>
        <pt x="383" y="332" on="0"/>
        <pt x="383" y="288" on="1"/>
        <pt x="383" y="244" on="0"/>
        <pt x="341" y="171" on="0"/>
        <pt x="268" y="130" on="0"/>
        <pt x="224" y="130" on="1"/>
      </contour>
      <contour>
        <pt x="113" y="240" on="0"/>
        <pt x="177" y="174" on="0"/>
        <pt x="224" y="174" on="1"/>
        <pt x="271" y="174" on="0"/>
        <pt x="335" y="240" on="0"/>
        <pt x="335" y="288" on="1"/>
        <pt x="335" y="336" on="0"/>
        <pt x="271" y="402" on="0"/>
        <pt x="224" y="402" on="1"/>
        <pt x="177" y="402" on="0"/>
        <pt x="113" y="336" on="0"/>
        <pt x="113" y="288" on="1"/>
      </contour>
    </TTGlyph>
    <TTGlyph name="circumflex" xMin="98" yMin="514" xMax="350" yMax="650">
      <component glyphName="uni0302" x="0" y="0" flags="0x400"/>
    </TTGlyph>
    <TTGlyph name="club" xMin="64" yMin="64" xMax="384" yMax="512">
      <contour>
        <pt x="384" y="384" on="1"/>
        <pt x="384" y="192" on="1"/>
        <pt x="320" y="192" on="1"/>
        <pt x="320" y="256" on="1"/>
        <pt x="256" y="256" on="1"/>
        <pt x="256" y="128" on="1"/>
        <pt x="384" y="128" on="1"/>
        <pt x="384" y="64" on="1"/>
        <pt x="64" y="64" on="1"/>
        <pt x="64" y="128" on="1"/>
        <pt x="192" y="128" on="1"/>
        <pt x="192" y="256" on="1"/>
        <pt x="128" y="256" on="1"/>
        <pt x="128" y="192" on="1"/>
        <pt x="64" y="192" on="1"/>
        <pt x="64" y="384" on="1"/>
        <pt x="128" y="384" on="1"/>
        <pt x="128" y="320" on="1"/>
        <pt x="192" y="320" on="1"/>
        <pt x="192" y="448" on="1"/>
        <pt x="128" y="448" on="1"/>
        <pt x="128" y="512" on="1"/>
        <pt x="320" y="512" on="1"/>
        <pt x="320" y="448" on="1"/>
        <pt x="256" y="448" on="1"/>
        <pt x="256" y="320" on="1"/>
        <pt x="320" y="320" on="1"/>
        <pt x="320" y="384" on="1"/>
      </contour>
    </TTGlyph>
    <TTGlyph name="colon" xMin="140" yMin="-10" xMax="244" yMax="458">
      <contour>
        <pt x="170" y="-10" on="0"/>
        <pt x="140" y="18" on="0"/>
        <pt x="140" y="42" on="1"/>
        <pt x="140" y="66" on="0"/>
        <pt x="170" y="94" on="0"/>
        <pt x="192" y="94" on="1"/>
        <pt x="214" y="94" on="0"/>
        <pt x="244" y="66" on="0"/>
        <pt x="244" y="42" on="1"/>
        <pt x="244" y="18" on="0"/>
        <pt x="214" y="-10" on="0"/>
        <pt x="192" y="-10" on="1"/>
      </contour>
      <contour>
        <pt x="140" y="430" on="0"/>
        <pt x="170" y="458" on="0"/>
        <pt x="192" y="458" on="1"/>
        <pt x="214" y="458" on="0"/>
        <pt x="244" y="430" on="0"/>
        <pt x="244" y="406" on="1"/>
        <pt x="244" y="382" on="0"/>
        <pt x="214" y="354" on="0"/>
        <pt x="192" y="354" on="1"/>
        <pt x="170" y="354" on="0"/>
        <pt x="140" y="382" on="0"/>
        <pt x="140" y="406" on="1"/>
      </contour>
    </TTGlyph>
    <TTGlyph name="colon.alt" xMin="172" yMin="54" xMax="276" yMax="522">
      <component glyphName="colon" x="32" y="64" flags="0x404"/>
    </TTGlyph>
    <TTGlyph name="colonmonetary" xMin="66" yMin="-128" xMax="376" yMax="704">
      <contour>
        <pt x="154" y="18" on="1"/>
        <pt x="107" y="47" on="0"/>
        <pt x="66" y="176" on="0"/>
        <pt x="66" y="287" on="1"/>
        <pt x="66" y="418" on="0"/>
        <pt x="125" y="553" on="0"/>
        <pt x="194" y="573" on="1"/>
        <pt x="203" y="704" on="1"/>
        <pt x="251" y="704" on="1"/>
        <pt x="242" y="582" on="1"/>
        <pt x="252" y="583" on="0"/>
        <pt x="272" y="583" on="1"/>
        <pt x="286" y="583" on="1"/>
        <pt x="295" y="704" on="1"/>
        <pt x="343" y="704" on="1"/>
        <pt x="334" y="579" on="1"/>
        <pt x="360" y="575" on="0"/>
        <pt x="372" y="572" on="1"/>
        <pt x="366" y="532" on="1"/>
        <pt x="353" y="534" on="0"/>
        <pt x="331" y="536" on="1"/>
        <pt x="295" y="35" on="1"/>
        <pt x="330" y="37" on="0"/>
        <pt x="370" y="44" on="1"/>
        <pt x="376" y="4" on="1"/>
        <pt x="330" y="-7" on="0"/>
        <pt x="292" y="-8" on="1"/>
        <pt x="284" y="-128" on="1"/>
        <pt x="236" y="-128" on="1"/>
        <pt x="244" y="-8" on="1"/>
        <pt x="218" y="-6" on="0"/>
        <pt x="201" y="-1" on="1"/>
        <pt x="192" y="-128" on="1"/>
        <pt x="144" y="-128" on="1"/>
      </contour>
      <contour>
        <pt x="120" y="209" on="0"/>
        <pt x="137" y="111" on="0"/>
        <pt x="159" y="82" on="1"/>
        <pt x="190" y="521" on="1"/>
        <pt x="150" y="499" on="0"/>
        <pt x="120" y="389" on="0"/>
        <pt x="120" y="287" on="1"/>
      </contour>
      <contour>
        <pt x="227" y="38" on="0"/>
        <pt x="247" y="37" on="1"/>
        <pt x="283" y="539" on="1"/>
        <pt x="275" y="539" on="1"/>
        <pt x="261" y="539" on="0"/>
        <pt x="239" y="537" on="1"/>
        <pt x="204" y="47" on="1"/>
      </contour>
    </TTGlyph>
    <TTGlyph name="comma" xMin="139" yMin="-126" xMax="248" yMax="95">
      <contour>
        <pt x="165" y="-74" on="0"/>
        <pt x="194" y="-35" on="0"/>
        <pt x="197" y="-11" on="1"/>
        <pt x="169" y="-11" on="0"/>
        <pt x="139" y="20" on="0"/>
        <pt x="139" y="43" on="1"/>
        <pt x="139" y="66" on="0"/>
        <pt x="169" y="95" on="0"/>
        <pt x="189" y="95" on="1"/>
        <pt x="216" y="95" on="0"/>
        <pt x="248" y="57" on="0"/>
        <pt x="248" y="20" on="1"/>
        <pt x="248" y="-24" on="0"/>
        <pt x="209" y="-91" on="0"/>
        <pt x="166" y="-126" on="1"/>
        <pt x="140" y="-96" on="1"/>
      </contour>
    </TTGlyph>
    <TTGlyph name="copyright" xMin="13" yMin="15" xMax="435" yMax="497">
      <contour>
        <pt x="169" y="15" on="0"/>
        <pt x="73" y="70" on="0"/>
        <pt x="13" y="179" on="0"/>
        <pt x="13" y="256" on="1"/>
        <pt x="13" y="333" on="0"/>
        <pt x="72" y="442" on="0"/>
        <pt x="169" y="497" on="0"/>
        <pt x="224" y="497" on="1"/>
        <pt x="279" y="497" on="0"/>
        <pt x="376" y="442" on="0"/>
        <pt x="435" y="333" on="0"/>
        <pt x="435" y="256" on="1"/>
        <pt x="435" y="179" on="0"/>
        <pt x="375" y="70" on="0"/>
        <pt x="279" y="15" on="0"/>
        <pt x="224" y="15" on="1"/>
      </contour>
      <contour>
        <pt x="55" y="158" on="0"/>
        <pt x="147" y="55" on="0"/>
        <pt x="224" y="55" on="1"/>
        <pt x="301" y="55" on="0"/>
        <pt x="393" y="158" on="0"/>
        <pt x="393" y="256" on="1"/>
        <pt x="393" y="354" on="0"/>
        <pt x="301" y="457" on="0"/>
        <pt x="224" y="457" on="1"/>
        <pt x="147" y="457" on="0"/>
        <pt x="55" y="354" on="0"/>
        <pt x="55" y="256" on="1"/>
      </contour>
      <contour>
        <pt x="116" y="326" on="0"/>
        <pt x="178" y="397" on="0"/>
        <pt x="235" y="397" on="1"/>
        <pt x="275" y="397" on="0"/>
        <pt x="307" y="384" on="1"/>
        <pt x="297" y="351" on="1"/>
        <pt x="264" y="361" on="0"/>
        <pt x="237" y="361" on="1"/>
        <pt x="197" y="361" on="0"/>
        <pt x="159" y="312" on="0"/>
        <pt x="159" y="258" on="1"/>
        <pt x="159" y="205" on="0"/>
        <pt x="198" y="156" on="0"/>
        <pt x="238" y="156" on="1"/>
        <pt x="263" y="156" on="0"/>
        <pt x="298" y="166" on="1"/>
        <pt x="307" y="133" on="1"/>
        <pt x="270" y="120" on="0"/>
        <pt x="235" y="120" on="1"/>
        <pt x="178" y="120" on="0"/>
        <pt x="116" y="188" on="0"/>
        <pt x="116" y="258" on="1"/>
      </contour>
    </TTGlyph>
    <TTGlyph name="currency" xMin="50" yMin="62" xMax="398" yMax="514">
      <contour>
        <pt x="269" y="464" on="0"/>
        <pt x="308" y="443" on="1"/>
        <pt x="360" y="514" on="1"/>
        <pt x="398" y="486" on="1"/>
        <pt x="346" y="415" on="1"/>
        <pt x="371" y="391" on="0"/>
        <pt x="398" y="325" on="0"/>
        <pt x="398" y="288" on="1"/>
        <pt x="398" y="251" on="0"/>
        <pt x="371" y="186" on="0"/>
        <pt x="346" y="161" on="1"/>
        <pt x="398" y="90" on="1"/>
        <pt x="360" y="62" on="1"/>
        <pt x="308" y="133" on="1"/>
        <pt x="268" y="112" on="0"/>
        <pt x="224" y="112" on="1"/>
        <pt x="180" y="112" on="0"/>
        <pt x="140" y="133" on="1"/>
        <pt x="88" y="62" on="1"/>
        <pt x="50" y="90" on="1"/>
        <pt x="102" y="161" on="1"/>
        <pt x="78" y="186" on="0"/>
        <pt x="50" y="251" on="0"/>
        <pt x="50" y="288" on="1"/>
        <pt x="50" y="325" on="0"/>
        <pt x="78" y="391" on="0"/>
        <pt x="102" y="415" on="1"/>
        <pt x="50" y="486" on="1"/>
        <pt x="88" y="514" on="1"/>
        <pt x="140" y="443" on="1"/>
        <pt x="179" y="464" on="0"/>
        <pt x="224" y="464" on="1"/>
      </contour>
      <contour>
        <pt x="98" y="233" on="0"/>
        <pt x="171" y="156" on="0"/>
        <pt x="224" y="156" on="1"/>
        <pt x="277" y="156" on="0"/>
        <pt x="350" y="233" on="0"/>
        <pt x="350" y="288" on="1"/>
        <pt x="350" y="343" on="0"/>
        <pt x="277" y="420" on="0"/>
        <pt x="224" y="420" on="1"/>
        <pt x="171" y="420" on="0"/>
        <pt x="98" y="343" on="0"/>
        <pt x="98" y="288" on="1"/>
      </contour>
    </TTGlyph>
    <TTGlyph name="d" xMin="51" yMin="-8" xMax="384" yMax="640">
      <contour>
        <pt x="335" y="38" on="1"/>
        <pt x="309" y="15" on="0"/>
        <pt x="254" y="-8" on="0"/>
        <pt x="217" y="-8" on="1"/>
        <pt x="151" y="-8" on="0"/>
        <pt x="110" y="33" on="1"/>
        <pt x="51" y="92" on="0"/>
        <pt x="51" y="224" on="1"/>
        <pt x="51" y="357" on="0"/>
        <pt x="108" y="414" on="1"/>
        <pt x="150" y="456" on="0"/>
        <pt x="216" y="456" on="1"/>
        <pt x="252" y="456" on="0"/>
        <pt x="308" y="433" on="0"/>
        <pt x="334" y="411" on="1"/>
        <pt x="334" y="640" on="1"/>
        <pt x="382" y="640" on="1"/>
        <pt x="382" y="63" on="1"/>
        <pt x="384" y="0" on="1"/>
        <pt x="339" y="0" on="1"/>
      </contour>
      <contour>
        <pt x="103" y="104" on="0"/>
        <pt x="146" y="61" on="1"/>
        <pt x="173" y="34" on="0"/>
        <pt x="219" y="34" on="1"/>
        <pt x="254" y="34" on="0"/>
        <pt x="308" y="57" on="0"/>
        <pt x="334" y="79" on="1"/>
        <pt x="334" y="369" on="1"/>
        <pt x="308" y="391" on="0"/>
        <pt x="253" y="414" on="0"/>
        <pt x="218" y="414" on="1"/>
        <pt x="171" y="414" on="0"/>
        <pt x="144" y="387" on="1"/>
        <pt x="103" y="346" on="0"/>
        <pt x="103" y="224" on="1"/>
      </contour>
    </TTGlyph>
    <TTGlyph name="dagger" xMin="70" yMin="0" xMax="378" yMax="640">
      <contour>
        <pt x="246" y="448" on="1"/>
        <pt x="378" y="448" on="1"/>
        <pt x="378" y="408" on="1"/>
        <pt x="246" y="408" on="1"/>
        <pt x="246" y="0" on="1"/>
        <pt x="202" y="0" on="1"/>
        <pt x="202" y="408" on="1"/>
        <pt x="70" y="408" on="1"/>
        <pt x="70" y="448" on="1"/>
        <pt x="202" y="448" on="1"/>
        <pt x="202" y="640" on="1"/>
        <pt x="246" y="640" on="1"/>
      </contour>
    </TTGlyph>
    <TTGlyph name="daggerdbl" xMin="70" yMin="0" xMax="378" yMax="640">
      <contour>
        <pt x="246" y="448" on="1"/>
        <pt x="378" y="448" on="1"/>
        <pt x="378" y="404" on="1"/>
        <pt x="246" y="404" on="1"/>
        <pt x="246" y="236" on="1"/>
        <pt x="378" y="236" on="1"/>
        <pt x="378" y="192" on="1"/>
        <pt x="246" y="192" on="1"/>
        <pt x="246" y="0" on="1"/>
        <pt x="202" y="0" on="1"/>
        <pt x="202" y="192" on="1"/>
        <pt x="70" y="192" on="1"/>
        <pt x="70" y="236" on="1"/>
        <pt x="202" y="236" on="1"/>
        <pt x="202" y="404" on="1"/>
        <pt x="70" y="404" on="1"/>
        <pt x="70" y="448" on="1"/>
        <pt x="202" y="448" on="1"/>
        <pt x="202" y="640" on="1"/>
        <pt x="246" y="640" on="1"/>
      </contour>
    </TTGlyph>
    <TTGlyph name="dcaron" xMin="3" yMin="-8" xMax="468" yMax="640">
      <component glyphName="d" x="-48" y="0" flags="0x400"/>
      <component glyphName="uni030C.alt" x="44" y="0" flags="0x400"/>
    </TTGlyph>
    <TTGlyph name="dcroat" xMin="51" yMin="-8" xMax="434" yMax="640">
      <component glyphName="d" x="0" y="0" flags="0x400"/>
      <component glyphName="uni0335" x="86" y="310" flags="0x404"/>
    </TTGlyph>
    <TTGlyph name="degree" xMin="60" yMin="377" xMax="324" yMax="647">
      <contour>
        <pt x="229" y="647" on="0"/>
        <pt x="290" y="610" on="0"/>
        <pt x="324" y="547" on="0"/>
        <pt x="324" y="512" on="1"/>
        <pt x="324" y="477" on="0"/>
        <pt x="290" y="414" on="0"/>
        <pt x="229" y="377" on="0"/>
        <pt x="192" y="377" on="1"/>
        <pt x="155" y="377" on="0"/>
        <pt x="94" y="414" on="0"/>
        <pt x="60" y="477" on="0"/>
        <pt x="60" y="512" on="1"/>
        <pt x="60" y="547" on="0"/>
        <pt x="94" y="610" on="0"/>
        <pt x="155" y="647" on="0"/>
        <pt x="192" y="647" on="1"/>
      </contour>
      <contour>
        <pt x="108" y="474" on="0"/>
        <pt x="152" y="421" on="0"/>
        <pt x="192" y="421" on="1"/>
        <pt x="232" y="421" on="0"/>
        <pt x="276" y="474" on="0"/>
        <pt x="276" y="512" on="1"/>
        <pt x="276" y="550" on="0"/>
        <pt x="232" y="603" on="0"/>
        <pt x="192" y="603" on="1"/>
        <pt x="152" y="603" on="0"/>
        <pt x="108" y="550" on="0"/>
        <pt x="108" y="512" on="1"/>
      </contour>
    </TTGlyph>
    <TTGlyph name="delta" xMin="55" yMin="-13" xMax="393" yMax="642">
      <contour>
        <pt x="173" y="-13" on="0"/>
        <pt x="97" y="35" on="0"/>
        <pt x="55" y="122" on="0"/>
        <pt x="55" y="177" on="1"/>
        <pt x="55" y="248" on="0"/>
        <pt x="128" y="357" on="0"/>
        <pt x="200" y="399" on="1"/>
        <pt x="166" y="425" on="0"/>
        <pt x="129" y="482" on="0"/>
        <pt x="129" y="523" on="1"/>
        <pt x="129" y="578" on="0"/>
        <pt x="210" y="642" on="0"/>
        <pt x="280" y="642" on="1"/>
        <pt x="328" y="642" on="0"/>
        <pt x="377" y="635" on="1"/>
        <pt x="373" y="593" on="1"/>
        <pt x="326" y="598" on="0"/>
        <pt x="285" y="598" on="1"/>
        <pt x="234" y="598" on="0"/>
        <pt x="179" y="558" on="0"/>
        <pt x="179" y="522" on="1"/>
        <pt x="180" y="483" on="0"/>
        <pt x="214" y="449" on="1"/>
        <pt x="224" y="439" on="0"/>
        <pt x="257" y="413" on="0"/>
        <pt x="265" y="406" on="1"/>
        <pt x="305" y="376" on="0"/>
        <pt x="326" y="355" on="1"/>
        <pt x="393" y="288" on="0"/>
        <pt x="393" y="192" on="1"/>
        <pt x="393" y="132" on="0"/>
        <pt x="350" y="39" on="0"/>
        <pt x="272" y="-13" on="0"/>
        <pt x="221" y="-13" on="1"/>
      </contour>
      <contour>
        <pt x="107" y="112" on="0"/>
        <pt x="169" y="31" on="0"/>
        <pt x="221" y="31" on="1"/>
        <pt x="281" y="31" on="0"/>
        <pt x="342" y="113" on="0"/>
        <pt x="342" y="192" on="1"/>
        <pt x="342" y="238" on="0"/>
        <pt x="312" y="305" on="0"/>
        <pt x="267" y="349" on="0"/>
        <pt x="232" y="375" on="1"/>
        <pt x="162" y="334" on="0"/>
        <pt x="107" y="241" on="0"/>
        <pt x="107" y="176" on="1"/>
      </contour>
    </TTGlyph>
    <TTGlyph name="diamond" xMin="64" yMin="80" xMax="384" yMax="456">
      <contour>
        <pt x="202" y="456" on="1"/>
        <pt x="246" y="456" on="1"/>
        <pt x="384" y="284" on="1"/>
        <pt x="384" y="252" on="1"/>
        <pt x="246" y="80" on="1"/>
        <pt x="202" y="80" on="1"/>
        <pt x="64" y="252" on="1"/>
        <pt x="64" y="284" on="1"/>
      </contour>
    </TTGlyph>
    <TTGlyph name="dieresis" xMin="84" yMin="547" xMax="364" yMax="642">
      <component glyphName="uni0308" x="0" y="0" flags="0x400"/>
    </TTGlyph>
    <TTGlyph name="dieresistonos" xMin="54" yMin="512" xMax="394" yMax="704">
      <contour>
        <pt x="260" y="704" on="1"/>
        <pt x="233" y="512" on="1"/>
        <pt x="192" y="512" on="1"/>
        <pt x="206" y="704" on="1"/>
      </contour>
      <contour>
        <pt x="54" y="616" on="0"/>
        <pt x="83" y="642" on="0"/>
        <pt x="104" y="642" on="1"/>
        <pt x="124" y="642" on="0"/>
        <pt x="154" y="615" on="0"/>
        <pt x="154" y="595" on="1"/>
        <pt x="154" y="573" on="0"/>
        <pt x="125" y="547" on="0"/>
        <pt x="104" y="547" on="1"/>
        <pt x="83" y="547" on="0"/>
        <pt x="54" y="573" on="0"/>
        <pt x="54" y="595" on="1"/>
      </contour>
      <contour>
        <pt x="294" y="616" on="0"/>
        <pt x="323" y="642" on="0"/>
        <pt x="344" y="642" on="1"/>
        <pt x="364" y="642" on="0"/>
        <pt x="394" y="615" on="0"/>
        <pt x="394" y="595" on="1"/>
        <pt x="394" y="573" on="0"/>
        <pt x="365" y="547" on="0"/>
        <pt x="344" y="547" on="1"/>
        <pt x="323" y="547" on="0"/>
        <pt x="294" y="573" on="0"/>
        <pt x="294" y="595" on="1"/>
      </contour>
    </TTGlyph>
    <TTGlyph name="divide" xMin="24" yMin="74" xMax="424" yMax="502">
      <contour>
        <pt x="24" y="308" on="1"/>
        <pt x="424" y="308" on="1"/>
        <pt x="424" y="268" on="1"/>
        <pt x="24" y="268" on="1"/>
      </contour>
      <contour>
        <pt x="172" y="150" on="0"/>
        <pt x="202" y="178" on="0"/>
        <pt x="224" y="178" on="1"/>
        <pt x="246" y="178" on="0"/>
        <pt x="276" y="150" on="0"/>
        <pt x="276" y="126" on="1"/>
        <pt x="276" y="102" on="0"/>
        <pt x="246" y="74" on="0"/>
        <pt x="224" y="74" on="1"/>
        <pt x="202" y="74" on="0"/>
        <pt x="172" y="102" on="0"/>
        <pt x="172" y="126" on="1"/>
      </contour>
      <contour>
        <pt x="172" y="474" on="0"/>
        <pt x="202" y="502" on="0"/>
        <pt x="224" y="502" on="1"/>
        <pt x="246" y="502" on="0"/>
        <pt x="276" y="474" on="0"/>
        <pt x="276" y="450" on="1"/>
        <pt x="276" y="426" on="0"/>
        <pt x="246" y="398" on="0"/>
        <pt x="224" y="398" on="1"/>
        <pt x="202" y="398" on="0"/>
        <pt x="172" y="426" on="0"/>
        <pt x="172" y="450" on="1"/>
      </contour>
    </TTGlyph>
    <TTGlyph name="dkshade" xMin="0" yMin="-192" xMax="384" yMax="832">
      <contour>
        <pt x="64" y="-128" on="1"/>
        <pt x="0" y="-128" on="1"/>
        <pt x="0" y="64" on="1"/>
        <pt x="64" y="64" on="1"/>
        <pt x="64" y="128" on="1"/>
        <pt x="0" y="128" on="1"/>
        <pt x="0" y="320" on="1"/>
        <pt x="64" y="320" on="1"/>
        <pt x="64" y="384" on="1"/>
        <pt x="0" y="384" on="1"/>
        <pt x="0" y="576" on="1"/>
        <pt x="64" y="576" on="1"/>
        <pt x="64" y="640" on="1"/>
        <pt x="0" y="640" on="1"/>
        <pt x="0" y="832" on="1"/>
        <pt x="384" y="832" on="1"/>
        <pt x="384" y="768" on="1"/>
        <pt x="320" y="768" on="1"/>
        <pt x="320" y="704" on="1"/>
        <pt x="384" y="704" on="1"/>
        <pt x="384" y="512" on="1"/>
        <pt x="320" y="512" on="1"/>
        <pt x="320" y="448" on="1"/>
        <pt x="384" y="448" on="1"/>
        <pt x="384" y="256" on="1"/>
        <pt x="320" y="256" on="1"/>
        <pt x="320" y="192" on="1"/>
        <pt x="384" y="192" on="1"/>
        <pt x="384" y="0" on="1"/>
        <pt x="320" y="0" on="1"/>
        <pt x="320" y="-64" on="1"/>
        <pt x="384" y="-64" on="1"/>
        <pt x="384" y="-192" on="1"/>
        <pt x="320" y="-192" on="1"/>
        <pt x="320" y="-128" on="1"/>
        <pt x="256" y="-128" on="1"/>
        <pt x="256" y="-192" on="1"/>
        <pt x="192" y="-192" on="1"/>
        <pt x="192" y="-128" on="1"/>
        <pt x="128" y="-128" on="1"/>
        <pt x="128" y="-192" on="1"/>
        <pt x="64" y="-192" on="1"/>
      </contour>
      <contour>
        <pt x="128" y="-64" on="1"/>
        <pt x="128" y="0" on="1"/>
        <pt x="64" y="0" on="1"/>
        <pt x="64" y="-64" on="1"/>
      </contour>
      <contour>
        <pt x="128" y="192" on="1"/>
        <pt x="128" y="256" on="1"/>
        <pt x="64" y="256" on="1"/>
        <pt x="64" y="192" on="1"/>
      </contour>
      <contour>
        <pt x="128" y="448" on="1"/>
        <pt x="128" y="512" on="1"/>
        <pt x="64" y="512" on="1"/>
        <pt x="64" y="448" on="1"/>
      </contour>
      <contour>
        <pt x="128" y="704" on="1"/>
        <pt x="128" y="768" on="1"/>
        <pt x="64" y="768" on="1"/>
        <pt x="64" y="704" on="1"/>
      </contour>
      <contour>
        <pt x="192" y="64" on="1"/>
        <pt x="192" y="128" on="1"/>
        <pt x="128" y="128" on="1"/>
        <pt x="128" y="64" on="1"/>
      </contour>
      <contour>
        <pt x="192" y="320" on="1"/>
        <pt x="192" y="384" on="1"/>
        <pt x="128" y="384" on="1"/>
        <pt x="128" y="320" on="1"/>
      </contour>
      <contour>
        <pt x="192" y="576" on="1"/>
        <pt x="192" y="640" on="1"/>
        <pt x="128" y="640" on="1"/>
        <pt x="128" y="576" on="1"/>
      </contour>
      <contour>
        <pt x="256" y="-64" on="1"/>
        <pt x="256" y="0" on="1"/>
        <pt x="192" y="0" on="1"/>
        <pt x="192" y="-64" on="1"/>
      </contour>
      <contour>
        <pt x="256" y="192" on="1"/>
        <pt x="256" y="256" on="1"/>
        <pt x="192" y="256" on="1"/>
        <pt x="192" y="192" on="1"/>
      </contour>
      <contour>
        <pt x="256" y="448" on="1"/>
        <pt x="256" y="512" on="1"/>
        <pt x="192" y="512" on="1"/>
        <pt x="192" y="448" on="1"/>
      </contour>
      <contour>
        <pt x="256" y="704" on="1"/>
        <pt x="256" y="768" on="1"/>
        <pt x="192" y="768" on="1"/>
        <pt x="192" y="704" on="1"/>
      </contour>
      <contour>
        <pt x="320" y="64" on="1"/>
        <pt x="320" y="128" on="1"/>
        <pt x="256" y="128" on="1"/>
        <pt x="256" y="64" on="1"/>
      </contour>
      <contour>
        <pt x="320" y="320" on="1"/>
        <pt x="320" y="384" on="1"/>
        <pt x="256" y="384" on="1"/>
        <pt x="256" y="320" on="1"/>
      </contour>
      <contour>
        <pt x="320" y="576" on="1"/>
        <pt x="320" y="640" on="1"/>
        <pt x="256" y="640" on="1"/>
        <pt x="256" y="576" on="1"/>
      </contour>
    </TTGlyph>
    <TTGlyph name="dnblock" xMin="-5" yMin="-197" xMax="453" yMax="325">
      <contour>
        <pt x="-5" y="-197" on="1"/>
        <pt x="-5" y="325" on="1"/>
        <pt x="453" y="325" on="1"/>
        <pt x="453" y="-197" on="1"/>
      </contour>
    </TTGlyph>
    <TTGlyph name="dollar" xMin="60" yMin="-128" xMax="384" yMax="704">
      <contour>
        <pt x="200" y="-8" on="1"/>
        <pt x="129" y="-7" on="0"/>
        <pt x="60" y="17" on="1"/>
        <pt x="72" y="57" on="1"/>
        <pt x="107" y="47" on="0"/>
        <pt x="166" y="36" on="0"/>
        <pt x="203" y="36" on="1"/>
        <pt x="275" y="36" on="0"/>
        <pt x="334" y="82" on="0"/>
        <pt x="334" y="126" on="1"/>
        <pt x="334" y="157" on="0"/>
        <pt x="304" y="199" on="0"/>
        <pt x="259" y="225" on="0"/>
        <pt x="219" y="242" on="1"/>
        <pt x="170" y="263" on="0"/>
        <pt x="109" y="300" on="0"/>
        <pt x="66" y="369" on="0"/>
        <pt x="66" y="423" on="1"/>
        <pt x="66" y="483" on="0"/>
        <pt x="135" y="567" on="0"/>
        <pt x="200" y="579" on="1"/>
        <pt x="200" y="704" on="1"/>
        <pt x="248" y="704" on="1"/>
        <pt x="248" y="584" on="1"/>
        <pt x="254" y="584" on="1"/>
        <pt x="311" y="584" on="0"/>
        <pt x="367" y="566" on="1"/>
        <pt x="357" y="526" on="1"/>
        <pt x="301" y="540" on="0"/>
        <pt x="253" y="540" on="1"/>
        <pt x="181" y="540" on="0"/>
        <pt x="116" y="477" on="0"/>
        <pt x="116" y="425" on="1"/>
        <pt x="116" y="384" on="0"/>
        <pt x="151" y="331" on="0"/>
        <pt x="203" y="300" on="0"/>
        <pt x="247" y="281" on="1"/>
        <pt x="292" y="262" on="0"/>
        <pt x="347" y="229" on="0"/>
        <pt x="384" y="172" on="0"/>
        <pt x="384" y="128" on="1"/>
        <pt x="384" y="69" on="0"/>
        <pt x="313" y="2" on="0"/>
        <pt x="248" y="-6" on="1"/>
        <pt x="248" y="-128" on="1"/>
        <pt x="200" y="-128" on="1"/>
      </contour>
    </TTGlyph>
    <TTGlyph name="dong" xMin="36" yMin="-116" xMax="434" yMax="640">
      <component glyphName="dcroat" x="0" y="0" flags="0x400"/>
      <component glyphName="minus" x="0" y="-384" flags="0x404"/>
    </TTGlyph>
    <TTGlyph name="dotaccent" xMin="171" yMin="539" xMax="277" yMax="645">
      <component glyphName="uni0307" x="0" y="0" flags="0x400"/>
    </TTGlyph>
    <TTGlyph name="dotbelowcomb" xMin="171" yMin="-171" xMax="277" yMax="-65">
      <component glyphName="uni0307" x="0" y="-710" flags="0x404"/>
    </TTGlyph>
    <TTGlyph name="dotlessi" xMin="82" yMin="0" xMax="254" yMax="448">
      <contour>
        <pt x="206" y="402" on="1"/>
        <pt x="82" y="410" on="1"/>
        <pt x="82" y="448" on="1"/>
        <pt x="254" y="448" on="1"/>
        <pt x="254" y="0" on="1"/>
        <pt x="206" y="0" on="1"/>
      </contour>
    </TTGlyph>
    <TTGlyph name="dotlessi.cv02" xMin="200" yMin="0" xMax="248" yMax="448">
      <contour>
        <pt x="200" y="448" on="1"/>
        <pt x="248" y="448" on="1"/>
        <pt x="248" y="0" on="1"/>
        <pt x="200" y="0" on="1"/>
      </contour>
    </TTGlyph>
    <TTGlyph name="dotmath" xMin="172" yMin="236" xMax="276" yMax="340">
      <component glyphName="period" x="32" y="246" flags="0x404"/>
    </TTGlyph>
    <TTGlyph name="e" xMin="56" yMin="-13" xMax="395" yMax="461">
      <contour>
        <pt x="56" y="331" on="0"/>
        <pt x="136" y="461" on="0"/>
        <pt x="224" y="461" on="1"/>
        <pt x="308" y="461" on="0"/>
        <pt x="395" y="332" on="0"/>
        <pt x="390" y="213" on="1"/>
        <pt x="108" y="213" on="1"/>
        <pt x="110" y="122" on="0"/>
        <pt x="174" y="29" on="0"/>
        <pt x="251" y="29" on="1"/>
        <pt x="301" y="29" on="0"/>
        <pt x="363" y="47" on="1"/>
        <pt x="372" y="10" on="1"/>
        <pt x="312" y="-13" on="0"/>
        <pt x="242" y="-13" on="1"/>
        <pt x="142" y="-13" on="0"/>
        <pt x="56" y="116" on="0"/>
        <pt x="56" y="224" on="1"/>
      </contour>
      <contour>
        <pt x="339" y="257" on="1"/>
        <pt x="337" y="334" on="0"/>
        <pt x="280" y="417" on="0"/>
        <pt x="224" y="417" on="1"/>
        <pt x="168" y="417" on="0"/>
        <pt x="113" y="339" on="0"/>
        <pt x="109" y="257" on="1"/>
      </contour>
    </TTGlyph>
    <TTGlyph name="eacute" xMin="56" yMin="-13" xMax="395" yMax="704">
      <component glyphName="e" x="0" y="0" flags="0x400"/>
      <component glyphName="acutecomb" x="0" y="0" flags="0x400"/>
    </TTGlyph>
    <TTGlyph name="ebreve" xMin="56" yMin="-13" xMax="395" yMax="638">
      <component glyphName="e" x="0" y="0" flags="0x400"/>
      <component glyphName="uni0306" x="0" y="0" flags="0x400"/>
    </TTGlyph>
    <TTGlyph name="ecaron" xMin="56" yMin="-13" xMax="395" yMax="648">
      <component glyphName="e" x="0" y="0" flags="0x400"/>
      <component glyphName="uni030C" x="0" y="0" flags="0x400"/>
    </TTGlyph>
    <TTGlyph name="ecircumflex" xMin="56" yMin="-13" xMax="395" yMax="650">
      <component glyphName="e" x="0" y="0" flags="0x400"/>
      <component glyphName="uni0302" x="0" y="0" flags="0x400"/>
    </TTGlyph>
    <TTGlyph name="edieresis" xMin="56" yMin="-13" xMax="395" yMax="642">
      <component glyphName="e" x="0" y="0" flags="0x400"/>
      <component glyphName="uni0308" x="0" y="0" flags="0x400"/>
    </TTGlyph>
    <TTGlyph name="edotaccent" xMin="56" yMin="-13" xMax="395" yMax="645">
      <component glyphName="e" x="0" y="0" flags="0x400"/>
      <component glyphName="uni0307" x="0" y="0" flags="0x400"/>
    </TTGlyph>
    <TTGlyph name="egrave" xMin="56" yMin="-13" xMax="395" yMax="704">
      <component glyphName="e" x="0" y="0" flags="0x400"/>
      <component glyphName="gravecomb" x="0" y="0" flags="0x400"/>
    </TTGlyph>
    <TTGlyph name="eight" xMin="38" yMin="-11" xMax="409" yMax="586">
      <contour>
        <pt x="137" y="-11" on="0"/>
        <pt x="38" y="78" on="0"/>
        <pt x="38" y="147" on="1"/>
        <pt x="38" y="243" on="0"/>
        <pt x="144" y="306" on="1"/>
        <pt x="100" y="337" on="0"/>
        <pt x="64" y="401" on="0"/>
        <pt x="64" y="440" on="1"/>
        <pt x="64" y="481" on="0"/>
        <pt x="106" y="548" on="0"/>
        <pt x="179" y="586" on="0"/>
        <pt x="224" y="586" on="1"/>
        <pt x="294" y="586" on="0"/>
        <pt x="384" y="501" on="0"/>
        <pt x="384" y="431" on="1"/>
        <pt x="384" y="389" on="0"/>
        <pt x="339" y="309" on="0"/>
        <pt x="293" y="277" on="1"/>
        <pt x="352" y="246" on="0"/>
        <pt x="409" y="181" on="0"/>
        <pt x="409" y="133" on="1"/>
        <pt x="409" y="95" on="0"/>
        <pt x="365" y="29" on="0"/>
        <pt x="281" y="-11" on="0"/>
        <pt x="224" y="-11" on="1"/>
      </contour>
      <contour>
        <pt x="88" y="97" on="0"/>
        <pt x="156" y="33" on="0"/>
        <pt x="224" y="33" on="1"/>
        <pt x="292" y="33" on="0"/>
        <pt x="359" y="92" on="0"/>
        <pt x="359" y="134" on="1"/>
        <pt x="359" y="157" on="0"/>
        <pt x="337" y="193" on="0"/>
        <pt x="276" y="234" on="0"/>
        <pt x="216" y="264" on="1"/>
        <pt x="178" y="284" on="1"/>
        <pt x="127" y="257" on="0"/>
        <pt x="88" y="189" on="0"/>
        <pt x="88" y="149" on="1"/>
      </contour>
      <contour>
        <pt x="114" y="415" on="0"/>
        <pt x="134" y="372" on="0"/>
        <pt x="197" y="322" on="0"/>
        <pt x="260" y="293" on="1"/>
        <pt x="334" y="354" on="0"/>
        <pt x="334" y="436" on="1"/>
        <pt x="334" y="480" on="0"/>
        <pt x="276" y="542" on="0"/>
        <pt x="222" y="542" on="1"/>
        <pt x="166" y="542" on="0"/>
        <pt x="114" y="484" on="0"/>
        <pt x="114" y="442" on="1"/>
      </contour>
    </TTGlyph>
    <TTGlyph name="eight.dnom" xMin="182" yMin="-198" xMax="394" yMax="134">
      <component glyphName="uni2078" x="128" y="-512" flags="0x404"/>
    </TTGlyph>
    <TTGlyph name="eight.numr" xMin="54" yMin="314" xMax="266" yMax="646">
      <component glyphName="uni2078" x="0" y="0" flags="0x400"/>
    </TTGlyph>
    <TTGlyph name="eight.osf" xMin="38" yMin="-11" xMax="409" yMax="586">
      <component glyphName="eight" x="0" y="0" flags="0x400"/>
    </TTGlyph>
    <TTGlyph name="eight_fraction_nine" xMin="43" yMin="-198" xMax="404" yMax="646">
      <component glyphName="eight.numr" x="0" y="0" flags="0x400"/>
      <component glyphName="fraction.alt" x="0" y="0" flags="0x400"/>
      <component glyphName="nine.dnom" x="0" y="0" flags="0x400"/>
    </TTGlyph>
    <TTGlyph name="ellipsis" xMin="23" yMin="-10" xMax="425" yMax="94">
      <component glyphName="period" x="-117" y="0" flags="0x400"/>
      <component glyphName="period" x="32" y="0" flags="0x400"/>
      <component glyphName="period" x="181" y="0" flags="0x400"/>
    </TTGlyph>
    <TTGlyph name="emacron" xMin="56" yMin="-13" xMax="395" yMax="620">
      <component glyphName="e" x="0" y="0" flags="0x400"/>
      <component glyphName="uni0304" x="0" y="0" flags="0x400"/>
    </TTGlyph>
    <TTGlyph name="emdash" xMin="-10" yMin="266" xMax="458" yMax="310">
      <contour>
        <pt x="-10" y="266" on="1"/>
        <pt x="-10" y="310" on="1"/>
        <pt x="458" y="310" on="1"/>
        <pt x="458" y="266" on="1"/>
      </contour>
    </TTGlyph>
    <TTGlyph name="emptyset" xMin="0" yMin="-9" xMax="448" yMax="585">
      <contour>
        <pt x="188" y="65" on="0"/>
        <pt x="152" y="76" on="1"/>
        <pt x="114" y="-9" on="1"/>
        <pt x="74" y="8" on="1"/>
        <pt x="112" y="93" on="1"/>
        <pt x="60" y="121" on="0"/>
        <pt x="0" y="224" on="0"/>
        <pt x="0" y="288" on="1"/>
        <pt x="0" y="351" on="0"/>
        <pt x="59" y="453" on="0"/>
        <pt x="161" y="512" on="0"/>
        <pt x="224" y="512" on="1"/>
        <pt x="261" y="512" on="0"/>
        <pt x="296" y="501" on="1"/>
        <pt x="334" y="585" on="1"/>
        <pt x="374" y="568" on="1"/>
        <pt x="336" y="484" on="1"/>
        <pt x="388" y="455" on="0"/>
        <pt x="448" y="352" on="0"/>
        <pt x="448" y="288" on="1"/>
        <pt x="448" y="225" on="0"/>
        <pt x="389" y="123" on="0"/>
        <pt x="287" y="65" on="0"/>
        <pt x="224" y="65" on="1"/>
      </contour>
      <contour>
        <pt x="50" y="236" on="0"/>
        <pt x="92" y="156" on="0"/>
        <pt x="130" y="133" on="1"/>
        <pt x="278" y="461" on="1"/>
        <pt x="254" y="468" on="0"/>
        <pt x="224" y="468" on="1"/>
        <pt x="146" y="468" on="0"/>
        <pt x="50" y="369" on="0"/>
        <pt x="50" y="288" on="1"/>
      </contour>
      <contour>
        <pt x="194" y="109" on="0"/>
        <pt x="224" y="109" on="1"/>
        <pt x="302" y="109" on="0"/>
        <pt x="398" y="208" on="0"/>
        <pt x="398" y="288" on="1"/>
        <pt x="398" y="341" on="0"/>
        <pt x="356" y="421" on="0"/>
        <pt x="318" y="444" on="1"/>
        <pt x="170" y="116" on="1"/>
      </contour>
    </TTGlyph>
    <TTGlyph name="endash" xMin="96" yMin="266" xMax="352" yMax="310">
      <component glyphName="hyphen" x="0" y="0" flags="0x400"/>
    </TTGlyph>
    <TTGlyph name="eng" xMin="64" yMin="-196" xMax="382" yMax="452">
      <contour>
        <pt x="66" y="370" on="1"/>
        <pt x="64" y="448" on="1"/>
        <pt x="108" y="448" on="1"/>
        <pt x="112" y="379" on="1"/>
        <pt x="145" y="411" on="0"/>
        <pt x="221" y="452" on="0"/>
        <pt x="261" y="452" on="1"/>
        <pt x="314" y="452" on="0"/>
        <pt x="382" y="387" on="0"/>
        <pt x="382" y="309" on="1"/>
        <pt x="382" y="-5" on="1"/>
        <pt x="382" y="-78" on="0"/>
        <pt x="334" y="-166" on="0"/>
        <pt x="269" y="-196" on="1"/>
        <pt x="250" y="-157" on="1"/>
        <pt x="295" y="-137" on="0"/>
        <pt x="334" y="-71" on="0"/>
        <pt x="334" y="-13" on="1"/>
        <pt x="334" y="305" on="1"/>
        <pt x="334" y="361" on="0"/>
        <pt x="296" y="408" on="0"/>
        <pt x="252" y="408" on="1"/>
        <pt x="216" y="408" on="0"/>
        <pt x="150" y="372" on="0"/>
        <pt x="114" y="338" on="1"/>
        <pt x="114" y="0" on="1"/>
        <pt x="66" y="0" on="1"/>
      </contour>
    </TTGlyph>
    <TTGlyph name="eogonek" xMin="56" yMin="-197" xMax="395" yMax="461">
      <component glyphName="e" x="0" y="0" flags="0x400"/>
      <component glyphName="uni0328" x="-33" y="0" flags="0x400"/>
    </TTGlyph>
    <TTGlyph name="epsilon" xMin="58" yMin="-7" xMax="369" yMax="455">
      <contour>
        <pt x="141" y="-7" on="0"/>
        <pt x="58" y="64" on="0"/>
        <pt x="58" y="119" on="1"/>
        <pt x="58" y="160" on="0"/>
        <pt x="100" y="219" on="0"/>
        <pt x="144" y="232" on="1"/>
        <pt x="106" y="245" on="0"/>
        <pt x="64" y="297" on="0"/>
        <pt x="64" y="334" on="1"/>
        <pt x="64" y="385" on="0"/>
        <pt x="141" y="455" on="0"/>
        <pt x="226" y="455" on="1"/>
        <pt x="299" y="455" on="0"/>
        <pt x="360" y="434" on="1"/>
        <pt x="350" y="395" on="1"/>
        <pt x="296" y="411" on="0"/>
        <pt x="230" y="411" on="1"/>
        <pt x="115" y="411" on="0"/>
        <pt x="115" y="332" on="1"/>
        <pt x="115" y="296" on="0"/>
        <pt x="172" y="254" on="0"/>
        <pt x="230" y="254" on="1"/>
        <pt x="316" y="254" on="1"/>
        <pt x="316" y="210" on="1"/>
        <pt x="230" y="210" on="1"/>
        <pt x="166" y="210" on="0"/>
        <pt x="109" y="163" on="0"/>
        <pt x="109" y="124" on="1"/>
        <pt x="109" y="81" on="0"/>
        <pt x="168" y="37" on="0"/>
        <pt x="233" y="37" on="1"/>
        <pt x="298" y="37" on="0"/>
        <pt x="360" y="54" on="1"/>
        <pt x="369" y="15" on="1"/>
        <pt x="306" y="-7" on="0"/>
        <pt x="230" y="-7" on="1"/>
      </contour>
    </TTGlyph>
    <TTGlyph name="epsilontonos" xMin="58" yMin="-7" xMax="369" yMax="704">
      <component glyphName="epsilon" x="0" y="0" flags="0x400"/>
      <component glyphName="tonos" x="0" y="0" flags="0x400"/>
    </TTGlyph>
    <TTGlyph name="equal" xMin="32" yMin="193" xMax="416" yMax="383">
      <contour>
        <pt x="32" y="193" on="1"/>
        <pt x="32" y="233" on="1"/>
        <pt x="416" y="233" on="1"/>
        <pt x="416" y="193" on="1"/>
      </contour>
      <contour>
        <pt x="32" y="383" on="1"/>
        <pt x="416" y="383" on="1"/>
        <pt x="416" y="343" on="1"/>
        <pt x="32" y="343" on="1"/>
      </contour>
    </TTGlyph>
    <TTGlyph name="equivalence" xMin="32" yMin="138" xMax="416" yMax="438">
      <contour>
        <pt x="32" y="138" on="1"/>
        <pt x="32" y="178" on="1"/>
        <pt x="416" y="178" on="1"/>
        <pt x="416" y="138" on="1"/>
      </contour>
      <contour>
        <pt x="32" y="308" on="1"/>
        <pt x="416" y="308" on="1"/>
        <pt x="416" y="268" on="1"/>
        <pt x="32" y="268" on="1"/>
      </contour>
      <contour>
        <pt x="32" y="438" on="1"/>
        <pt x="416" y="438" on="1"/>
        <pt x="416" y="398" on="1"/>
        <pt x="32" y="398" on="1"/>
      </contour>
    </TTGlyph>
    <TTGlyph name="estimated" xMin="60" yMin="-13" xMax="388" yMax="461">
      <contour>
        <pt x="290" y="-13" on="0"/>
        <pt x="238" y="-13" on="1"/>
        <pt x="143" y="-13" on="0"/>
        <pt x="60" y="121" on="0"/>
        <pt x="60" y="224" on="1"/>
        <pt x="60" y="328" on="0"/>
        <pt x="144" y="461" on="0"/>
        <pt x="229" y="461" on="1"/>
        <pt x="312" y="461" on="0"/>
        <pt x="388" y="334" on="0"/>
        <pt x="388" y="224" on="1"/>
        <pt x="388" y="202" on="1"/>
        <pt x="154" y="202" on="1"/>
        <pt x="156" y="110" on="0"/>
        <pt x="195" y="31" on="0"/>
        <pt x="249" y="31" on="1"/>
        <pt x="295" y="31" on="0"/>
        <pt x="340" y="44" on="1"/>
        <pt x="351" y="5" on="1"/>
      </contour>
      <contour>
        <pt x="294" y="246" on="1"/>
        <pt x="293" y="339" on="0"/>
        <pt x="263" y="417" on="0"/>
        <pt x="225" y="417" on="1"/>
        <pt x="198" y="417" on="0"/>
        <pt x="168" y="382" on="0"/>
        <pt x="155" y="309" on="0"/>
        <pt x="154" y="246" on="1"/>
      </contour>
    </TTGlyph>
    <TTGlyph name="eta" xMin="64" yMin="-192" xMax="382" yMax="452">
      <contour>
        <pt x="66" y="370" on="1"/>
        <pt x="64" y="448" on="1"/>
        <pt x="108" y="448" on="1"/>
        <pt x="112" y="379" on="1"/>
        <pt x="145" y="411" on="0"/>
        <pt x="221" y="452" on="0"/>
        <pt x="261" y="452" on="1"/>
        <pt x="314" y="452" on="0"/>
        <pt x="382" y="387" on="0"/>
        <pt x="382" y="309" on="1"/>
        <pt x="382" y="-192" on="1"/>
        <pt x="334" y="-192" on="1"/>
        <pt x="334" y="305" on="1"/>
        <pt x="334" y="361" on="0"/>
        <pt x="296" y="408" on="0"/>
        <pt x="252" y="408" on="1"/>
        <pt x="216" y="408" on="0"/>
        <pt x="150" y="372" on="0"/>
        <pt x="114" y="338" on="1"/>
        <pt x="114" y="0" on="1"/>
        <pt x="66" y="0" on="1"/>
      </contour>
    </TTGlyph>
    <TTGlyph name="etatonos" xMin="64" yMin="-192" xMax="382" yMax="704">
      <component glyphName="eta" x="0" y="0" flags="0x400"/>
      <component glyphName="tonos" x="0" y="0" flags="0x400"/>
    </TTGlyph>
    <TTGlyph name="eth" xMin="53" yMin="-8" xMax="394" yMax="648">
      <contour>
        <pt x="211" y="618" on="0"/>
        <pt x="247" y="585" on="1"/>
        <pt x="309" y="628" on="1"/>
        <pt x="331" y="596" on="1"/>
        <pt x="275" y="557" on="1"/>
        <pt x="394" y="431" on="0"/>
        <pt x="394" y="252" on="1"/>
        <pt x="394" y="124" on="0"/>
        <pt x="305" y="-8" on="0"/>
        <pt x="221" y="-8" on="1"/>
        <pt x="144" y="-8" on="0"/>
        <pt x="53" y="106" on="0"/>
        <pt x="53" y="203" on="1"/>
        <pt x="53" y="302" on="0"/>
        <pt x="142" y="414" on="0"/>
        <pt x="215" y="414" on="1"/>
        <pt x="276" y="414" on="0"/>
        <pt x="329" y="379" on="1"/>
        <pt x="306" y="462" on="0"/>
        <pt x="240" y="533" on="1"/>
        <pt x="164" y="480" on="1"/>
        <pt x="142" y="512" on="1"/>
        <pt x="212" y="561" on="1"/>
        <pt x="182" y="588" on="0"/>
        <pt x="143" y="615" on="1"/>
        <pt x="166" y="648" on="1"/>
      </contour>
      <contour>
        <pt x="103" y="124" on="0"/>
        <pt x="163" y="36" on="0"/>
        <pt x="224" y="36" on="1"/>
        <pt x="288" y="36" on="0"/>
        <pt x="345" y="140" on="0"/>
        <pt x="345" y="245" on="1"/>
        <pt x="345" y="291" on="0"/>
        <pt x="339" y="331" on="1"/>
        <pt x="313" y="349" on="0"/>
        <pt x="247" y="370" on="0"/>
        <pt x="216" y="370" on="1"/>
        <pt x="156" y="370" on="0"/>
        <pt x="103" y="276" on="0"/>
        <pt x="103" y="203" on="1"/>
      </contour>
    </TTGlyph>
    <TTGlyph name="exclam" xMin="172" yMin="-10" xMax="276" yMax="640">
      <contour>
        <pt x="190" y="640" on="1"/>
        <pt x="258" y="640" on="1"/>
        <pt x="245" y="192" on="1"/>
        <pt x="203" y="192" on="1"/>
      </contour>
      <contour>
        <pt x="172" y="66" on="0"/>
        <pt x="202" y="94" on="0"/>
        <pt x="224" y="94" on="1"/>
        <pt x="246" y="94" on="0"/>
        <pt x="276" y="66" on="0"/>
        <pt x="276" y="42" on="1"/>
        <pt x="276" y="18" on="0"/>
        <pt x="246" y="-10" on="0"/>
        <pt x="224" y="-10" on="1"/>
        <pt x="202" y="-10" on="0"/>
        <pt x="172" y="18" on="0"/>
        <pt x="172" y="42" on="1"/>
      </contour>
    </TTGlyph>
    <TTGlyph name="exclamdbl" xMin="82" yMin="-10" xMax="366" yMax="640">
      <component glyphName="exclam" x="-90" y="0" flags="0x400"/>
      <component glyphName="exclam" x="90" y="0" flags="0x400"/>
    </TTGlyph>
    <TTGlyph name="exclamdown" xMin="172" yMin="-192" xMax="276" yMax="458">
      <contour>
        <pt x="258" y="-192" on="1"/>
        <pt x="190" y="-192" on="1"/>
        <pt x="203" y="256" on="1"/>
        <pt x="245" y="256" on="1"/>
      </contour>
      <contour>
        <pt x="172" y="430" on="0"/>
        <pt x="202" y="458" on="0"/>
        <pt x="224" y="458" on="1"/>
        <pt x="246" y="458" on="0"/>
        <pt x="276" y="430" on="0"/>
        <pt x="276" y="406" on="1"/>
        <pt x="276" y="382" on="0"/>
        <pt x="246" y="354" on="0"/>
        <pt x="224" y="354" on="1"/>
        <pt x="202" y="354" on="0"/>
        <pt x="172" y="382" on="0"/>
        <pt x="172" y="406" on="1"/>
      </contour>
    </TTGlyph>
    <TTGlyph name="f" xMin="59" yMin="0" xMax="369" yMax="648">
      <contour>
        <pt x="59" y="408" on="1"/>
        <pt x="59" y="448" on="1"/>
        <pt x="134" y="448" on="1"/>
        <pt x="134" y="504" on="1"/>
        <pt x="134" y="576" on="0"/>
        <pt x="203" y="648" on="0"/>
        <pt x="259" y="648" on="1"/>
        <pt x="311" y="648" on="0"/>
        <pt x="369" y="635" on="1"/>
        <pt x="360" y="593" on="1"/>
        <pt x="311" y="604" on="0"/>
        <pt x="268" y="604" on="1"/>
        <pt x="222" y="604" on="0"/>
        <pt x="182" y="552" on="0"/>
        <pt x="182" y="511" on="1"/>
        <pt x="182" y="448" on="1"/>
        <pt x="338" y="448" on="1"/>
        <pt x="338" y="406" on="1"/>
        <pt x="182" y="406" on="1"/>
        <pt x="182" y="0" on="1"/>
        <pt x="134" y="0" on="1"/>
        <pt x="134" y="405" on="1"/>
      </contour>
    </TTGlyph>
    <TTGlyph name="female" xMin="65" yMin="-104" xMax="383" yMax="446">
      <contour>
        <pt x="200" y="-6" on="1"/>
        <pt x="104" y="-6" on="1"/>
        <pt x="104" y="38" on="1"/>
        <pt x="200" y="38" on="1"/>
        <pt x="200" y="132" on="1"/>
        <pt x="141" y="140" on="0"/>
        <pt x="65" y="227" on="0"/>
        <pt x="65" y="288" on="1"/>
        <pt x="65" y="332" on="0"/>
        <pt x="107" y="405" on="0"/>
        <pt x="180" y="446" on="0"/>
        <pt x="224" y="446" on="1"/>
        <pt x="268" y="446" on="0"/>
        <pt x="341" y="405" on="0"/>
        <pt x="383" y="332" on="0"/>
        <pt x="383" y="288" on="1"/>
        <pt x="383" y="227" on="0"/>
        <pt x="307" y="140" on="0"/>
        <pt x="248" y="132" on="1"/>
        <pt x="248" y="38" on="1"/>
        <pt x="344" y="38" on="1"/>
        <pt x="344" y="-6" on="1"/>
        <pt x="248" y="-6" on="1"/>
        <pt x="248" y="-104" on="1"/>
        <pt x="200" y="-104" on="1"/>
      </contour>
      <contour>
        <pt x="113" y="240" on="0"/>
        <pt x="177" y="174" on="0"/>
        <pt x="224" y="174" on="1"/>
        <pt x="271" y="174" on="0"/>
        <pt x="335" y="240" on="0"/>
        <pt x="335" y="288" on="1"/>
        <pt x="335" y="336" on="0"/>
        <pt x="271" y="402" on="0"/>
        <pt x="224" y="402" on="1"/>
        <pt x="177" y="402" on="0"/>
        <pt x="113" y="336" on="0"/>
        <pt x="113" y="288" on="1"/>
      </contour>
    </TTGlyph>
    <TTGlyph name="filledbox" xMin="62" yMin="128" xMax="386" yMax="448">
      <contour>
        <pt x="386" y="128" on="1"/>
        <pt x="62" y="128" on="1"/>
        <pt x="62" y="448" on="1"/>
        <pt x="386" y="448" on="1"/>
      </contour>
    </TTGlyph>
    <TTGlyph name="filledrect" xMin="16" yMin="192" xMax="432" yMax="384">
      <contour>
        <pt x="432" y="192" on="1"/>
        <pt x="16" y="192" on="1"/>
        <pt x="16" y="384" on="1"/>
        <pt x="432" y="384" on="1"/>
      </contour>
    </TTGlyph>
    <TTGlyph name="five" xMin="60" yMin="0" xMax="390" yMax="576">
      <contour>
        <pt x="115" y="52" on="0"/>
        <pt x="177" y="44" on="0"/>
        <pt x="209" y="44" on="1"/>
        <pt x="277" y="44" on="0"/>
        <pt x="338" y="100" on="0"/>
        <pt x="338" y="161" on="1"/>
        <pt x="338" y="219" on="0"/>
        <pt x="280" y="271" on="0"/>
        <pt x="217" y="271" on="1"/>
        <pt x="187" y="271" on="0"/>
        <pt x="131" y="264" on="0"/>
        <pt x="87" y="256" on="1"/>
        <pt x="74" y="271" on="1"/>
        <pt x="87" y="576" on="1"/>
        <pt x="368" y="576" on="1"/>
        <pt x="368" y="532" on="1"/>
        <pt x="133" y="532" on="1"/>
        <pt x="124" y="303" on="1"/>
        <pt x="178" y="315" on="0"/>
        <pt x="221" y="315" on="1"/>
        <pt x="390" y="315" on="0"/>
        <pt x="390" y="160" on="1"/>
        <pt x="390" y="79" on="0"/>
        <pt x="293" y="0" on="0"/>
        <pt x="210" y="0" on="1"/>
        <pt x="139" y="0" on="0"/>
        <pt x="60" y="21" on="1"/>
        <pt x="69" y="62" on="1"/>
      </contour>
    </TTGlyph>
    <TTGlyph name="five.dnom" xMin="182" yMin="-198" xMax="386" yMax="128">
      <component glyphName="uni2075" x="128" y="-512" flags="0x404"/>
    </TTGlyph>
    <TTGlyph name="five.numr" xMin="54" yMin="314" xMax="258" yMax="640">
      <component glyphName="uni2075" x="0" y="0" flags="0x400"/>
    </TTGlyph>
    <TTGlyph name="five.osf" xMin="60" yMin="-128" xMax="390" yMax="448">
      <contour>
        <pt x="115" y="-76" on="0"/>
        <pt x="177" y="-84" on="0"/>
        <pt x="209" y="-84" on="1"/>
        <pt x="277" y="-84" on="0"/>
        <pt x="338" y="-28" on="0"/>
        <pt x="338" y="33" on="1"/>
        <pt x="338" y="91" on="0"/>
        <pt x="280" y="143" on="0"/>
        <pt x="217" y="143" on="1"/>
        <pt x="187" y="143" on="0"/>
        <pt x="131" y="136" on="0"/>
        <pt x="87" y="128" on="1"/>
        <pt x="74" y="143" on="1"/>
        <pt x="87" y="448" on="1"/>
        <pt x="368" y="448" on="1"/>
        <pt x="368" y="404" on="1"/>
        <pt x="133" y="404" on="1"/>
        <pt x="124" y="175" on="1"/>
        <pt x="178" y="187" on="0"/>
        <pt x="221" y="187" on="1"/>
        <pt x="390" y="187" on="0"/>
        <pt x="390" y="32" on="1"/>
        <pt x="390" y="-49" on="0"/>
        <pt x="293" y="-128" on="0"/>
        <pt x="210" y="-128" on="1"/>
        <pt x="139" y="-128" on="0"/>
        <pt x="60" y="-107" on="1"/>
        <pt x="69" y="-66" on="1"/>
      </contour>
    </TTGlyph>
    <TTGlyph name="five_fraction_nine" xMin="43" yMin="-198" xMax="404" yMax="640">
      <component glyphName="five.numr" x="0" y="0" flags="0x400"/>
      <component glyphName="fraction.alt" x="0" y="0" flags="0x400"/>
      <component glyphName="nine.dnom" x="0" y="0" flags="0x400"/>
    </TTGlyph>
    <TTGlyph name="five_fraction_seven" xMin="43" yMin="-198" xMax="404" yMax="640">
      <component glyphName="five.numr" x="0" y="0" flags="0x400"/>
      <component glyphName="fraction.alt" x="0" y="0" flags="0x400"/>
      <component glyphName="seven.dnom" x="0" y="0" flags="0x400"/>
    </TTGlyph>
    <TTGlyph name="fiveeighths" xMin="43" yMin="-198" xMax="404" yMax="640">
      <component glyphName="five.numr" x="0" y="0" flags="0x400"/>
      <component glyphName="fraction.alt" x="0" y="0" flags="0x400"/>
      <component glyphName="eight.dnom" x="0" y="0" flags="0x400"/>
    </TTGlyph>
    <TTGlyph name="florin" xMin="50" yMin="-196" xMax="369" yMax="648">
      <contour>
        <pt x="95" y="-137" on="0"/>
        <pt x="134" y="-71" on="0"/>
        <pt x="134" y="-13" on="1"/>
        <pt x="134" y="405" on="1"/>
        <pt x="59" y="408" on="1"/>
        <pt x="59" y="448" on="1"/>
        <pt x="134" y="448" on="1"/>
        <pt x="134" y="504" on="1"/>
        <pt x="134" y="576" on="0"/>
        <pt x="203" y="648" on="0"/>
        <pt x="259" y="648" on="1"/>
        <pt x="311" y="648" on="0"/>
        <pt x="369" y="635" on="1"/>
        <pt x="360" y="593" on="1"/>
        <pt x="311" y="604" on="0"/>
        <pt x="268" y="604" on="1"/>
        <pt x="222" y="604" on="0"/>
        <pt x="182" y="552" on="0"/>
        <pt x="182" y="511" on="1"/>
        <pt x="182" y="448" on="1"/>
        <pt x="338" y="448" on="1"/>
        <pt x="338" y="406" on="1"/>
        <pt x="182" y="406" on="1"/>
        <pt x="182" y="-5" on="1"/>
        <pt x="182" y="-78" on="0"/>
        <pt x="134" y="-166" on="0"/>
        <pt x="69" y="-196" on="1"/>
        <pt x="50" y="-157" on="1"/>
      </contour>
    </TTGlyph>
    <TTGlyph name="four" xMin="47" yMin="0" xMax="417" yMax="592">
      <contour>
        <pt x="279" y="138" on="1"/>
        <pt x="47" y="138" on="1"/>
        <pt x="57" y="336" on="0"/>
        <pt x="192" y="554" on="0"/>
        <pt x="327" y="592" on="1"/>
        <pt x="327" y="182" on="1"/>
        <pt x="417" y="182" on="1"/>
        <pt x="417" y="138" on="1"/>
        <pt x="327" y="138" on="1"/>
        <pt x="327" y="0" on="1"/>
        <pt x="279" y="0" on="1"/>
      </contour>
      <contour>
        <pt x="279" y="182" on="1"/>
        <pt x="279" y="521" on="1"/>
        <pt x="199" y="489" on="0"/>
        <pt x="113" y="322" on="0"/>
        <pt x="99" y="182" on="1"/>
      </contour>
    </TTGlyph>
    <TTGlyph name="four.dnom" xMin="193" yMin="-192" xMax="409" yMax="138">
      <component glyphName="uni2074" x="128" y="-512" flags="0x404"/>
    </TTGlyph>
    <TTGlyph name="four.numr" xMin="65" yMin="320" xMax="281" yMax="650">
      <component glyphName="uni2074" x="0" y="0" flags="0x400"/>
    </TTGlyph>
    <TTGlyph name="four.osf" xMin="47" yMin="-128" xMax="417" yMax="464">
      <contour>
        <pt x="279" y="10" on="1"/>
        <pt x="47" y="10" on="1"/>
        <pt x="57" y="208" on="0"/>
        <pt x="192" y="426" on="0"/>
        <pt x="327" y="464" on="1"/>
        <pt x="327" y="54" on="1"/>
        <pt x="417" y="54" on="1"/>
        <pt x="417" y="10" on="1"/>
        <pt x="327" y="10" on="1"/>
        <pt x="327" y="-128" on="1"/>
        <pt x="279" y="-128" on="1"/>
      </contour>
      <contour>
        <pt x="279" y="54" on="1"/>
        <pt x="279" y="393" on="1"/>
        <pt x="199" y="361" on="0"/>
        <pt x="113" y="194" on="0"/>
        <pt x="99" y="54" on="1"/>
      </contour>
    </TTGlyph>
    <TTGlyph name="four_fraction_nine" xMin="43" yMin="-198" xMax="404" yMax="650">
      <component glyphName="four.numr" x="0" y="0" flags="0x400"/>
      <component glyphName="fraction.alt" x="0" y="0" flags="0x400"/>
      <component glyphName="nine.dnom" x="0" y="0" flags="0x400"/>
    </TTGlyph>
    <TTGlyph name="four_fraction_seven" xMin="43" yMin="-198" xMax="404" yMax="650">
      <component glyphName="four.numr" x="0" y="0" flags="0x400"/>
      <component glyphName="fraction.alt" x="0" y="0" flags="0x400"/>
      <component glyphName="seven.dnom" x="0" y="0" flags="0x400"/>
    </TTGlyph>
    <TTGlyph name="fraction" xMin="130" yMin="-67" xMax="318" yMax="708">
      <component glyphName="slash" x="0" y="0" flags="0x400"/>
    </TTGlyph>
    <TTGlyph name="fraction.alt" xMin="43" yMin="179" xMax="404" yMax="269">
      <contour>
        <pt x="399" y="269" on="1"/>
        <pt x="404" y="231" on="1"/>
        <pt x="48" y="179" on="1"/>
        <pt x="43" y="217" on="1"/>
      </contour>
    </TTGlyph>
    <TTGlyph name="fraction.percent" xMin="28" yMin="190" xMax="420" yMax="449">
      <contour>
        <pt x="397" y="449" on="1"/>
        <pt x="420" y="411" on="1"/>
        <pt x="50" y="190" on="1"/>
        <pt x="28" y="228" on="1"/>
      </contour>
    </TTGlyph>
    <TTGlyph name="franc" xMin="16" yMin="0" xMax="372" yMax="576">
      <contour>
        <pt x="66" y="164" on="1"/>
        <pt x="66" y="576" on="1"/>
        <pt x="372" y="576" on="1"/>
        <pt x="372" y="532" on="1"/>
        <pt x="114" y="532" on="1"/>
        <pt x="114" y="310" on="1"/>
        <pt x="308" y="310" on="1"/>
        <pt x="308" y="266" on="1"/>
        <pt x="114" y="266" on="1"/>
        <pt x="114" y="164" on="1"/>
        <pt x="254" y="164" on="1"/>
        <pt x="254" y="124" on="1"/>
        <pt x="114" y="124" on="1"/>
        <pt x="114" y="0" on="1"/>
        <pt x="66" y="0" on="1"/>
        <pt x="66" y="124" on="1"/>
        <pt x="16" y="124" on="1"/>
        <pt x="16" y="164" on="1"/>
      </contour>
    </TTGlyph>
</ttFont>
